<?xml version="1.0" standalone="no"?>
<!DOCTYPE svg PUBLIC "-//W3C//DTD SVG 1.1//EN" "http://www.w3.org/Graphics/SVG/1.1/DTD/svg11.dtd" >
<svg xmlns="http://www.w3.org/2000/svg" xmlns:xlink="http://www.w3.org/1999/xlink" version="1.1">
<metadata></metadata>
<defs>
<font id="doctor_punkregular" horiz-adv-x="922" >
<font-face units-per-em="2048" ascent="1638" descent="-410" />
<missing-glyph horiz-adv-x="508" />
<glyph unicode="&#xd;" horiz-adv-x="508" />
<glyph horiz-adv-x="0" />
<glyph horiz-adv-x="0" />
<glyph unicode=" "  horiz-adv-x="508" />
<glyph unicode="&#x09;" horiz-adv-x="508" />
<glyph unicode="&#xa0;" horiz-adv-x="508" />
<glyph unicode="!" horiz-adv-x="429" d="M49 345q0 113 132 156h40q104 0 148 -124q4 -22 4 -32q0 -128 -164 -156q-160 31 -160 156zM49 1257v24q0 76 108 128q28 8 48 8h12q101 0 148 -108q8 -15 8 -32v-20q0 -35 -100 -492q-27 -167 -36 -168h-52q-12 0 -40 200q-96 406 -96 460z" />
<glyph unicode="&#x22;" horiz-adv-x="823" d="M179 1223v36q0 153 240 316q45 20 48 20q36 -50 36 -60q-159 -82 -196 -192l-12 -60h68q41 -3 71 -15q33 150 254 283q20 12 32 12q32 -52 32 -64q-204 -101 -204 -244v-4h64q126 0 152 -116v-20q0 -101 -124 -136h-28q-93 0 -142 72q-26 -21 -67 -36q-15 -4 -32 -4h-8 q-126 0 -176 136q-8 48 -8 76z" />
<glyph unicode="#" horiz-adv-x="833" d="M49 485q23 94 44 94q92 -5 142 -5l39 160h-93q-61 0 -61 14q27 89 44 89h126q9 0 55 183q65 14 72 14l5 -9q-27 -106 -44 -188h6q46 -5 76 -5h77q41 202 55 202q45 14 66 14q0 -5 5 -5q-44 -158 -49 -211h5q43 0 154 5q0 5 6 5q5 -9 5 -14q0 -79 -154 -94h-38 q-16 0 -44 -160h71q29 0 94 5l5 -9q0 -85 -197 -108l-55 -211q-11 -5 -17 -5q-41 18 -49 33q44 167 44 187h-154q-13 0 -60 -211q-13 -9 -22 -9q-49 18 -49 33q0 16 49 187h-71q-88 0 -88 19zM307 648l11 -4h142q11 0 50 136h-159z" />
<glyph unicode="$" horiz-adv-x="982" d="M21 936q-23 176 169 312q100 53 177 63l-22 171q1 8 7 8l68 9q8 0 9 -7l22 -170h4q303 21 388 -135q10 -15 14 -43q12 -94 -63 -141q-26 -12 -46 -14l-4 -1q-105 -13 -142 71q-6 15 -8 31l-2 12q-6 43 18 139q-48 14 -150 9l43 -333q129 -1 225 -23q197 -64 222 -258 q32 -243 -250 -375q-71 -25 -109 -30l29 -226q1 -8 -7 -9l-67 -9q-8 -1 -9 7l-29 226l-12 -2q-255 -32 -416 132q-22 43 -27 82q4 133 114 147l16 2q137 0 151 -109q7 -54 -20 -156q105 -35 185 -25l-47 361q-1 7 -138 7q-264 45 -291 257zM206 1060l4 -28q12 -94 128 -116 q53 -5 81 -2l-42 326q-87 -12 -157 -101q-19 -42 -14 -79zM536 659l46 -357q80 10 155 85q36 62 29 112l-3 28q-18 136 -219 133z" />
<glyph unicode="%" horiz-adv-x="3018" d="M110 1184v10q0 115 136 163l47 3q46 0 89 -36h3q-19 188 -26 229q-33 -7 -60 -7q-5 0 -10 10v17q0 12 140 20h3q13 0 17 -103q6 -11 43 -402v-6q1 -7 6 -7h33q13 0 37 362q6 26 17 159q6 3 10 3q46 -6 418 -36q3 -7 3 -10q-43 -501 -50 -541q-6 -3 -10 -3q-11 6 -20 6 h-23l-345 30q-16 -7 -149 -13q-4 5 -7 40q-41 -63 -123 -63h-30q-49 4 -109 63q-40 60 -40 112zM113 760q0 9 209 30q213 23 246 23q135 0 182 -83q20 -46 20 -80v-40q0 -46 -79 -119q-71 -51 -216 -70q-31 0 -43 -10q23 -209 33 -209q28 -13 53 -13h30q10 0 13 -36 q-16 -13 -119 -20q0 -4 -10 -4h-13q-210 -23 -223 -23l-10 13q0 4 4 4l-4 6v10q0 11 73 27q18 12 20 30l-59 497q-13 30 -97 30q-7 8 -10 37zM190 -315q0 99 3 272l7 3h176l6 -3q-3 -133 -3 -199v-43q0 -77 -10 -77h-173q-6 0 -6 7v40zM206 -66q4 -52 33 -269h24l20 113h6 v-4q0 -24 10 -109h20q8 0 50 269h-37q-12 -127 -20 -127h-3v4q-8 123 -16 123h-17q-13 -104 -13 -127h-7l-13 127h-37zM389 -309q20 223 26 252q196 -14 196 -23q-20 -225 -20 -245q-3 0 -3 -4q-155 14 -199 20zM392 746l33 -268v-10h4q71 0 129 53q23 26 23 89 q0 102 -73 136q-31 5 -53 10q-12 -6 -26 -6h-30zM409 -183v-29q10 -90 79 -90h17q86 16 86 123v6q0 76 -63 97q-18 3 -26 3q-80 0 -93 -110zM432 -189q0 89 60 103h16q46 0 57 -87v-33q0 -71 -57 -86h-16q-60 15 -60 103zM575 1291q0 -172 129 -216q27 -7 33 -7h63 q41 0 113 67q60 93 60 205q0 162 -130 213l-29 6h-50q-138 0 -186 -205q-3 -37 -3 -63zM618 -309q20 223 26 252q196 -14 196 -23q-20 -225 -20 -245q-3 0 -3 -4q-155 14 -199 20zM628 1311q0 180 109 219q12 6 27 6h13q65 0 103 -66q36 -61 36 -140v-43q0 -150 -106 -195 l-16 -4h-40q-42 0 -86 63q-40 71 -40 160zM638 -183v-29q10 -90 79 -90h17q86 16 86 123v6q0 76 -63 97q-18 3 -26 3q-80 0 -93 -110zM661 -189q0 89 60 103h16q46 0 57 -87v-33q0 -71 -57 -86h-16q-60 15 -60 103zM764 760q2 30 10 30h26q101 -10 123 -17h37q79 -11 79 -20 l3 -7q-66 -352 -66 -371v-23q16 -60 60 -60q18 -3 30 -3q45 0 89 46q50 276 50 292v10q-10 27 -50 43q-30 4 -30 13q0 40 20 40q18 -6 249 -33q10 -7 10 -13q-70 -402 -70 -422q0 -39 73 -53v-23q0 -23 -19 -23l-249 33q-7 11 -7 20q7 9 10 46h-7q-62 -42 -122 -49h-50 q-173 20 -173 162q0 34 47 305v10q-18 47 -53 47q-20 11 -20 20zM860 -242q0 64 83 76q17 0 43 -17v4l-10 99h-26q-7 0 -7 7v3q0 7 10 7q11 0 56 3q6 0 27 -239h16v203q1 6 7 6h166q0 -15 80 -23q3 0 10 -3q-24 -124 -24 -140q5 -13 17 -19h17q30 0 36 53q0 26 10 59 q0 19 -27 24v10l4 6q80 -10 89 -13q-23 -128 -23 -156q23 -13 23 -17v-3q0 -7 -6 -7q-66 7 -87 14l4 16v4h-4q-19 -17 -53 -17h-3q-38 0 -53 33h-3v-93q0 -6 -7 -6h-166q-7 0 -7 6v47q-41 -4 -49 -4q-4 6 -4 17q-21 -27 -59 -27h-7q-62 0 -73 87zM1019 936v584q0 4 10 10 h362l16 -4q-3 63 -6 83q11 7 20 7h332q16 0 16 -116l-6 -4h-54q-23 0 -36 -6l3 -17v-23q7 -146 7 -159l3 -17q0 -3 -3 -3l7 -40q0 -3 -4 -3l4 -20q0 -39 9 -176h-3l3 -7v-40q0 -6 -6 -6h-149q-5 0 -10 10q0 27 -27 494h-76q-8 -7 -14 -7q-6 4 -10 4v-544q0 -7 -6 -7h-375 q-7 0 -7 7zM1052 1005h7q5 0 10 10q0 6 -17 10v-20zM1052 1463h27v4q0 6 -7 6h-20v-10zM1066 -116v-4h13v4h-13zM1066 -322v-10h3q7 0 7 7l-7 3h-3zM1089 -216q0 -96 36 -96q0 -9 47 -13q17 0 20 10q-10 0 -10 6q6 4 10 4v6q-6 0 -20 14v3h-27q-4 0 -10 10v36q0 4 4 4l-4 6 q0 43 40 43q6 -3 13 -3v10q-6 8 -6 10v3q10 0 10 7v3q-26 14 -40 14h-3q-40 0 -60 -77zM1102 1251q0 -187 67 -203q51 -29 92 -29h27l33 10v3l-23 13q0 8 23 17v10q-16 0 -16 23q-8 0 -14 -3q-13 5 -13 10q0 3 3 3q-3 6 -3 10q-23 -7 -40 -7h-16q-24 8 -24 60v33q0 9 7 20 q-3 12 -3 13q12 90 73 90q0 3 6 3q11 -6 20 -6h14v3l-4 6q4 6 4 14l-17 20l30 20q-5 0 -43 26q-24 7 -27 7h-40q-48 0 -93 -87q-16 -40 -23 -79zM1185 1267l7 4q6 -1 6 -7l-6 -3q-7 0 -7 6zM1192 -246h13v4q-3 0 -10 3zM1198 1297h10q0 -6 -6 -6zM1205 -329v-6h10q7 0 7 6 v17q-5 0 -17 -17zM1218 -116v-7h4v7h-4zM1232 -123v-86h3q10 67 10 80q-8 6 -10 6h-3zM1321 1191l7 -3q6 3 10 3q11 -7 20 -7v4q0 6 -24 13q-13 -5 -13 -10zM1351 1005q1 -6 7 -6h26l7 20l-3 6q3 6 3 13v4h-7q-4 0 -33 -33v-4zM1378 1457l6 -4l7 10v4h-10q0 -4 -3 -10z M1421 846v20q2 20 10 20h43q9 0 89 -73q17 0 80 -70v-40q0 -13 -17 -26q6 0 17 -10h3q14 23 37 23h7q47 0 96 -63q6 0 53 -36h3q-6 150 -6 278l19 17h166q26 0 33 -37v-3q0 -96 -9 -96l9 -17v-76q0 -31 -73 -43l-3 -14h37q39 -5 39 -26q0 -14 7 -37v-56q0 -17 -3 -50 q6 -1 6 -6v-10q0 -14 4 -37q-7 -13 -7 -23q0 -36 7 -143q-4 -24 -4 -59q-10 -7 -19 -7h-14q-30 0 -139 99q-17 0 -126 113q-23 3 -120 93h-10q7 -21 7 -30v-69l-3 -20q10 -34 10 -70q-7 -21 -7 -27q0 -2 3 -43q0 -15 -43 -53h-30l-73 14q-23 -7 -39 -7h-4q-23 0 -23 20 q-3 167 -3 235l-4 24q7 11 7 20q-7 0 -7 6v27q0 41 4 76l-7 76q3 18 3 34l-3 13q0 3 3 3q-6 51 -6 166zM1437 -53l7 3h153q4 0 10 -10v-36q0 -7 -44 -10l10 -223q4 -6 4 -10l-7 -3h-66q-7 0 -7 7l-10 225h-36l-7 -3q-3 0 -7 60zM1613 -53l7 3h152q10 0 10 -13h233q6 -1 6 -7 q10 -227 10 -275q4 0 4 -3l-7 -4h-226q-13 0 -16 239q-4 7 -4 10h-26l-17 -3l10 -223q4 -6 4 -10l-7 -3h-66q-7 0 -7 7l-10 225h-37l-6 -3q-3 0 -7 60zM1792 1055q10 145 40 431q0 4 -3 4q10 109 16 109q206 -20 422 -36q3 -7 3 -10q-44 -541 -50 -541l-6 -3q-25 6 -388 36 h-14q-17 0 -20 10zM1826 -212q4 0 16 -17v-96h143v50h-86q-7 0 -7 6v27q1 6 7 6h59v50h-56q-7 0 -7 7v26q1 7 7 7h86v50h-146v-97zM1829 1287q0 -149 109 -205q40 -14 63 -14h53q50 4 110 63q63 82 63 216q0 144 -113 199q-36 13 -50 13h-53q-52 0 -109 -53 q-73 -87 -73 -219zM1885 1297v57q0 3 4 3q0 3 -4 3q13 92 50 133q45 42 83 43h23q93 0 130 -166v-106q0 -106 -93 -169q-3 0 -27 -7h-43q-58 0 -106 106q-17 51 -17 103zM1928 508l7 -4v4q-3 6 -3 10h-4v-10zM1932 464h10v7l-4 17h-6v-24zM2048 -47q1 7 6 7h90q0 17 7 17 h126q6 -1 6 -7v-295q0 -7 -6 -7h-130q0 -16 -6 -16h-87q-6 0 -6 6v295zM2074 -90v-232h50v83q0 5 20 10q1 7 7 7q17 -18 53 -83h60q-44 71 -73 103q46 25 46 66q0 60 -83 60h-7q0 -14 -6 -14h-67zM2081 843q0 10 289 30q0 3 10 3q78 0 122 10h10q60 0 123 10h40l17 3v-3l6 3 h20q14 0 23 -212q10 -65 50 -564v-17q0 -14 -385 -36q-6 -4 -10 -4v4q-116 -17 -245 -20q-9 0 -70 793zM2124 -136q0 4 20 10q0 13 10 13q27 0 30 -33q0 -21 -37 -37q0 -13 -6 -13h-10q-7 0 -7 7v53zM2254 693l46 -531h3l17 4v-4q11 7 20 7h23q22 0 66 3q-6 121 -13 153l7 3 q58 -71 103 -146h23q4 0 36 7h10q28 0 83 3v7q-169 243 -169 249q32 80 126 269v3h-156q-65 -166 -76 -166h-7q0 42 -6 83l3 7l-10 63l-7 -4q-92 -3 -122 -10zM2283 972v657q1 7 7 7h199l7 3l-4 7v16q0 5 10 10h286q6 -1 6 -6v-657q0 -7 -6 -7h-289v-30q0 -7 -7 -7h-202 q-7 0 -7 7zM2320 -342q0 21 36 30q30 -10 30 -33v-3q0 -26 -33 -30q-27 0 -33 36zM2340 1029l6 -4h97q6 0 6 7v179q0 3 10 10l17 -3h3l17 3l-4 17q2 6 7 6q43 -34 106 -152q17 -24 17 -30h126v3q-99 159 -146 206q-15 6 -17 13q100 52 100 100q7 23 7 39q0 110 -133 130h-60 v-20q0 -7 -7 -7h-146l-6 -3l3 -7v-481zM2410 -66l6 3h226q6 -1 6 -7q10 -227 10 -275q4 0 4 -3l-7 -4h-226q-11 0 -19 286zM2449 1307v126q0 5 10 10h37l-4 17v10q2 6 7 6h13q63 -9 63 -59q4 0 4 -10q0 -56 -80 -77q0 -33 -10 -33h-30q-4 0 -10 10zM2453 -212q4 0 16 -17 v-96h143v50h-86q-7 0 -7 6v27q1 6 7 6h59v50h-56q-7 0 -7 7v26q1 7 7 7h86v50h-146v-97zM2675 -252q0 12 36 13q-33 34 -33 43q0 26 4 93q42 40 59 40h90q29 0 63 -57v-9q0 -60 -23 -60h-20l40 -43l-4 -24v-43q-25 -59 -66 -59h-90q-20 0 -56 49v57zM2751 -249q9 -16 14 -17 h23q5 0 10 10q-11 7 -20 7h-27zM2765 -163v-6q0 -5 10 -10h36q-7 26 -13 26h-23q-5 0 -10 -10z" />
<glyph unicode="&#x26;" horiz-adv-x="1155" d="M36 177q-81 224 194 509q-124 108 -157 198l-1 4q-63 174 79 322q56 55 120 78l23 8q150 55 244 -64q22 -37 26 -46q70 -193 -178 -426q165 -149 321 -275q104 288 77 363l-7 19q-8 23 -134 7q-17 58 -6 62l406 147l9 -1q21 -56 -24 -73q-109 -64 -134 -125 q-76 -287 -138 -429q160 -133 246 -102q18 -1 113 16q7 -58 0 -60l-289 -105q-7 -2 -150 108q-111 -232 -273 -291q-166 -60 -297 46q-43 36 -70 110zM187 313l15 -42q55 -151 225 -118l15 6q124 45 188 187q-247 200 -357 304q-144 -178 -86 -337zM188 1037q4 -22 9 -36 l12 -33q23 -63 135 -173q175 174 113 344l-5 15q-34 93 -137 73l-23 -8q-106 -39 -104 -182z" />
<glyph unicode="'" horiz-adv-x="472" d="M59 1499q0 90 108 132q16 4 32 4h24q117 0 164 -136q8 -39 12 -92q0 -172 -236 -328q-12 -11 -56 -28q-36 58 -36 60q208 113 208 252h-52q-126 0 -160 92q0 5 -8 44z" />
<glyph unicode="(" horiz-adv-x="664" d="M23 5v1550q0 5 5 5h606q5 -1 5 -5v-1550q0 -5 -5 -5h-606q-5 0 -5 5zM145 780q0 -266 210 -409q100 -55 176 -62v49q-59 0 -127 84q-52 78 -64 174q-8 21 -16 131h3l-3 5v56q0 334 154 422q42 15 53 15v49q-113 -11 -232 -102q-154 -146 -154 -371v-41z" />
<glyph unicode=")" horiz-adv-x="680" d="M42 8v60q6 8 80 32q244 136 244 612v116q0 476 -244 612q-74 24 -80 32v68h4q134 0 332 -132q276 -227 276 -616v-44q0 -366 -248 -592q-127 -111 -320 -152q-21 -4 -40 -4z" />
<glyph unicode="*" horiz-adv-x="833" d="M78 1292v16q0 56 72 68q189 -44 220 -44q-32 47 -132 148q-28 33 -28 68q0 37 64 64h20q63 0 100 -188q4 0 24 -64h4q71 235 92 240q30 12 48 12q51 0 68 -72q0 -45 -116 -156l-44 -52h4q100 16 216 44q76 -13 76 -76q0 -65 -76 -72q-124 28 -220 44q60 -74 148 -168 q12 -26 12 -48q0 -48 -80 -64q-68 0 -100 180q-3 0 -28 72h-4q-64 -203 -76 -224q-27 -28 -56 -28q-76 12 -76 76q0 33 136 172q24 28 24 32h-4l-216 -44h-4q-68 8 -68 64z" />
<glyph unicode="+" horiz-adv-x="1223" d="M186 442v124q1 8 8 8h384v384q1 8 8 8h124q8 -1 8 -8v-384h384q8 -1 8 -8v-124q0 -8 -8 -8h-384v-384q0 -8 -8 -8h-124q-8 0 -8 8v384h-384q-8 0 -8 8z" />
<glyph unicode="," horiz-adv-x="557" d="M173 86v18q0 53 68 90q21 9 46 9q94 0 130 -93q16 -40 16 -93q0 -137 -183 -262q-9 -9 -43 -22q-10 19 -28 46q161 90 161 201h-6q-161 0 -161 106z" />
<glyph unicode="-" horiz-adv-x="670" d="M62 603v168q1 8 8 8h488q8 -1 8 -8v-168q0 -8 -8 -8h-488q-8 0 -8 8z" />
<glyph unicode="." horiz-adv-x="634" d="M147 19v20q0 108 132 152q10 0 32 4q124 0 164 -148v-24q0 -111 -132 -156q-10 0 -32 -4q-112 0 -160 124q-4 16 -4 32z" />
<glyph unicode="/" horiz-adv-x="794" d="M35 -15q536 1515 572 1608h140q8 -1 8 -8q-536 -1519 -572 -1608h-140q-8 0 -8 8z" />
<glyph unicode="0" horiz-adv-x="647" d="M17 492v4h9v-4h-9zM26 915q0 52 57 127q54 62 181 62h48q46 0 88 -26q43 0 102 -84q19 -28 30 -198q5 0 5 -14v-83q0 -5 -5 -5l5 -9v-4l-9 -31q25 -58 40 -75v-9h-13v-17q0 -10 -5 -18q2 -15 27 -35v-13q-36 -29 -36 -75q0 -43 9 -128q-9 -22 -9 -31q5 -8 5 -13l9 4l4 -8 q-11 0 -13 -18q0 -37 -5 -141q-15 0 -39 -66q-13 0 -31 -27q-14 0 -53 -22q-111 -22 -115 -22v-4q-32 3 -44 13h-35q-66 10 -123 75q0 12 -36 53q-13 32 -17 97q4 7 4 22q-9 0 -9 9v35q0 12 9 26q-7 0 -17 344l4 9l-4 22q-9 257 -9 278zM136 650q4 -8 4 -13q9 4 14 4v9h-18z M228 1161v9h9v-9h-9zM242 729q4 -150 4 -189q10 0 13 -31q-8 -1 -8 -9v-13h13v-4q0 -9 -13 -9v-4l13 -18v-5l-13 -17v-49l13 -17v-31q0 -9 -13 -9l4 -31q-4 -63 -4 -70q8 -15 8 -22l-4 -44q9 -2 9 -9v-27l-5 -8q14 0 14 -9v-13l-5 -9q9 -9 62 -13v4l-13 18v13q0 9 17 9v35 q0 9 18 9v9q-22 0 -22 39q-9 0 -9 9v88q0 23 -4 40q4 23 4 44v31q0 41 -4 75q4 24 4 35l-9 132l5 9q-5 22 -9 92l4 22q-4 16 -4 18l4 31q-4 24 -4 35h4l-4 9l4 26q-9 33 -31 44q-39 -7 -39 -35q9 -1 9 -9v-4l-9 -13v-14l9 5h4q0 -9 -13 -9v-123q13 0 13 -9l-9 -5q0 5 -4 5 v-5zM246 1267h13q0 -9 -8 -9zM255 897v4q0 9 35 18l5 -9q-8 0 -27 -26q-6 0 -13 13zM281 1170v4h9v-4h-9zM286 1258l9 5l4 -9l-9 -5zM308 16q35 -1 35 -18q14 9 26 9v18q-17 0 -22 22h-4q0 -14 -9 -14h-26v-17zM392 1082v9h8q0 -9 -8 -9zM458 121q8 0 8 9t-8 9v-18zM559 531 v5q1 8 9 8h4q9 -1 9 -8l-9 -5h-13zM568 240l9 5l4 -9l-9 -4zM568 558v8h13q9 -1 9 -8l-13 -9q-9 0 -9 9zM590 527v22h4q9 -2 9 -9q-4 -9 -4 -13h-9z" />
<glyph unicode="1" horiz-adv-x="1096" d="M52 1141v98q2 11 12 11h46q309 0 456 214h196l12 -6q-6 -200 -6 -289v-802q0 -111 219 -133q64 0 64 -17v-75q0 -12 -12 -12h-970q-11 0 -11 12v75q0 13 225 40q69 37 69 98v774h-288q-12 0 -12 12z" />
<glyph unicode="2" horiz-adv-x="1061" d="M-72 1472q6 3 9 3q94 0 816 66q135 6 145 6q40 -247 40 -556v-220q0 -84 51 -445q0 -60 3 -81q-7 -167 -15 -167q-451 -48 -707 -48q-206 3 -206 15v3q0 233 -136 1424zM170 1043q40 -61 69 -61h12q21 0 76 82q17 15 30 15h21q40 -60 40 -145q0 -133 -145 -408 q-22 -49 -31 -85q24 -111 55 -130q19 -6 24 -6q9 0 82 18q229 -18 247 -18q93 6 106 30v24q-9 61 -75 61q-3 0 -25 3l-187 -9l-75 6q0 16 81 299q39 133 39 260q0 113 -39 206q-53 51 -103 51h-12q-88 0 -166 -124q-24 -50 -24 -69z" />
<glyph unicode="3" horiz-adv-x="1014" d="M29 496v8q0 203 136 400q60 60 208 92q0 5 28 16q-58 92 -196 340q-159 229 -168 312q26 12 64 12h56q88 0 164 4q38 -4 72 -4q265 24 308 24h16q56 0 56 -24q24 -238 52 -312q0 -8 -304 -24v-4q61 -118 260 -456q-231 -99 -276 -148q-140 -116 -140 -212 q20 -204 136 -204q2 0 16 -4q112 11 112 92q27 204 40 204h4q61 0 164 -8q42 4 72 12q32 -59 32 -144v-32q0 -141 -44 -232q-16 -67 -168 -172q-75 -32 -172 -32q-372 0 -472 244q-56 62 -56 252z" />
<glyph unicode="4" horiz-adv-x="927" d="M24 775q367 683 396 724l186 32q7 0 8 -6l104 -610l145 25q7 0 8 -5l24 -139q1 -6 -5 -8l-145 -24l44 -257q1 -6 -6 -8l-222 -38q-7 -1 -8 6l-44 256l-455 -78q-7 -2 -8 5zM132 814l351 61l-76 441q-18 -25 -275 -502z" />
<glyph unicode="5" horiz-adv-x="722" d="M20 628v21q22 107 61 107q112 -163 276 -163q107 0 148 117v66q0 165 -383 322q-25 15 -25 56q10 85 163 377l35 21q121 -11 205 -11h10q31 0 66 26q8 0 20 -20q-51 -169 -137 -169q-92 0 -189 10q-23 0 -61 -117q0 -15 173 -92q162 -73 245 -178q41 -65 41 -148 q0 -209 -276 -322q-69 -20 -127 -20h-5q-170 0 -240 117z" />
<glyph unicode="6" horiz-adv-x="657" d="M36 971q-27 477 144 632q52 23 90 31q179 10 247 -299q7 -24 9 -66l3 -46q0 -7 -15 -16h-5q-16 -1 -48 125q-94 189 -169 185l-20 -1q-102 -6 -75 -495l2 -31q59 75 123 78q181 11 262 -282q14 -79 18 -137l2 -36q22 -395 -147 -576q-57 -34 -96 -36q-270 -15 -314 771z M214 709l4 -61q30 -536 132 -530l15 1q102 6 74 506q-19 336 -131 330q-107 -6 -94 -246z" />
<glyph unicode="7" horiz-adv-x="1152" d="M19 1463q1 8 7 8l982 68q7 0 8 -6l102 -1464q0 -7 -7 -7l-982 -68q-7 -1 -8 6zM192 1214l25 -357l52 3q19 153 71 157q17 12 48 14l432 30v-4l-425 -883l108 8q24 55 460 998l-6 88z" />
<glyph unicode="8" horiz-adv-x="973" d="M40 1197q-43 234 220 389q73 32 129 42l6 1q214 39 325 -114q25 -36 36 -93q36 -198 -195 -426q326 -85 365 -293l1 -6q49 -266 -268 -434q-57 -24 -106 -32l-36 -7q-296 -55 -405 211l-7 42q-38 207 205 435q-232 78 -270 285zM171 1296l3 -18q33 -178 309 -260 q170 154 137 336q-63 218 -257 182q-141 -26 -185 -146q-16 -43 -7 -94zM252 554l2 -12q36 -195 222 -226q63 -1 86 3q193 36 232 223q-4 21 -4 55q-38 207 -418 283q-151 -159 -120 -326z" />
<glyph unicode="9" horiz-adv-x="940" d="M22 481l34 205l5 7q92 -76 215 -96q190 -31 289 151q22 34 50 154l-8 1q-89 -103 -256 -75q-224 37 -275 297q-5 70 4 125q46 277 325 344q72 12 138 1l43 -7q226 -37 298 -305q31 -136 4 -296l-4 -24q-79 -481 -426 -566q-90 -22 -195 -4q-136 22 -241 88zM339 1219 q-23 -135 81 -196q21 -7 35 -9l19 -4q96 -15 153 89q11 16 16 50l2 12q24 146 -77 219q-51 12 -50 16q-98 17 -166 -118q-10 -39 -13 -59z" />
<glyph unicode=":" horiz-adv-x="557" d="M124 482v20q0 117 132 164q14 0 36 4q110 0 160 -132l4 -36q0 -112 -132 -160l-36 -4q-121 0 -164 144zM124 1006v20q0 117 132 164q14 0 36 4q110 0 160 -132l4 -36q0 -112 -132 -160l-36 -4q-121 0 -164 144z" />
<glyph unicode=";" horiz-adv-x="557" d="M276 469q108 101 108 180v24q0 29 -40 88q0 30 92 92h20q44 -38 44 -108v-8q0 -140 -160 -276q-15 -12 -28 -12q-26 0 -36 20zM340 1041v16q0 67 88 80q80 -13 80 -80v-12q0 -69 -88 -80q-80 12 -80 76z" />
<glyph unicode="&#x3c;" horiz-adv-x="1155" d="M30 7v1510q1 7 7 7h1055q7 -1 7 -7v-1510q0 -7 -7 -7h-1055q-7 0 -7 7zM48 774q9 -2 735 -365v135q-23 17 -465 227q-107 52 -107 57q65 38 572 280v139q-726 -364 -735 -366v-107z" />
<glyph unicode="=" horiz-adv-x="1126" d="M123 516v124q1 8 8 8h876q8 -1 8 -8v-124q0 -8 -8 -8h-876q-8 0 -8 8zM123 860v124q1 8 8 8h876q8 -1 8 -8v-124q0 -8 -8 -8h-876q-8 0 -8 8z" />
<glyph unicode="&#x3e;" horiz-adv-x="1014" d="M77 1180q1 8 8 9q845 -353 849 -361l8 -107q0 -11 -656 -389q-1 -4 -143 -85l-4 7l-10 144q121 78 622 358l-1 8q-574 228 -663 273z" />
<glyph unicode="?" horiz-adv-x="921" d="M88 431l8 36q21 98 156 117l39 -8q95 -21 118 -136q5 -16 1 -33l-4 -20q-26 -121 -188 -114q-112 24 -130 158zM114 1310l4 19q33 152 331 150q39 -4 75 -12l4 -1q275 -59 330 -292q8 -75 -4 -134q-60 -278 -404 -298l-89 7q-19 -71 -26 -105l-9 -2l-63 14q-7 1 -6 9 l66 305q1 5 103 2q166 32 200 187l6 27q32 148 -115 209l-23 5q-52 11 -108 -6q13 -90 0 -151q-18 -83 -106 -92q-28 -2 -48 2l-20 5q-121 43 -98 152z" />
<glyph unicode="@" horiz-adv-x="1594" d="M111 503q-24 327 241 494q77 30 142 34q169 12 228 -96q83 114 195 122q152 11 215 -137q17 -76 18 -83q14 -194 -157 -388q-118 -108 -240 -117q-91 -7 -129 59q-1 12 -9 11q-14 -69 -23 -70l-199 -14q-8 0 -9 12q146 486 142 539l-2 32q-15 51 -52 48h-12 q-187 -14 -246 -263q-14 -89 -7 -177l1 -20q24 -330 382 -401q81 -11 156 -5q335 24 520 362q69 159 56 333q-29 410 -378 530q-106 28 -226 20l-16 -1q-247 -18 -418 -166l-12 -1q-27 42 -27 50v4q209 179 467 198q348 24 592 -203q164 -168 181 -408q25 -354 -268 -621 q-214 -167 -472 -186q-406 -29 -574 288q-52 102 -60 221zM649 493q18 -91 90 -86h4q119 9 179 310l3 124q-8 116 -80 111q-100 -7 -130 -202q-68 -233 -66 -257z" />
<glyph unicode="A" d="M-178 93l4 56q0 5 101 16q92 38 140 159q409 810 409 816q5 115 10 188l8 3q73 -1 92 -3q31 -76 343 -1016q30 -90 99 -123q87 -20 86 -35q3 -15 1 -32l-1 -16q0 -8 -8 -7q-548 32 -635 38l-2 29l2 32q1 5 114 19h8q38 0 50 28q1 15 -92 280l-103 7q-8 1 -8 9l5 68 q2 7 9 7l56 -4q8 -1 9 11q-64 174 -62 197l6 84h-4l-176 -372l148 -11q8 0 8 -36q0 -18 -2 -44l-8 -4l-184 14q-50 -76 -101 -225l-2 -36q-3 -36 167 -73l-4 -60q-1 -8 -9 -7l-467 34q-8 1 -7 9z" />
<glyph unicode="B" horiz-adv-x="677" d="M42 13v5q86 82 86 107v1185q0 25 -86 108v4q0 7 14 14h179q273 0 323 -162q36 -68 36 -184v-27q0 -236 -134 -323v-4q71 -30 112 -135q27 -78 27 -198q0 -403 -265 -403h-278q-7 0 -14 13zM280 103h76q81 0 81 300v14q0 260 -117 260h-40v-574zM280 780h49q108 0 108 306 q0 246 -112 246h-45v-552z" />
<glyph unicode="C" horiz-adv-x="905" d="M0 -71v1416q1 7 7 7h898q6 -1 6 -7v-1416q0 -7 -6 -7h-898q-7 0 -7 7zM66 82q52 10 52 29q0 17 -46 30h-6v-59zM66 1202h3q3 0 10 3q47 -5 49 -10q13 5 13 10v10q0 5 -13 13h-62v-26zM186 666q7 -26 7 -62v-101q0 -76 55 -202q45 -66 115 -92q93 -65 209 -65h26q3 0 3 -3 l7 3q3 0 3 -3q88 14 104 29v13q-6 12 -19 17l-20 -4h-3q-5 0 -13 13v7q0 3 52 32q7 11 7 20v3q0 5 -30 13q-13 18 -13 36v10l-39 -3h-3q-12 6 -17 19l4 17q-5 13 -10 13q-13 0 -69 -10v3l-6 -3h-49q-49 0 -49 49q-6 0 -13 101h3l-3 7v68q0 5 16 43q-6 10 -6 19q3 66 45 157 q41 62 147 62l69 -16l3 6v10l-7 10v6q12 20 17 20q0 15 -52 62v3q0 5 68 26l3 7v13q0 14 -49 20l-26 32q-56 30 -111 30h-52q-118 0 -228 -160q-76 -172 -76 -275zM245 72h39v10q-14 0 -19 3q-5 -3 -20 -3v-10zM399 735v10q1 6 6 6h10v-13q0 -4 -10 -10q-6 0 -6 7zM425 804 v6q0 5 10 10l3 -7v-9q0 -7 -7 -7q-6 0 -6 7zM702 555q4 -6 4 -9q21 0 42 3q34 -7 42 -10q17 4 17 10v3q-17 18 -62 36q-43 -22 -43 -33zM777 85q15 -13 17 -13h58q13 0 30 56l-3 6v69q0 6 -7 6h-3q-18 0 -52 -55q-40 -37 -40 -69zM777 1159l7 -3h16q5 0 10 10v3q0 5 -10 10 h-3q-20 0 -20 -20zM826 118q1 6 7 6h6v-6q0 -7 -6 -7q-7 0 -7 7zM839 1182q1 -6 7 -6h3q27 0 33 32q-3 6 -3 13h-4q-16 -7 -36 -32v-7z" />
<glyph unicode="D" horiz-adv-x="1083" d="M93 496q-3 28 -3 54q0 233 232 360q65 28 130 33l34 3l28 2q132 0 226 -104l5 1l-61 565l-152 -12q-10 -1 -11 7l-6 57q1 9 9 10l329 27q10 0 11 -8l131 -1227l142 12q10 -1 11 -8l7 -61q0 -9 -9 -9l-319 -27q-10 -1 -11 8l-11 100l-5 -1q-76 -138 -226 -150l-59 -5 q-18 -1 -35 -1q-189 0 -322 182q-55 99 -65 192z" />
<glyph unicode="E" horiz-adv-x="953" d="M26 748l98 -82l51 -493l744 78l-27 262l-466 -49q-8 0 -9 8l-19 183q1 8 7 8l311 33l8 -3q3 12 7 12l-5 8l-25 243q-16 -2 -17 2l-7 -5l-299 -31q-8 -1 -8 7l-20 183q1 8 7 9q4 0 5 -4l7 5l438 46q4 0 4 -4q8 5 12 6l-27 258l-744 -78l52 -501z" />
<glyph unicode="F" horiz-adv-x="716" d="M56 381v12q0 8 92 24q20 12 20 124v416q0 132 -28 132q-84 12 -84 24v24l4 8q145 -4 220 -4h244q85 0 144 8l4 -8q-16 -102 -16 -184v-4q-2 -12 -32 -12h-8q-10 13 -32 108q-21 32 -72 32h-180q-16 -6 -16 -28v-276h176q68 0 80 68q0 27 16 32q36 -3 36 -12 q-4 -56 -4 -96v-8q0 -4 -4 -4l4 -8v-132q-2 -12 -32 -12h-4q-9 1 -36 88q-20 12 -28 12q-152 4 -204 4v-220q0 -72 36 -72q92 -14 92 -24v-24q0 -6 -12 -12h-20q-4 0 -4 4q-4 0 -4 -4l-20 4h-212q-34 0 -108 -4q-8 13 -8 24z" />
<glyph unicode="G" horiz-adv-x="1379" d="M20 284v11q0 171 273 208q68 5 71 5v11q-218 76 -218 219v27q0 123 235 181v5q-2 8 -104 49q-197 112 -197 301q0 288 448 361q60 5 104 5q79 0 273 -38h410q11 -2 11 -11v-104q0 -11 -11 -11h-235q88 -105 88 -224q0 -214 -290 -317q-102 -33 -213 -33h-197 q-49 -35 -49 -82q0 -82 230 -82q475 0 546 -98q131 -93 131 -246q0 -350 -568 -416q-121 -5 -131 -5q-474 0 -585 191q-22 51 -22 93zM386 284q44 -186 279 -186h16q301 0 301 235q0 93 -88 126q-25 22 -202 22h-218q-88 -76 -88 -169v-28zM463 1263q0 -212 147 -246h11 q170 0 170 262v22q0 213 -115 262q-12 6 -49 11q-164 0 -164 -229v-82z" />
<glyph unicode="H" horiz-adv-x="921" d="M42 77l4 44q0 21 -4 44q4 72 4 141v13q0 65 -4 180l4 9q0 5 -4 13q0 26 4 93q0 23 -4 123q4 70 4 83q0 21 -4 44q4 72 4 141q0 86 -4 255q0 58 44 58h114q15 0 22 -5l27 5h39q39 0 88 4q49 0 49 -22q9 -80 9 -97q-9 -14 -9 -22q0 -25 4 -110q0 -22 -4 -66q4 -55 4 -136 v-9l-4 -22h26q9 0 9 -13h4q7 0 14 13v53l4 26q-3 12 -9 53q5 69 5 101q0 31 -5 115l9 57q-4 24 -4 35q4 40 17 40h123q21 0 44 -5q17 5 110 9q18 -7 18 -13v-18q-16 -17 -26 -53h8q21 0 27 44q22 0 22 22l9 5h26l22 -40v-13q0 -9 -18 -9q5 -38 5 -44q-9 -28 -9 -39v-18 q0 -12 9 -26q-5 -103 -13 -172q8 -1 8 -9v-17q0 -38 -4 -119q-5 0 -18 -53q22 0 22 -18q0 -34 -4 -123q-9 -9 -35 -9v-4q39 0 39 -18q0 -31 -4 -118q4 -38 4 -58q-8 -1 -8 -8q8 -2 8 -9q0 -34 -8 -88q13 -27 13 -31q0 -11 -5 -35q5 -24 5 -35q-7 -36 -13 -36q5 -44 13 -44 l-9 -149q4 -23 4 -53q-18 -18 -35 -18h-4q-31 0 -49 9q-33 -9 -35 -9q-81 5 -145 5h-13q-4 0 -35 -9q-66 3 -66 18q0 23 -5 74q5 56 9 62q-4 33 -9 123q6 46 9 53l-9 246q5 0 5 5q-30 0 -53 4q9 -95 9 -119q-11 -8 -14 -8l14 -154q-9 -15 -9 -27v-70l-5 -9q9 0 9 -13 q0 -46 -4 -97q4 -34 4 -70q0 -8 -163 -14q-21 0 -70 9q-53 -9 -128 -9q-20 9 -22 18v48q0 65 -4 115zM693 1186q9 -11 9 -18h4l5 22q-8 -4 -18 -4zM702 1093q9 0 9 9l-5 22h-4v-31z" />
<glyph unicode="I" horiz-adv-x="566" d="M24 891q-1 7 -1 14q0 41 42 61q115 59 148 64q20 3 37 3q95 0 111 -97l1 -4q2 -13 3 -41q0 -99 -29 -380q-7 -72 -7 -113q0 -22 2 -34l3 -19q9 -55 56 -54q8 0 17 1l28 4q48 12 82 17q1 -8 1 -15q0 -37 -34 -55q-113 -59 -168 -67q-14 -2 -28 -2q-78 0 -110 81q0 3 -8 23 q0 78 34 500q2 16 2 35t-2 42q-10 62 -59 62q-7 0 -15 -1l-4 -1q-51 -8 -97 -31zM199 1344q8 110 86 123q110 -3 122 -82l4 -24q-8 -106 -78 -117l-20 -4q-98 6 -113 96z" />
<glyph unicode="J" horiz-adv-x="859" d="M27 106q-1 17 -1 32q0 148 129 172q13 1 25 1q137 0 160 -116l1 -4q2 -12 2 -24q0 -76 -87 -171l3 -16q24 -23 61 -23q13 0 28 3q140 27 163 191q-1 72 -11 120l-128 664q-12 65 -75 71q-114 3 -116 10l-10 51q0 8 7 9l605 117q8 0 9 -6l10 -51q1 -7 -120 -56 q-21 -21 -21 -50q0 -7 1 -15l118 -609q11 -60 11 -114q0 -219 -189 -336q-100 -51 -183 -67q-52 -8 -98 -8q-177 0 -259 126q-24 43 -31 80z" />
<glyph unicode="K" horiz-adv-x="1275" d="M15 1374q1 8 7 8l1101 90q8 0 8 -7l116 -1410q1 -7 -7 -8l-1101 -90q-7 -1 -8 7zM310 1113l79 -957l237 19l-23 279l4 1q7 -6 181 -266l276 22l-1 4q-293 431 -303 457l225 493v4l-279 -23l-128 -291l-8 -1l-22 279z" />
<glyph unicode="L" horiz-adv-x="989" d="M38 1546q1 10 9 11l315 7q10 -1 10 -9l30 -1181l531 13q10 -1 10 -9l6 -256q1 -10 -9 -10l-856 -22q-10 0 -10 10z" />
<glyph unicode="M" horiz-adv-x="1438" d="M29 1057v4q0 52 36 64q118 44 168 44h20q83 0 108 -80l8 -52h4q166 144 308 144q126 0 172 -132v-20q176 152 320 152q121 0 160 -116q5 -41 8 -48q0 -64 -108 -476q-4 -28 -4 -48q0 -72 84 -72q12 0 92 12v-4q0 -55 -44 -64q-109 -40 -172 -40q-97 0 -128 84l-4 36 q11 87 116 480v48q-10 100 -72 100q-6 4 -24 4q-125 0 -228 -128q-136 -581 -148 -612h-144q-8 0 -8 8q140 583 140 632q0 87 -96 100h-12q-123 0 -232 -136q-104 -461 -140 -604h-148q-8 0 -8 8q144 604 144 652q0 76 -60 76h-16q-27 0 -92 -16z" />
<glyph unicode="N" horiz-adv-x="1165" d="M30 1292q1 38 1 79t-1 85q6 16 12 17l56 1h1q46 0 129 -94q0 -15 61 -42q114 -101 114 -106l2 -76q1 -44 -19 -44l-12 -1q29 -31 52 -30q10 32 32 40l60 2q41 -1 134 -102l110 -85l-11 480q-1 56 63 57l248 5h2q54 0 56 -67v-24v-22q0 -75 -12 -142q12 -4 12 -24l2 -116 v-6q0 -50 -34 -50q0 -18 -84 -30q0 -5 -23 -33l64 2q34 -12 76 -19l5 -8l1 -56l8 -27q0 -176 -4 -189q13 -26 13 -43l1 -52q1 -14 -11 -29l4 -203q9 -29 9 -32l1 -36q-7 -68 -7 -76l1 -20q0 -6 -12 -13l-64 -1q-22 -1 -175 136q-5 0 -53 43q-23 0 -61 55h-1q-31 0 -64 63 q-38 22 -98 89q-34 0 -147 117q-5 0 -73 59v-8q9 -43 9 -56l3 -132q1 -28 -7 -28l17 -72l2 -68q0 -3 -8 -32l2 -96q-15 -30 -70 -85l-60 -2q-10 10 -68 10h-20h-8q-25 20 -36 20q-4 -13 -24 -13l-56 -1q-16 -1 -17 55l-9 428q-1 21 11 37q-12 3 -13 23v4v43q0 65 4 133 q-5 86 -6 128q-1 22 3 56q-6 58 -13 224zM158 1075h24v4q-4 0 -12 4q-7 -4 -12 -4v-4zM188 627l4 1v12l-4 -1v-12zM905 775l4 -8l1 -56h4q9 8 24 8l-23 148q-8 -2 -8 -8l2 -80q0 -4 -4 -4z" />
<glyph unicode="O" horiz-adv-x="1171" d="M27 213l114 1292q1 7 7 7l1005 -89q7 -1 6 -7l-113 -1293q-1 -6 -8 -6l-1004 89q-7 0 -7 7zM108 778q0 -399 299 -517l116 -24q4 0 4 5l25 -5h9q355 0 478 426q24 147 24 230q0 373 -270 502q-84 34 -174 34h-24q-350 0 -468 -445q-19 -112 -19 -206zM247 826 q0 410 227 521q60 20 102 20h19q239 0 319 -369q9 -98 9 -177q0 -376 -217 -497q-63 -20 -121 -24v4q-5 0 -5 -4q-202 0 -299 277q-34 126 -34 249z" />
<glyph unicode="P" horiz-adv-x="1194" d="M25 1218q0 8 7 9l664 76q59 7 110 7q218 0 310 -123q32 -67 36 -105l5 -44q2 -21 2 -40q0 -202 -251 -318q-112 -42 -227 -55l-111 -13l39 -341q8 -71 121 -71q57 -3 58 -9l6 -56q1 -8 -7 -9l-620 -71q-8 -1 -9 7l-6 55q-1 8 113 33q48 27 48 68q0 5 -1 10l-97 843 q-7 64 -65 77q-118 11 -119 18zM502 1204l59 -512h4q245 29 272 189q2 37 1.5 62t-1.5 38q-24 212 -171 230q-19 2 -44 2q-45 0 -108 -7z" />
<glyph unicode="Q" horiz-adv-x="660" d="M20 205q9 32 9 36v573q0 4 -9 36q0 4 9 35v35q0 189 181 247q70 14 123 14q184 0 256 -159q18 -51 27 -168q-5 -34 -5 -75v-31q0 -4 -4 -4l4 -9q0 -15 -4 -22l4 -27v-8q0 -5 -4 -5l4 -9v-4l-4 -27q4 -7 4 -17q-4 -13 -9 -13q9 -17 9 -36v-79q0 -31 -9 -31q9 -14 9 -22 q0 -5 -4 -13l4 -27v-4q0 -5 -4 -5l4 -8v-9l-4 -27q4 -7 4 -22q0 -4 -4 -4l4 -9v-35q0 -42 5 -75q0 -127 -58 -225q-6 0 -35 -36q-18 -6 -18 -13q6 0 67 -84v-13q-94 -88 -124 -88q-24 79 -57 79q0 21 -14 31q5 0 5 4l-22 22h-40q-10 0 -18 5q-4 0 -4 -5l-22 5h-31l-97 31 q-119 85 -119 212v48q0 4 -9 35zM91 245q1 -9 8 -9v9h-8zM117 -205h9v-4h-9v4zM152 -156q2 8 9 8l5 -8q0 -9 -9 -9zM183 -24v-13h5v13h-5zM263 117q0 -70 66 -70q37 0 48 83l-4 45v158q0 10 4 18q-4 8 -4 18v84q0 4 4 4l-4 9q0 18 4 35q-4 16 -4 18q0 5 4 44q-4 59 -4 88 l4 9q0 4 -4 4l4 53v36q0 45 -4 70q4 25 4 71v53q-8 66 -57 66q-40 -10 -40 -22v-203q0 -90 -4 -247l-5 -9l5 -9q-5 -48 -5 -84v-31l-8 -13q8 0 8 -13l-4 -9q4 -8 4 -18l-4 -8q9 -15 9 -27q0 -35 -9 -35l4 -22v-22l-4 -9l9 -4l-5 -45q0 -11 5 -35q-13 -27 -13 -31zM285 -99 v-9h4v9h-4zM346 -59v-5h9v5h-9zM360 -50v-9h13v9h-13zM444 629h17v13q-11 -9 -17 -9v-4zM448 166h9v4h-9v-4zM448 656l9 -5q4 16 4 18q-6 0 -13 -13zM470 144q0 -7 13 -14h5v5q0 9 -9 9h-9zM470 -156v-9h9v9h-9zM483 289q0 -44 40 -44v9q-35 0 -35 40h-5v-5zM501 117 q10 -26 18 -26q0 13 13 13q22 0 22 -53v-4h9l17 66h-4l-13 -9q-35 0 -58 18q0 -5 -4 -5zM505 558q5 0 5 -4l9 4q44 -6 57 -17q0 11 9 22v4q-13 0 -31 9q-5 -13 -27 -13h-4l-13 9q0 -5 -5 -14zM514 20l22 -4h5v17l-27 -4v-9zM514 686h9v5h-9v-5zM527 475q5 0 14 -5q7 0 26 18 q2 -9 9 -9h4q0 11 -17 40h-9q0 -40 -27 -40v-4zM549 594h9q22 33 22 39q-8 0 -8 18h-23l5 -31h-5q5 -8 5 -13q-5 -9 -5 -13zM554 -218l13 9q9 -2 9 -9v-5q0 -8 -9 -8q-6 0 -13 13zM558 713q14 0 14 -13h8v17h-22v-4zM572 -130l8 4h5q9 -1 9 -8q0 -9 -9 -9q-7 0 -13 13z M576 -196q1 9 9 9q9 -2 9 -9q0 -9 -9 -9t-9 9z" />
<glyph unicode="R" horiz-adv-x="1272" d="M20 8v1584q1 8 8 8h492v76q1 8 8 8h692q8 -1 8 -8v-1584q0 -8 -8 -8h-700v-76q0 -8 -8 -8h-484q-8 0 -8 8zM148 140h268v448q1 8 8 8h48l48 -4v64l4 8q76 -57 124 -152q169 -285 176 -288h304q-238 382 -316 472q-33 29 -84 60v4q260 89 260 328v4q0 224 -216 292 q-87 24 -164 24v4q-4 0 -4 -4l-28 4h-56v-76q0 -8 -8 -8h-364v-1188zM416 804v316q1 8 8 8h96v76q1 8 8 8q180 0 180 -156q0 -146 -172 -176h-16v-76q0 -8 -8 -8h-88q-8 0 -8 8z" />
<glyph unicode="S" horiz-adv-x="1194" d="M14 266l10 251q53 61 85 61h2l115 -4q-90 72 -98 101q-94 85 -92 139l17 413q3 88 108 149q134 112 197 112h3l454 -18q81 -3 182 -105q23 -14 48 -62q11 0 32 -20q63 -52 61 -105l-10 -259q-2 -39 -82 -76q-37 -1 -62 -1h-22l-56 7q60 -68 157 -155q53 -65 52 -95 l-1 -28q-5 -115 -5 -242q-13 -157 -39 -156l-14 1l-1 -24q-91 -92 -130 -111q-1 -34 -119 -74q-28 1 -37 -8q-163 2 -209 4v5q-9 -4 -14 -4q-43 1 -264 15q-45 2 -220 199q-49 49 -48 90zM401 534q49 -65 49 -72q0 -23 68 -25v-5l10 4l74 -3q43 30 44 54q-16 38 -96 41z M470 978q-2 -67 67 -82l199 -8q-36 29 -35 57q-3 39 -25 75q-69 8 -101 9h-9q-76 0 -96 -51z" />
<glyph unicode="T" horiz-adv-x="911" d="M5 1524l17 -300l8 5q5 0 5 -5l31 7l179 10q9 -1 10 -9l66 -1182l-4 -9l10 -4l177 12l207 14l-5 9l-66 1182q1 9 8 10l224 12l-17 296z" />
<glyph unicode="U" horiz-adv-x="1067" d="M-41 1219l10 54q2 9 10 7l446 -54l11 -21l-112 -638q-4 -22 -3 -42q0 -91 79 -133l44 -8q16 -3 31 -2q86 0 167 79l85 491q3 15 3 29q0 90 -121 111l-9 2q-6 1 -11 16l10 53q2 9 10 8l451 -56l10 -20l-123 -706q-3 -16 -3 -29q0 -90 112 -110l14 -2q8 -3 7 -11l-9 -53 q-1 -7 -16 -11l-437 53l-11 20l20 112l-5 1q-127 -100 -280 -100q-44 0 -90 8q-184 32 -232 201q-7 33 -7 78q0 65 15 156l66 375q1 8 1 16q0 76 -130 117z" />
<glyph unicode="V" horiz-adv-x="993" d="M58 1528l15 61l5 6q225 -60 327 -86l81 -20q17 -18 16 -88q0 -122 -51 -402l3 -1q199 293 277 420h5q23 0 81 -15q43 -10 97 -28q67 -13 107 -13h5q0 -7 5 -8q16 4 34.5 4t37.5 -4l3 -1q7 -3 6 -9l-4 -13q-20 -83 -176 -405q-58 -59 -171 -253q-275 -345 -475 -564 q-66 -56 -91 -56q-2 0 -5 1q-24 92 -39 362q-36 216 -90 475q-10 120 -10 239q0 131 12 260v10q0 28 -5 128z" />
<glyph unicode="W" horiz-adv-x="1028" d="M13 -35l26 1628q2 10 10 10l943 -16q9 -1 9 -10l-27 -1628q0 -10 -9 -10l-943 16q-9 0 -9 10zM91 1476q8 -97 175 -1399l130 -3l107 627h10q0 -27 62 -630l135 -2l241 1393l-203 3l-89 -709l-10 1v4q1 26 -75 707l-111 2q-13 0 -33 -241q-10 -33 -56 -463h-10 q0 18 -70 707z" />
<glyph unicode="X" horiz-adv-x="781" d="M-78 24v44q0 9 56 32q40 -19 40 -28v-16q-26 -40 -68 -40h-20q-8 0 -8 8zM-78 1404v32q1 8 8 8h96q16 -6 16 -28q-16 -16 -24 -16q-17 0 -40 12q-37 -16 -52 -16zM26 136v4q1 8 8 8h8q8 -1 8 -8v-4q0 -8 -8 -8h-8q-8 0 -8 8zM38 216q132 339 180 492q-180 484 -180 496 q57 64 60 64l56 -16q0 4 28 24h12q18 -9 32 -72h12q4 0 32 8h8q12 0 40 -104h16q69 139 76 140h4q6 0 16 -16q-64 -159 -64 -180q5 -40 16 -40h16q114 284 128 284h8q19 -11 40 -64l20 -4q37 37 60 40q8 -13 8 -24q-16 -63 -16 -76q0 -16 20 -16l56 60h8q6 0 16 -16v-8 q-144 -367 -188 -500q144 -352 144 -432q17 -60 36 -72v-20q0 -8 -12 -8q-19 0 -48 12q-15 -49 -28 -56h-4l-24 4q-29 -12 -36 -12q-28 64 -40 64l-44 -12q-44 92 -96 232l-16 8q-107 -287 -128 -296q-5 0 -40 12q-39 -8 -44 -8q-28 60 -88 60q0 3 -52 52zM162 8q6 20 28 20 h8q44 0 44 -36q-5 -16 -20 -24h-12q-48 4 -48 40zM414 196v8h8v-8h-8zM542 824h4q10 0 16 32q-4 14 -4 16q-11 0 -16 -40v-8zM690 788v4q1 8 8 8h8q8 -1 8 -8v-4q0 -8 -8 -8h-8q-8 0 -8 8zM706 60q1 8 8 8h12q8 -1 8 -8v-16q0 -8 -8 -8h-8q-12 4 -12 24zM758 -36q1 8 8 8h8 q6 0 12 -12v-4q0 -8 -8 -8h-12q-8 0 -8 8v8zM770 788q0 6 16 16h8q8 -1 8 -8v-4q0 -6 -12 -12h-12q-8 0 -8 8zM818 860q1 8 8 8h4q8 -1 8 -8v-8h-12q-8 0 -8 8zM838 36v8q1 8 8 8h4q6 0 12 -12q0 -9 -20 -12zM842 1360v4q0 13 40 20l4 -8v-16q0 -8 -8 -8h-28q-8 0 -8 8z" />
<glyph unicode="Y" horiz-adv-x="1253" d="M45 57q23 189 23 737q-3 407 -13 645q3 0 3 3q101 -23 316 -23h37l16 3v-3q7 3 10 3q607 37 698 37h10q7 -1 7 -7q0 -46 6 -561q4 -19 4 -27h-4l4 -6q13 -612 29 -612q20 -116 20 -282q0 -92 -20 -130q-238 13 -292 13q-14 0 -100 -6q-101 30 -192 30l-14 -4v4 q-6 -4 -10 -4q-299 -23 -345 -23h-17q-108 0 -136 50q-40 78 -40 163zM347 1004q44 -70 163 -153q31 -17 80 -67v-3q-37 -118 -106 -256q-35 -32 -54 -183q-43 -71 -43 -89v-10q0 -26 73 -80h4q52 21 109 203q38 66 140 226q22 44 53 146q133 244 163 332q-37 23 -60 23h-26 q-65 0 -183 -162q-17 -17 -30 -17q-46 28 -146 113q-39 27 -73 27q-26 0 -64 -50z" />
<glyph unicode="Z" horiz-adv-x="748" d="M54 493q0 14 248 894l-228 -6q-8 0 -9 8l-5 256q1 8 7 8l600 14q8 -1 8 -8l6 -248q-22 -86 -241 -825l252 5q8 -1 8 -7l6 -256q1 -8 -7 -8l-632 -15q-8 0 -8 8z" />
<glyph unicode="[" horiz-adv-x="758" d="M111 8v1504q1 8 8 8h540q8 -1 8 -8v-72q0 -8 -8 -8h-280v-1344h280q8 -1 8 -8v-72q0 -8 -8 -8h-540q-8 0 -8 8z" />
<glyph unicode="\" horiz-adv-x="846" d="M65 1593l8 4h136q10 0 68 -168q508 -1437 508 -1448h-144q-18 13 -72 188q-40 100 -504 1424z" />
<glyph unicode="]" horiz-adv-x="973" d="M32 6v1511q1 7 6 7h871q6 -1 6 -7v-1511q0 -6 -6 -6h-871q-6 0 -6 6zM212 155h427v1176h-395l-19 3q-6 -3 -13 -3v-62h218q6 -1 6 -7v-1038q0 -7 -6 -7h-218v-62z" />
<glyph unicode="^" horiz-adv-x="1014" d="M55 1006v8q354 558 368 572h108q16 -15 368 -572v-8h-156q-33 37 -264 420q-256 -408 -268 -420h-156z" />
<glyph unicode="_" horiz-adv-x="1061" d="M-82 8v88q2 8 8 8h1188q8 -1 8 -8v-88q0 -8 -8 -8h-1188q-8 0 -8 8z" />
<glyph unicode="`" horiz-adv-x="582" d="M62 1529q19 76 108 76q104 0 160 -108l168 -232q0 -5 -32 -32q-11 0 -340 192q-64 43 -64 104z" />
<glyph unicode="a" d="M-178 93l4 56q0 5 101 16q92 38 140 159q409 810 409 816q5 115 10 188l8 3q73 -1 92 -3q31 -76 343 -1016q30 -90 99 -123q87 -20 86 -35q3 -15 1 -32l-1 -16q0 -8 -8 -7q-548 32 -635 38l-2 29l2 32q1 5 114 19h8q38 0 50 28q1 15 -92 280l-103 7q-8 1 -8 9l5 68 q2 7 9 7l56 -4q8 -1 9 11q-64 174 -62 197l6 84h-4l-176 -372l148 -11q8 0 8 -36q0 -18 -2 -44l-8 -4l-184 14q-50 -76 -101 -225l-2 -36q-3 -36 167 -73l-4 -60q-1 -8 -9 -7l-467 34q-8 1 -7 9z" />
<glyph unicode="b" horiz-adv-x="677" d="M42 13v5q86 82 86 107v1185q0 25 -86 108v4q0 7 14 14h179q273 0 323 -162q36 -68 36 -184v-27q0 -236 -134 -323v-4q71 -30 112 -135q27 -78 27 -198q0 -403 -265 -403h-278q-7 0 -14 13zM280 103h76q81 0 81 300v14q0 260 -117 260h-40v-574zM280 780h49q108 0 108 306 q0 246 -112 246h-45v-552z" />
<glyph unicode="c" horiz-adv-x="905" d="M0 -71v1416q1 7 7 7h898q6 -1 6 -7v-1416q0 -7 -6 -7h-898q-7 0 -7 7zM66 82q52 10 52 29q0 17 -46 30h-6v-59zM66 1202h3q3 0 10 3q47 -5 49 -10q13 5 13 10v10q0 5 -13 13h-62v-26zM186 666q7 -26 7 -62v-101q0 -76 55 -202q45 -66 115 -92q93 -65 209 -65h26q3 0 3 -3 l7 3q3 0 3 -3q88 14 104 29v13q-6 12 -19 17l-20 -4h-3q-5 0 -13 13v7q0 3 52 32q7 11 7 20v3q0 5 -30 13q-13 18 -13 36v10l-39 -3h-3q-12 6 -17 19l4 17q-5 13 -10 13q-13 0 -69 -10v3l-6 -3h-49q-49 0 -49 49q-6 0 -13 101h3l-3 7v68q0 5 16 43q-6 10 -6 19q3 66 45 157 q41 62 147 62l69 -16l3 6v10l-7 10v6q12 20 17 20q0 15 -52 62v3q0 5 68 26l3 7v13q0 14 -49 20l-26 32q-56 30 -111 30h-52q-118 0 -228 -160q-76 -172 -76 -275zM245 72h39v10q-14 0 -19 3q-5 -3 -20 -3v-10zM399 735v10q1 6 6 6h10v-13q0 -4 -10 -10q-6 0 -6 7zM425 804 v6q0 5 10 10l3 -7v-9q0 -7 -7 -7q-6 0 -6 7zM702 555q4 -6 4 -9q21 0 42 3q34 -7 42 -10q17 4 17 10v3q-17 18 -62 36q-43 -22 -43 -33zM777 85q15 -13 17 -13h58q13 0 30 56l-3 6v69q0 6 -7 6h-3q-18 0 -52 -55q-40 -37 -40 -69zM777 1159l7 -3h16q5 0 10 10v3q0 5 -10 10 h-3q-20 0 -20 -20zM826 118q1 6 7 6h6v-6q0 -7 -6 -7q-7 0 -7 7zM839 1182q1 -6 7 -6h3q27 0 33 32q-3 6 -3 13h-4q-16 -7 -36 -32v-7z" />
<glyph unicode="d" horiz-adv-x="1083" d="M93 496q-3 28 -3 54q0 233 232 360q65 28 130 33l34 3l28 2q132 0 226 -104l5 1l-61 565l-152 -12q-10 -1 -11 7l-6 57q1 9 9 10l329 27q10 0 11 -8l131 -1227l142 12q10 -1 11 -8l7 -61q0 -9 -9 -9l-319 -27q-10 -1 -11 8l-11 100l-5 -1q-76 -138 -226 -150l-59 -5 q-18 -1 -35 -1q-189 0 -322 182q-55 99 -65 192z" />
<glyph unicode="e" horiz-adv-x="1311" d="M-32 1460q1 8 7 8l1203 54q8 -1 8 -8l66 -1478q1 -8 -7 -8l-1203 -54q-8 0 -8 8zM181 728l87 -93l-5 -496l748 -7l3 264l-468 5q-8 0 -8 8l2 184q1 8 8 8l312 -3l8 -4q4 12 8 12l-4 8l2 244q-16 0 -16 4l-8 -4l-300 3q-8 0 -8 8l2 184q1 8 8 8q4 0 4 -4l8 4l440 -4 q4 -1 4 -5q8 4 12 4l2 260l-748 7l-4 -504z" />
<glyph unicode="f" horiz-adv-x="716" d="M56 381v12q0 8 92 24q20 12 20 124v416q0 132 -28 132q-84 12 -84 24v24l4 8q145 -4 220 -4h244q85 0 144 8l4 -8q-16 -102 -16 -184v-4q-2 -12 -32 -12h-8q-10 13 -32 108q-21 32 -72 32h-180q-16 -6 -16 -28v-276h176q68 0 80 68q0 27 16 32q36 -3 36 -12 q-4 -56 -4 -96v-8q0 -4 -4 -4l4 -8v-132q-2 -12 -32 -12h-4q-9 1 -36 88q-20 12 -28 12q-152 4 -204 4v-220q0 -72 36 -72q92 -14 92 -24v-24q0 -6 -12 -12h-20q-4 0 -4 4q-4 0 -4 -4l-20 4h-212q-34 0 -108 -4q-8 13 -8 24z" />
<glyph unicode="g" horiz-adv-x="1379" d="M20 284v11q0 171 273 208q68 5 71 5v11q-218 76 -218 219v27q0 123 235 181v5q-2 8 -104 49q-197 112 -197 301q0 288 448 361q60 5 104 5q79 0 273 -38h410q11 -2 11 -11v-104q0 -11 -11 -11h-235q88 -105 88 -224q0 -214 -290 -317q-102 -33 -213 -33h-197 q-49 -35 -49 -82q0 -82 230 -82q475 0 546 -98q131 -93 131 -246q0 -350 -568 -416q-121 -5 -131 -5q-474 0 -585 191q-22 51 -22 93zM386 284q44 -186 279 -186h16q301 0 301 235q0 93 -88 126q-25 22 -202 22h-218q-88 -76 -88 -169v-28zM463 1263q0 -212 147 -246h11 q170 0 170 262v22q0 213 -115 262q-12 6 -49 11q-164 0 -164 -229v-82z" />
<glyph unicode="h" horiz-adv-x="921" d="M42 77l4 44q0 21 -4 44q4 72 4 141v13q0 65 -4 180l4 9q0 5 -4 13q0 26 4 93q0 23 -4 123q4 70 4 83q0 21 -4 44q4 72 4 141q0 86 -4 255q0 58 44 58h114q15 0 22 -5l27 5h39q39 0 88 4q49 0 49 -22q9 -80 9 -97q-9 -14 -9 -22q0 -25 4 -110q0 -22 -4 -66q4 -55 4 -136 v-9l-4 -22h26q9 0 9 -13h4q7 0 14 13v53l4 26q-3 12 -9 53q5 69 5 101q0 31 -5 115l9 57q-4 24 -4 35q4 40 17 40h123q21 0 44 -5q17 5 110 9q18 -7 18 -13v-18q-16 -17 -26 -53h8q21 0 27 44q22 0 22 22l9 5h26l22 -40v-13q0 -9 -18 -9q5 -38 5 -44q-9 -28 -9 -39v-18 q0 -12 9 -26q-5 -103 -13 -172q8 -1 8 -9v-17q0 -38 -4 -119q-5 0 -18 -53q22 0 22 -18q0 -34 -4 -123q-9 -9 -35 -9v-4q39 0 39 -18q0 -31 -4 -118q4 -38 4 -58q-8 -1 -8 -8q8 -2 8 -9q0 -34 -8 -88q13 -27 13 -31q0 -11 -5 -35q5 -24 5 -35q-7 -36 -13 -36q5 -44 13 -44 l-9 -149q4 -23 4 -53q-18 -18 -35 -18h-4q-31 0 -49 9q-33 -9 -35 -9q-81 5 -145 5h-13q-4 0 -35 -9q-66 3 -66 18q0 23 -5 74q5 56 9 62q-4 33 -9 123q6 46 9 53l-9 246q5 0 5 5q-30 0 -53 4q9 -95 9 -119q-11 -8 -14 -8l14 -154q-9 -15 -9 -27v-70l-5 -9q9 0 9 -13 q0 -46 -4 -97q4 -34 4 -70q0 -8 -163 -14q-21 0 -70 9q-53 -9 -128 -9q-20 9 -22 18v48q0 65 -4 115zM693 1186q9 -11 9 -18h4l5 22q-8 -4 -18 -4zM702 1093q9 0 9 9l-5 22h-4v-31z" />
<glyph unicode="i" horiz-adv-x="566" d="M24 891q-1 7 -1 14q0 41 42 61q115 59 148 64q20 3 37 3q95 0 111 -97l1 -4q2 -13 3 -41q0 -99 -29 -380q-7 -72 -7 -113q0 -22 2 -34l3 -19q9 -55 56 -54q8 0 17 1l28 4q48 12 82 17q1 -8 1 -15q0 -37 -34 -55q-113 -59 -168 -67q-14 -2 -28 -2q-78 0 -110 81q0 3 -8 23 q0 78 34 500q2 16 2 35t-2 42q-10 62 -59 62q-7 0 -15 -1l-4 -1q-51 -8 -97 -31zM199 1344q8 110 86 123q110 -3 122 -82l4 -24q-8 -106 -78 -117l-20 -4q-98 6 -113 96z" />
<glyph unicode="j" horiz-adv-x="859" d="M27 106q-1 17 -1 32q0 148 129 172q13 1 25 1q137 0 160 -116l1 -4q2 -12 2 -24q0 -76 -87 -171l3 -16q24 -23 61 -23q13 0 28 3q140 27 163 191q-1 72 -11 120l-128 664q-12 65 -75 71q-114 3 -116 10l-10 51q0 8 7 9l605 117q8 0 9 -6l10 -51q1 -7 -120 -56 q-21 -21 -21 -50q0 -7 1 -15l118 -609q11 -60 11 -114q0 -219 -189 -336q-100 -51 -183 -67q-52 -8 -98 -8q-177 0 -259 126q-24 43 -31 80z" />
<glyph unicode="k" horiz-adv-x="1275" d="M15 1374q1 8 7 8l1101 90q8 0 8 -7l116 -1410q1 -7 -7 -8l-1101 -90q-7 -1 -8 7zM310 1113l79 -957l237 19l-23 279l4 1q7 -6 181 -266l276 22l-1 4q-293 431 -303 457l225 493v4l-279 -23l-128 -291l-8 -1l-22 279z" />
<glyph unicode="l" horiz-adv-x="989" d="M38 1546q1 10 9 11l315 7q10 -1 10 -9l30 -1181l531 13q10 -1 10 -9l6 -256q1 -10 -9 -10l-856 -22q-10 0 -10 10z" />
<glyph unicode="m" horiz-adv-x="1438" d="M29 1057v4q0 52 36 64q118 44 168 44h20q83 0 108 -80l8 -52h4q166 144 308 144q126 0 172 -132v-20q176 152 320 152q121 0 160 -116q5 -41 8 -48q0 -64 -108 -476q-4 -28 -4 -48q0 -72 84 -72q12 0 92 12v-4q0 -55 -44 -64q-109 -40 -172 -40q-97 0 -128 84l-4 36 q11 87 116 480v48q-10 100 -72 100q-6 4 -24 4q-125 0 -228 -128q-136 -581 -148 -612h-144q-8 0 -8 8q140 583 140 632q0 87 -96 100h-12q-123 0 -232 -136q-104 -461 -140 -604h-148q-8 0 -8 8q144 604 144 652q0 76 -60 76h-16q-27 0 -92 -16z" />
<glyph unicode="n" horiz-adv-x="1165" d="M30 1292q1 38 1 79t-1 85q6 16 12 17l56 1h1q46 0 129 -94q0 -15 61 -42q114 -101 114 -106l2 -76q1 -44 -19 -44l-12 -1q29 -31 52 -30q10 32 32 40l60 2q41 -1 134 -102l110 -85l-11 480q-1 56 63 57l248 5h2q54 0 56 -67v-24v-22q0 -75 -12 -142q12 -4 12 -24l2 -116 v-6q0 -50 -34 -50q0 -18 -84 -30q0 -5 -23 -33l64 2q34 -12 76 -19l5 -8l1 -56l8 -27q0 -176 -4 -189q13 -26 13 -43l1 -52q1 -14 -11 -29l4 -203q9 -29 9 -32l1 -36q-7 -68 -7 -76l1 -20q0 -6 -12 -13l-64 -1q-22 -1 -175 136q-5 0 -53 43q-23 0 -61 55h-1q-31 0 -64 63 q-38 22 -98 89q-34 0 -147 117q-5 0 -73 59v-8q9 -43 9 -56l3 -132q1 -28 -7 -28l17 -72l2 -68q0 -3 -8 -32l2 -96q-15 -30 -70 -85l-60 -2q-10 10 -68 10h-20h-8q-25 20 -36 20q-4 -13 -24 -13l-56 -1q-16 -1 -17 55l-9 428q-1 21 11 37q-12 3 -13 23v4v43q0 65 4 133 q-5 86 -6 128q-1 22 3 56q-6 58 -13 224zM158 1075h24v4q-4 0 -12 4q-7 -4 -12 -4v-4zM188 627l4 1v12l-4 -1v-12zM905 775l4 -8l1 -56h4q9 8 24 8l-23 148q-8 -2 -8 -8l2 -80q0 -4 -4 -4z" />
<glyph unicode="o" horiz-adv-x="1171" d="M27 213l114 1292q1 7 7 7l1005 -89q7 -1 6 -7l-113 -1293q-1 -6 -8 -6l-1004 89q-7 0 -7 7zM108 778q0 -399 299 -517l116 -24q4 0 4 5l25 -5h9q355 0 478 426q24 147 24 230q0 373 -270 502q-84 34 -174 34h-24q-350 0 -468 -445q-19 -112 -19 -206zM247 826 q0 410 227 521q60 20 102 20h19q239 0 319 -369q9 -98 9 -177q0 -376 -217 -497q-63 -20 -121 -24v4q-5 0 -5 -4q-202 0 -299 277q-34 126 -34 249z" />
<glyph unicode="p" horiz-adv-x="1194" d="M25 1218q0 8 7 9l664 76q59 7 110 7q218 0 310 -123q32 -67 36 -105l5 -44q2 -21 2 -40q0 -202 -251 -318q-112 -42 -227 -55l-111 -13l39 -341q8 -71 121 -71q57 -3 58 -9l6 -56q1 -8 -7 -9l-620 -71q-8 -1 -9 7l-6 55q-1 8 113 33q48 27 48 68q0 5 -1 10l-97 843 q-7 64 -65 77q-118 11 -119 18zM502 1204l59 -512h4q245 29 272 189q1 37 1 62t-1 38q-24 212 -171 230q-19 2 -44 2q-45 0 -108 -7z" />
<glyph unicode="q" horiz-adv-x="660" d="M20 205q9 32 9 36v573q0 4 -9 36q0 4 9 35v35q0 189 181 247q70 14 123 14q184 0 256 -159q18 -51 27 -168q-5 -34 -5 -75v-31q0 -4 -4 -4l4 -9q0 -15 -4 -22l4 -27v-8q0 -5 -4 -5l4 -9v-4l-4 -27q4 -7 4 -17q-4 -13 -9 -13q9 -17 9 -36v-79q0 -31 -9 -31q9 -14 9 -22 q0 -5 -4 -13l4 -27v-4q0 -5 -4 -5l4 -8v-9l-4 -27q4 -7 4 -22q0 -4 -4 -4l4 -9v-35q0 -42 5 -75q0 -127 -58 -225q-6 0 -35 -36q-18 -6 -18 -13q6 0 67 -84v-13q-94 -88 -124 -88q-24 79 -57 79q0 21 -14 31q5 0 5 4l-22 22h-40q-10 0 -18 5q-4 0 -4 -5l-22 5h-31l-97 31 q-119 85 -119 212v48q0 4 -9 35zM91 245q1 -9 8 -9v9h-8zM117 -205h9v-4h-9v4zM152 -156q2 8 9 8l5 -8q0 -9 -9 -9zM183 -24v-13h5v13h-5zM263 117q0 -70 66 -70q37 0 48 83l-4 45v158q0 10 4 18q-4 8 -4 18v84q0 4 4 4l-4 9q0 18 4 35q-4 16 -4 18q0 5 4 44q-4 59 -4 88 l4 9q0 4 -4 4l4 53v36q0 45 -4 70q4 25 4 71v53q-8 66 -57 66q-40 -10 -40 -22v-203q0 -90 -4 -247l-5 -9l5 -9q-5 -48 -5 -84v-31l-8 -13q8 0 8 -13l-4 -9q4 -8 4 -18l-4 -8q9 -15 9 -27q0 -35 -9 -35l4 -22v-22l-4 -9l9 -4l-5 -45q0 -11 5 -35q-13 -27 -13 -31zM285 -99 v-9h4v9h-4zM346 -59v-5h9v5h-9zM360 -50v-9h13v9h-13zM444 629h17v13q-11 -9 -17 -9v-4zM448 166h9v4h-9v-4zM448 656l9 -5q4 16 4 18q-6 0 -13 -13zM470 144q0 -7 13 -14h5v5q0 9 -9 9h-9zM470 -156v-9h9v9h-9zM483 289q0 -44 40 -44v9q-35 0 -35 40h-5v-5zM501 117 q10 -26 18 -26q0 13 13 13q22 0 22 -53v-4h9l17 66h-4l-13 -9q-35 0 -58 18q0 -5 -4 -5zM505 558q5 0 5 -4l9 4q44 -6 57 -17q0 11 9 22v4q-13 0 -31 9q-5 -13 -27 -13h-4l-13 9q0 -5 -5 -14zM514 20l22 -4h5v17l-27 -4v-9zM514 686h9v5h-9v-5zM527 475q5 0 14 -5q7 0 26 18 q2 -9 9 -9h4q0 11 -17 40h-9q0 -40 -27 -40v-4zM549 594h9q22 33 22 39q-8 0 -8 18h-23l5 -31h-5q5 -8 5 -13q-5 -9 -5 -13zM554 -218l13 9q9 -2 9 -9v-5q0 -8 -9 -8q-6 0 -13 13zM558 713q14 0 14 -13h8v17h-22v-4zM572 -130l8 4h5q9 -1 9 -8q0 -9 -9 -9q-7 0 -13 13z M576 -196q1 9 9 9q9 -2 9 -9q0 -9 -9 -9t-9 9z" />
<glyph unicode="r" horiz-adv-x="1272" d="M20 8v1584q1 8 8 8h492v76q1 8 8 8h692q8 -1 8 -8v-1584q0 -8 -8 -8h-700v-76q0 -8 -8 -8h-484q-8 0 -8 8zM148 140h268v448q1 8 8 8h48l48 -4v64l4 8q76 -57 124 -152q169 -285 176 -288h304q-238 382 -316 472q-33 29 -84 60v4q260 89 260 328v4q0 224 -216 292 q-87 24 -164 24v4q-4 0 -4 -4l-28 4h-56v-76q0 -8 -8 -8h-364v-1188zM416 804v316q1 8 8 8h96v76q1 8 8 8q180 0 180 -156q0 -146 -172 -176h-16v-76q0 -8 -8 -8h-88q-8 0 -8 8z" />
<glyph unicode="s" horiz-adv-x="1194" d="M14 266l10 251q53 61 85 61h2l115 -4q-90 72 -98 101q-94 85 -92 139l17 413q3 88 108 149q134 112 197 112h3l454 -18q81 -3 182 -105q23 -14 48 -62q11 0 32 -20q63 -52 61 -105l-10 -259q-2 -39 -82 -76q-37 -1 -62 -1h-22l-56 7q60 -68 157 -155q53 -65 52 -95 l-1 -28q-5 -115 -5 -242q-13 -157 -39 -156l-14 1l-1 -24q-91 -92 -130 -111q-1 -34 -119 -74q-28 1 -37 -8q-163 2 -209 4v5q-9 -4 -14 -4q-43 1 -264 15q-45 2 -220 199q-49 49 -48 90zM401 534q49 -65 49 -72q0 -23 68 -25v-5l10 4l74 -3q43 30 44 54q-16 38 -96 41z M470 978q-2 -67 67 -82l199 -8q-36 29 -35 57q-3 39 -25 75q-69 8 -101 9h-9q-76 0 -96 -51z" />
<glyph unicode="t" horiz-adv-x="911" d="M5 1524l17 -300l8 5q5 0 5 -5l31 7l179 10q9 -1 10 -9l66 -1182l-4 -9l10 -4l177 12l207 14l-5 9l-66 1182q1 9 8 10l224 12l-17 296z" />
<glyph unicode="u" horiz-adv-x="1067" d="M-41 1219l10 54q2 9 10 7l446 -54l11 -21l-112 -638q-4 -22 -3 -42q0 -91 79 -133l44 -8q16 -3 31 -2q86 0 167 79l85 491q3 15 3 29q0 90 -121 111l-9 2q-6 1 -11 16l10 53q2 9 10 8l451 -56l10 -20l-123 -706q-3 -16 -3 -29q0 -90 112 -110l14 -2q8 -3 7 -11l-9 -53 q-1 -7 -16 -11l-437 53l-11 20l20 112l-5 1q-127 -100 -280 -100q-44 0 -90 8q-184 32 -232 201q-7 33 -7 78q0 65 15 156l66 375q1 8 1 16q0 76 -130 117z" />
<glyph unicode="v" horiz-adv-x="993" d="M58 1528l15 61l5 6q225 -60 327 -86l81 -20q17 -18 16 -88q0 -122 -51 -402l3 -1q199 293 277 420h5q23 0 81 -15q43 -10 97 -28q67 -13 107 -13h5q0 -7 5 -8q16 4 34.5 4t37.5 -4l3 -1q7 -3 6 -9l-4 -13q-20 -83 -176 -405q-58 -59 -171 -253q-275 -345 -475 -564 q-66 -56 -91 -56q-2 0 -5 1q-24 92 -39 362q-36 216 -90 475q-10 120 -10 239q0 131 12 260v10q0 28 -5 128z" />
<glyph unicode="w" horiz-adv-x="1028" d="M13 -35l26 1628q2 10 10 10l943 -16q9 -1 9 -10l-27 -1628q0 -10 -9 -10l-943 16q-9 0 -9 10zM91 1476q8 -97 175 -1399l130 -3l107 627h10q0 -27 62 -630l135 -2l241 1393l-203 3l-89 -709l-10 1v4q1 26 -75 707l-111 2q-13 0 -33 -241q-10 -33 -56 -463h-10 q0 18 -70 707z" />
<glyph unicode="x" horiz-adv-x="781" d="M-78 24v44q0 9 56 32q40 -19 40 -28v-16q-26 -40 -68 -40h-20q-8 0 -8 8zM-78 1404v32q1 8 8 8h96q16 -6 16 -28q-16 -16 -24 -16q-17 0 -40 12q-37 -16 -52 -16zM26 136v4q1 8 8 8h8q8 -1 8 -8v-4q0 -8 -8 -8h-8q-8 0 -8 8zM38 216q132 339 180 492q-180 484 -180 496 q57 64 60 64l56 -16q0 4 28 24h12q18 -9 32 -72h12q4 0 32 8h8q12 0 40 -104h16q69 139 76 140h4q6 0 16 -16q-64 -159 -64 -180q5 -40 16 -40h16q114 284 128 284h8q19 -11 40 -64l20 -4q37 37 60 40q8 -13 8 -24q-16 -63 -16 -76q0 -16 20 -16l56 60h8q6 0 16 -16v-8 q-144 -367 -188 -500q144 -352 144 -432q17 -60 36 -72v-20q0 -8 -12 -8q-19 0 -48 12q-15 -49 -28 -56h-4l-24 4q-29 -12 -36 -12q-28 64 -40 64l-44 -12q-44 92 -96 232l-16 8q-107 -287 -128 -296q-5 0 -40 12q-39 -8 -44 -8q-28 60 -88 60q0 3 -52 52zM162 8q6 20 28 20 h8q44 0 44 -36q-5 -16 -20 -24h-12q-48 4 -48 40zM414 196v8h8v-8h-8zM542 824h4q10 0 16 32q-4 14 -4 16q-11 0 -16 -40v-8zM690 788v4q1 8 8 8h8q8 -1 8 -8v-4q0 -8 -8 -8h-8q-8 0 -8 8zM706 60q1 8 8 8h12q8 -1 8 -8v-16q0 -8 -8 -8h-8q-12 4 -12 24zM758 -36q1 8 8 8h8 q6 0 12 -12v-4q0 -8 -8 -8h-12q-8 0 -8 8v8zM770 788q0 6 16 16h8q8 -1 8 -8v-4q0 -6 -12 -12h-12q-8 0 -8 8zM818 860q1 8 8 8h4q8 -1 8 -8v-8h-12q-8 0 -8 8zM838 36v8q1 8 8 8h4q6 0 12 -12q0 -9 -20 -12zM842 1360v4q0 13 40 20l4 -8v-16q0 -8 -8 -8h-28q-8 0 -8 8z" />
<glyph unicode="y" horiz-adv-x="1253" d="M45 57q23 189 23 737q-3 407 -13 645q3 0 3 3q101 -23 316 -23h37l16 3v-3q7 3 10 3q607 37 698 37h10q7 -1 7 -7q0 -46 6 -561q4 -19 4 -27h-4l4 -6q13 -612 29 -612q20 -116 20 -282q0 -92 -20 -130q-238 13 -292 13q-14 0 -100 -6q-101 30 -192 30l-14 -4v4 q-6 -4 -10 -4q-299 -23 -345 -23h-17q-108 0 -136 50q-40 78 -40 163zM347 1004q44 -70 163 -153q31 -17 80 -67v-3q-37 -118 -106 -256q-35 -32 -54 -183q-43 -71 -43 -89v-10q0 -26 73 -80h4q52 21 109 203q38 66 140 226q22 44 53 146q133 244 163 332q-37 23 -60 23h-26 q-65 0 -183 -162q-17 -17 -30 -17q-46 28 -146 113q-39 27 -73 27q-26 0 -64 -50z" />
<glyph unicode="z" horiz-adv-x="748" d="M54 493q0 14 248 894l-228 -6q-8 0 -9 8l-5 256q1 8 7 8l600 14q8 -1 8 -8l6 -248q-22 -86 -241 -825l252 5q8 -1 8 -7l6 -256q1 -8 -7 -8l-632 -15q-8 0 -8 8z" />
<glyph unicode="{" horiz-adv-x="807" d="M0 720v116q0 8 128 20q124 36 124 156v40q-8 143 -8 160v52q0 183 168 252q101 40 320 40l4 -8v-60q0 -9 -112 -24q-104 -48 -104 -160l4 -8v-100q0 -251 -104 -312q-42 -38 -188 -76h-12v-60q187 -40 240 -112q64 -72 64 -276v-124q0 -121 136 -152q76 -4 76 -16v-60 q0 -8 -8 -8q-385 0 -448 148q-36 60 -36 144v52q8 143 8 160v36q0 172 -248 172z" />
<glyph unicode="|" horiz-adv-x="332" d="M87 -313v1916q1 10 8 10h128q8 -1 8 -10v-1916q0 -10 -8 -10h-128q-8 0 -8 10z" />
<glyph unicode="}" horiz-adv-x="465" d="M69 1529q0 10 16 12q212 -47 212 -212v-16q-12 -141 -12 -160q0 -244 40 -244q24 -8 24 -16q-60 -29 -60 -108q-4 -125 -4 -160q12 -150 12 -164v-4q0 -148 -172 -204q-38 -12 -44 -12l-8 12v8q100 54 100 92q4 48 8 48q-28 232 -28 296q0 154 76 192q-76 52 -76 208 q0 57 28 284q0 104 -104 136z" />
<glyph unicode="~" horiz-adv-x="1100" d="M110 495q78 199 216 264q46 16 80 16h16q103 0 304 -128q37 -16 80 -16q101 0 168 164h4q84 -28 84 -44q-124 -276 -308 -276q-99 0 -292 120q-43 21 -92 28q-104 0 -172 -164h-4q-84 27 -84 36z" />
<glyph unicode="&#xa1;" horiz-adv-x="527" d="M30 1287q-14 103 114 169l24 4q117 16 174 -97q6 -15 9 -32l1 -7q14 -103 -103 -164q-20 -7 -39 -9q-107 -15 -171 101q-2 15 -9 35zM154 380q-5 37 35 513q1 158 10 159l52 7q14 2 45 -123q160 -429 183 -511l1 -4q14 -105 -106 -168q-5 -1 -39 -10q-162 3 -181 137z " />
<glyph unicode="&#xa2;" horiz-adv-x="589" d="M39 786v8q0 246 145 384q69 48 116 48v204q1 8 5 8h40q5 -1 5 -8v-208h2q72 0 130 -108q15 -37 15 -76q-7 -120 -62 -120q-4 -4 -14 -4q-50 0 -69 84h-2v-516h13q74 0 125 156q36 -36 36 -48q-43 -140 -114 -196q-39 -32 -60 -32v-224q0 -8 -5 -8h-40q-5 0 -5 8v220h-2 q-207 0 -255 328q-4 60 -4 100zM207 798q0 -222 93 -304v656q-47 0 -78 -144q-15 -80 -15 -200v-8z" />
<glyph unicode="&#xa3;" horiz-adv-x="1067" d="M33 -148q7 11 96 48q96 54 96 248v72h-152q-8 0 -8 8v84q1 8 8 8h152q-16 152 -16 204q0 257 276 368q89 24 168 24q218 0 332 -160q16 -47 16 -72v-12q-17 -132 -124 -132h-32q-132 21 -132 112v28q0 37 36 144h-4q-40 12 -96 12q-117 0 -144 -192v-28q0 -61 4 -212 q4 -7 4 -16h-4l4 -8v-60h312q8 -1 8 -8v-84q0 -8 -8 -8h-308q-7 0 -24 -88q-40 -121 -148 -180q-28 -15 -28 -20v-4h684q8 -1 8 -8v-212q0 -8 -8 -8h-960q-8 0 -8 8v144z" />
<glyph unicode="&#xa4;" horiz-adv-x="3018" d="M110 1184v10q0 115 136 163l47 3q46 0 89 -36h3q-19 188 -26 229q-33 -7 -60 -7q-5 0 -10 10v17q0 12 140 20h3q13 0 17 -103q6 -11 43 -402v-6q1 -7 6 -7h33q13 0 37 362q6 26 17 159q6 3 10 3q46 -6 418 -36q3 -7 3 -10q-43 -501 -50 -541q-6 -3 -10 -3q-11 6 -20 6 h-23l-345 30q-16 -7 -149 -13q-4 5 -7 40q-41 -63 -123 -63h-30q-49 4 -109 63q-40 60 -40 112zM113 760q0 9 209 30q213 23 246 23q135 0 182 -83q20 -46 20 -80v-40q0 -46 -79 -119q-71 -51 -216 -70q-31 0 -43 -10q23 -209 33 -209q28 -13 53 -13h30q10 0 13 -36 q-16 -13 -119 -20q0 -4 -10 -4h-13q-210 -23 -223 -23l-10 13q0 4 4 4l-4 6v10q0 11 73 27q18 12 20 30l-59 497q-13 30 -97 30q-7 8 -10 37zM190 -315q0 99 3 272l7 3h176l6 -3q-3 -133 -3 -199v-43q0 -77 -10 -77h-173q-6 0 -6 7v40zM206 -66q4 -52 33 -269h24l20 113h6 v-4q0 -24 10 -109h20q8 0 50 269h-37q-12 -127 -20 -127h-3v4q-8 123 -16 123h-17q-13 -104 -13 -127h-7l-13 127h-37zM389 -309q20 223 26 252q196 -14 196 -23q-20 -225 -20 -245q-3 0 -3 -4q-155 14 -199 20zM392 746l33 -268v-10h4q71 0 129 53q23 26 23 89 q0 102 -73 136q-31 5 -53 10q-12 -6 -26 -6h-30zM409 -183v-29q10 -90 79 -90h17q86 16 86 123v6q0 76 -63 97q-18 3 -26 3q-80 0 -93 -110zM432 -189q0 89 60 103h16q46 0 57 -87v-33q0 -71 -57 -86h-16q-60 15 -60 103zM575 1291q0 -172 129 -216q27 -7 33 -7h63 q41 0 113 67q60 93 60 205q0 162 -130 213l-29 6h-50q-138 0 -186 -205q-3 -37 -3 -63zM618 -309q20 223 26 252q196 -14 196 -23q-20 -225 -20 -245q-3 0 -3 -4q-155 14 -199 20zM628 1311q0 180 109 219q12 6 27 6h13q65 0 103 -66q36 -61 36 -140v-43q0 -150 -106 -195 l-16 -4h-40q-42 0 -86 63q-40 71 -40 160zM638 -183v-29q10 -90 79 -90h17q86 16 86 123v6q0 76 -63 97q-18 3 -26 3q-80 0 -93 -110zM661 -189q0 89 60 103h16q46 0 57 -87v-33q0 -71 -57 -86h-16q-60 15 -60 103zM764 760q2 30 10 30h26q101 -10 123 -17h37q79 -11 79 -20 l3 -7q-66 -352 -66 -371v-23q16 -60 60 -60q18 -3 30 -3q45 0 89 46q50 276 50 292v10q-10 27 -50 43q-30 4 -30 13q0 40 20 40q18 -6 249 -33q10 -7 10 -13q-70 -402 -70 -422q0 -39 73 -53v-23q0 -23 -19 -23l-249 33q-7 11 -7 20q7 9 10 46h-7q-62 -42 -122 -49h-50 q-173 20 -173 162q0 34 47 305v10q-18 47 -53 47q-20 11 -20 20zM860 -242q0 64 83 76q17 0 43 -17v4l-10 99h-26q-7 0 -7 7v3q0 7 10 7q11 0 56 3q6 0 27 -239h16v203q1 6 7 6h166q0 -15 80 -23q3 0 10 -3q-24 -124 -24 -140q5 -13 17 -19h17q30 0 36 53q0 26 10 59 q0 19 -27 24v10l4 6q80 -10 89 -13q-23 -128 -23 -156q23 -13 23 -17v-3q0 -7 -6 -7q-66 7 -87 14l4 16v4h-4q-19 -17 -53 -17h-3q-38 0 -53 33h-3v-93q0 -6 -7 -6h-166q-7 0 -7 6v47q-41 -4 -49 -4q-4 6 -4 17q-21 -27 -59 -27h-7q-62 0 -73 87zM1019 936v584q0 4 10 10 h362l16 -4q-3 63 -6 83q11 7 20 7h332q16 0 16 -116l-6 -4h-54q-23 0 -36 -6l3 -17v-23q7 -146 7 -159l3 -17q0 -3 -3 -3l7 -40q0 -3 -4 -3l4 -20q0 -39 9 -176h-3l3 -7v-40q0 -6 -6 -6h-149q-5 0 -10 10q0 27 -27 494h-76q-8 -7 -14 -7q-6 4 -10 4v-544q0 -7 -6 -7h-375 q-7 0 -7 7zM1052 1005h7q5 0 10 10q0 6 -17 10v-20zM1052 1463h27v4q0 6 -7 6h-20v-10zM1066 -116v-4h13v4h-13zM1066 -322v-10h3q7 0 7 7l-7 3h-3zM1089 -216q0 -96 36 -96q0 -9 47 -13q17 0 20 10q-10 0 -10 6q6 4 10 4v6q-6 0 -20 14v3h-27q-4 0 -10 10v36q0 4 4 4l-4 6 q0 43 40 43q6 -3 13 -3v10q-6 8 -6 10v3q10 0 10 7v3q-26 14 -40 14h-3q-40 0 -60 -77zM1102 1251q0 -187 67 -203q51 -29 92 -29h27l33 10v3l-23 13q0 8 23 17v10q-16 0 -16 23q-8 0 -14 -3q-13 5 -13 10q0 3 3 3q-3 6 -3 10q-23 -7 -40 -7h-16q-24 8 -24 60v33q0 9 7 20 q-3 12 -3 13q12 90 73 90q0 3 6 3q11 -6 20 -6h14v3l-4 6q4 6 4 14l-17 20l30 20q-5 0 -43 26q-24 7 -27 7h-40q-48 0 -93 -87q-16 -40 -23 -79zM1185 1267l7 4q6 -1 6 -7l-6 -3q-7 0 -7 6zM1192 -246h13v4q-3 0 -10 3zM1198 1297h10q0 -6 -6 -6zM1205 -329v-6h10q7 0 7 6 v17q-5 0 -17 -17zM1218 -116v-7h4v7h-4zM1232 -123v-86h3q10 67 10 80q-8 6 -10 6h-3zM1321 1191l7 -3q6 3 10 3q11 -7 20 -7v4q0 6 -24 13q-13 -5 -13 -10zM1351 1005q1 -6 7 -6h26l7 20l-3 6q3 6 3 13v4h-7q-4 0 -33 -33v-4zM1378 1457l6 -4l7 10v4h-10q0 -4 -3 -10z M1421 846v20q2 20 10 20h43q9 0 89 -73q17 0 80 -70v-40q0 -13 -17 -26q6 0 17 -10h3q14 23 37 23h7q47 0 96 -63q6 0 53 -36h3q-6 150 -6 278l19 17h166q26 0 33 -37v-3q0 -96 -9 -96l9 -17v-76q0 -31 -73 -43l-3 -14h37q39 -5 39 -26q0 -14 7 -37v-56q0 -17 -3 -50 q6 -1 6 -6v-10q0 -14 4 -37q-7 -13 -7 -23q0 -36 7 -143q-4 -24 -4 -59q-10 -7 -19 -7h-14q-30 0 -139 99q-17 0 -126 113q-23 3 -120 93h-10q7 -21 7 -30v-69l-3 -20q10 -34 10 -70q-7 -21 -7 -27q0 -2 3 -43q0 -15 -43 -53h-30l-73 14q-23 -7 -39 -7h-4q-23 0 -23 20 q-3 167 -3 235l-4 24q7 11 7 20q-7 0 -7 6v27q0 41 4 76l-7 76q3 18 3 34l-3 13q0 3 3 3q-6 51 -6 166zM1437 -53l7 3h153q4 0 10 -10v-36q0 -7 -44 -10l10 -223q4 -6 4 -10l-7 -3h-66q-7 0 -7 7l-10 225h-36l-7 -3q-3 0 -7 60zM1613 -53l7 3h152q10 0 10 -13h233q6 -1 6 -7 q10 -227 10 -275q4 0 4 -3l-7 -4h-226q-13 0 -16 239q-4 7 -4 10h-26l-17 -3l10 -223q4 -6 4 -10l-7 -3h-66q-7 0 -7 7l-10 225h-37l-6 -3q-3 0 -7 60zM1792 1055q10 145 40 431q0 4 -3 4q10 109 16 109q206 -20 422 -36q3 -7 3 -10q-44 -541 -50 -541l-6 -3q-25 6 -388 36 h-14q-17 0 -20 10zM1826 -212q4 0 16 -17v-96h143v50h-86q-7 0 -7 6v27q1 6 7 6h59v50h-56q-7 0 -7 7v26q1 7 7 7h86v50h-146v-97zM1829 1287q0 -149 109 -205q40 -14 63 -14h53q50 4 110 63q63 82 63 216q0 144 -113 199q-36 13 -50 13h-53q-52 0 -109 -53 q-73 -87 -73 -219zM1885 1297v57q0 3 4 3q0 3 -4 3q13 92 50 133q45 42 83 43h23q93 0 130 -166v-106q0 -106 -93 -169q-3 0 -27 -7h-43q-58 0 -106 106q-17 51 -17 103zM1928 508l7 -4v4q-3 6 -3 10h-4v-10zM1932 464h10v7l-4 17h-6v-24zM2048 -47q1 7 6 7h90q0 17 7 17 h126q6 -1 6 -7v-295q0 -7 -6 -7h-130q0 -16 -6 -16h-87q-6 0 -6 6v295zM2074 -90v-232h50v83q0 5 20 10q1 7 7 7q17 -18 53 -83h60q-44 71 -73 103q46 25 46 66q0 60 -83 60h-7q0 -14 -6 -14h-67zM2081 843q0 10 289 30q0 3 10 3q78 0 122 10h10q60 0 123 10h40l17 3v-3l6 3 h20q14 0 23 -212q10 -65 50 -564v-17q0 -14 -385 -36q-6 -4 -10 -4v4q-116 -17 -245 -20q-9 0 -70 793zM2124 -136q0 4 20 10q0 13 10 13q27 0 30 -33q0 -21 -37 -37q0 -13 -6 -13h-10q-7 0 -7 7v53zM2254 693l46 -531h3l17 4v-4q11 7 20 7h23q22 0 66 3q-6 121 -13 153l7 3 q58 -71 103 -146h23q4 0 36 7h10q28 0 83 3v7q-169 243 -169 249q32 80 126 269v3h-156q-65 -166 -76 -166h-7q0 42 -6 83l3 7l-10 63l-7 -4q-92 -3 -122 -10zM2283 972v657q1 7 7 7h199l7 3l-4 7v16q0 5 10 10h286q6 -1 6 -6v-657q0 -7 -6 -7h-289v-30q0 -7 -7 -7h-202 q-7 0 -7 7zM2320 -342q0 21 36 30q30 -10 30 -33v-3q0 -26 -33 -30q-27 0 -33 36zM2340 1029l6 -4h97q6 0 6 7v179q0 3 10 10l17 -3h3l17 3l-4 17q2 6 7 6q43 -34 106 -152q17 -24 17 -30h126v3q-99 159 -146 206q-15 6 -17 13q100 52 100 100q7 23 7 39q0 110 -133 130h-60 v-20q0 -7 -7 -7h-146l-6 -3l3 -7v-481zM2410 -66l6 3h226q6 -1 6 -7q10 -227 10 -275q4 0 4 -3l-7 -4h-226q-11 0 -19 286zM2449 1307v126q0 5 10 10h37l-4 17v10q2 6 7 6h13q63 -9 63 -59q4 0 4 -10q0 -56 -80 -77q0 -33 -10 -33h-30q-4 0 -10 10zM2453 -212q4 0 16 -17 v-96h143v50h-86q-7 0 -7 6v27q1 6 7 6h59v50h-56q-7 0 -7 7v26q1 7 7 7h86v50h-146v-97zM2675 -252q0 12 36 13q-33 34 -33 43q0 26 4 93q42 40 59 40h90q29 0 63 -57v-9q0 -60 -23 -60h-20l40 -43l-4 -24v-43q-25 -59 -66 -59h-90q-20 0 -56 49v57zM2751 -249q9 -16 14 -17 h23q5 0 10 10q-11 7 -20 7h-27zM2765 -163v-6q0 -5 10 -10h36q-7 26 -13 26h-23q-5 0 -10 -10z" />
<glyph unicode="&#xa5;" horiz-adv-x="995" d="M33 1204v37q1 6 6 6h455q5 -1 5 -6v-37q0 -6 -8 -6q-98 -3 -98 -23v-5q0 -30 169 -318q18 18 166 263q15 31 15 46q0 29 -98 40v40q1 6 6 6h289q6 -1 6 -6v-37q0 -4 -55 -20q-58 -29 -126 -134q-166 -262 -177 -289v-9h252q6 -1 6 -6v-60q0 -5 -6 -5h-249v-149 q5 -63 51 -63q8 -5 78 -17v-43q0 -6 -6 -6h-452q-6 0 -6 6v40q0 5 89 14q40 17 40 66v152h-249q-6 0 -6 5v60q1 6 6 6h249v6q0 10 -195 337q-67 103 -154 103z" />
<glyph unicode="&#xa6;" horiz-adv-x="3018" d="M110 1184v10q0 115 136 163l47 3q46 0 89 -36h3q-19 188 -26 229q-33 -7 -60 -7q-5 0 -10 10v17q0 12 140 20h3q13 0 17 -103q6 -11 43 -402v-6q1 -7 6 -7h33q13 0 37 362q6 26 17 159q6 3 10 3q46 -6 418 -36q3 -7 3 -10q-43 -501 -50 -541q-6 -3 -10 -3q-11 6 -20 6 h-23l-345 30q-16 -7 -149 -13q-4 5 -7 40q-41 -63 -123 -63h-30q-49 4 -109 63q-40 60 -40 112zM113 760q0 9 209 30q213 23 246 23q135 0 182 -83q20 -46 20 -80v-40q0 -46 -79 -119q-71 -51 -216 -70q-31 0 -43 -10q23 -209 33 -209q28 -13 53 -13h30q10 0 13 -36 q-16 -13 -119 -20q0 -4 -10 -4h-13q-210 -23 -223 -23l-10 13q0 4 4 4l-4 6v10q0 11 73 27q18 12 20 30l-59 497q-13 30 -97 30q-7 8 -10 37zM190 -315q0 99 3 272l7 3h176l6 -3q-3 -133 -3 -199v-43q0 -77 -10 -77h-173q-6 0 -6 7v40zM206 -66q4 -52 33 -269h24l20 113h6 v-4q0 -24 10 -109h20q8 0 50 269h-37q-12 -127 -20 -127h-3v4q-8 123 -16 123h-17q-13 -104 -13 -127h-7l-13 127h-37zM389 -309q20 223 26 252q196 -14 196 -23q-20 -225 -20 -245q-3 0 -3 -4q-155 14 -199 20zM392 746l33 -268v-10h4q71 0 129 53q23 26 23 89 q0 102 -73 136q-31 5 -53 10q-12 -6 -26 -6h-30zM409 -183v-29q10 -90 79 -90h17q86 16 86 123v6q0 76 -63 97q-18 3 -26 3q-80 0 -93 -110zM432 -189q0 89 60 103h16q46 0 57 -87v-33q0 -71 -57 -86h-16q-60 15 -60 103zM575 1291q0 -172 129 -216q27 -7 33 -7h63 q41 0 113 67q60 93 60 205q0 162 -130 213l-29 6h-50q-138 0 -186 -205q-3 -37 -3 -63zM618 -309q20 223 26 252q196 -14 196 -23q-20 -225 -20 -245q-3 0 -3 -4q-155 14 -199 20zM628 1311q0 180 109 219q12 6 27 6h13q65 0 103 -66q36 -61 36 -140v-43q0 -150 -106 -195 l-16 -4h-40q-42 0 -86 63q-40 71 -40 160zM638 -183v-29q10 -90 79 -90h17q86 16 86 123v6q0 76 -63 97q-18 3 -26 3q-80 0 -93 -110zM661 -189q0 89 60 103h16q46 0 57 -87v-33q0 -71 -57 -86h-16q-60 15 -60 103zM764 760q2 30 10 30h26q101 -10 123 -17h37q79 -11 79 -20 l3 -7q-66 -352 -66 -371v-23q16 -60 60 -60q18 -3 30 -3q45 0 89 46q50 276 50 292v10q-10 27 -50 43q-30 4 -30 13q0 40 20 40q18 -6 249 -33q10 -7 10 -13q-70 -402 -70 -422q0 -39 73 -53v-23q0 -23 -19 -23l-249 33q-7 11 -7 20q7 9 10 46h-7q-62 -42 -122 -49h-50 q-173 20 -173 162q0 34 47 305v10q-18 47 -53 47q-20 11 -20 20zM860 -242q0 64 83 76q17 0 43 -17v4l-10 99h-26q-7 0 -7 7v3q0 7 10 7q11 0 56 3q6 0 27 -239h16v203q1 6 7 6h166q0 -15 80 -23q3 0 10 -3q-24 -124 -24 -140q5 -13 17 -19h17q30 0 36 53q0 26 10 59 q0 19 -27 24v10l4 6q80 -10 89 -13q-23 -128 -23 -156q23 -13 23 -17v-3q0 -7 -6 -7q-66 7 -87 14l4 16v4h-4q-19 -17 -53 -17h-3q-38 0 -53 33h-3v-93q0 -6 -7 -6h-166q-7 0 -7 6v47q-41 -4 -49 -4q-4 6 -4 17q-21 -27 -59 -27h-7q-62 0 -73 87zM1019 936v584q0 4 10 10 h362l16 -4q-3 63 -6 83q11 7 20 7h332q16 0 16 -116l-6 -4h-54q-23 0 -36 -6l3 -17v-23q7 -146 7 -159l3 -17q0 -3 -3 -3l7 -40q0 -3 -4 -3l4 -20q0 -39 9 -176h-3l3 -7v-40q0 -6 -6 -6h-149q-5 0 -10 10q0 27 -27 494h-76q-8 -7 -14 -7q-6 4 -10 4v-544q0 -7 -6 -7h-375 q-7 0 -7 7zM1052 1005h7q5 0 10 10q0 6 -17 10v-20zM1052 1463h27v4q0 6 -7 6h-20v-10zM1066 -116v-4h13v4h-13zM1066 -322v-10h3q7 0 7 7l-7 3h-3zM1089 -216q0 -96 36 -96q0 -9 47 -13q17 0 20 10q-10 0 -10 6q6 4 10 4v6q-6 0 -20 14v3h-27q-4 0 -10 10v36q0 4 4 4l-4 6 q0 43 40 43q6 -3 13 -3v10q-6 8 -6 10v3q10 0 10 7v3q-26 14 -40 14h-3q-40 0 -60 -77zM1102 1251q0 -187 67 -203q51 -29 92 -29h27l33 10v3l-23 13q0 8 23 17v10q-16 0 -16 23q-8 0 -14 -3q-13 5 -13 10q0 3 3 3q-3 6 -3 10q-23 -7 -40 -7h-16q-24 8 -24 60v33q0 9 7 20 q-3 12 -3 13q12 90 73 90q0 3 6 3q11 -6 20 -6h14v3l-4 6q4 6 4 14l-17 20l30 20q-5 0 -43 26q-24 7 -27 7h-40q-48 0 -93 -87q-16 -40 -23 -79zM1185 1267l7 4q6 -1 6 -7l-6 -3q-7 0 -7 6zM1192 -246h13v4q-3 0 -10 3zM1198 1297h10q0 -6 -6 -6zM1205 -329v-6h10q7 0 7 6 v17q-5 0 -17 -17zM1218 -116v-7h4v7h-4zM1232 -123v-86h3q10 67 10 80q-8 6 -10 6h-3zM1321 1191l7 -3q6 3 10 3q11 -7 20 -7v4q0 6 -24 13q-13 -5 -13 -10zM1351 1005q1 -6 7 -6h26l7 20l-3 6q3 6 3 13v4h-7q-4 0 -33 -33v-4zM1378 1457l6 -4l7 10v4h-10q0 -4 -3 -10z M1421 846v20q2 20 10 20h43q9 0 89 -73q17 0 80 -70v-40q0 -13 -17 -26q6 0 17 -10h3q14 23 37 23h7q47 0 96 -63q6 0 53 -36h3q-6 150 -6 278l19 17h166q26 0 33 -37v-3q0 -96 -9 -96l9 -17v-76q0 -31 -73 -43l-3 -14h37q39 -5 39 -26q0 -14 7 -37v-56q0 -17 -3 -50 q6 -1 6 -6v-10q0 -14 4 -37q-7 -13 -7 -23q0 -36 7 -143q-4 -24 -4 -59q-10 -7 -19 -7h-14q-30 0 -139 99q-17 0 -126 113q-23 3 -120 93h-10q7 -21 7 -30v-69l-3 -20q10 -34 10 -70q-7 -21 -7 -27q0 -2 3 -43q0 -15 -43 -53h-30l-73 14q-23 -7 -39 -7h-4q-23 0 -23 20 q-3 167 -3 235l-4 24q7 11 7 20q-7 0 -7 6v27q0 41 4 76l-7 76q3 18 3 34l-3 13q0 3 3 3q-6 51 -6 166zM1437 -53l7 3h153q4 0 10 -10v-36q0 -7 -44 -10l10 -223q4 -6 4 -10l-7 -3h-66q-7 0 -7 7l-10 225h-36l-7 -3q-3 0 -7 60zM1613 -53l7 3h152q10 0 10 -13h233q6 -1 6 -7 q10 -227 10 -275q4 0 4 -3l-7 -4h-226q-13 0 -16 239q-4 7 -4 10h-26l-17 -3l10 -223q4 -6 4 -10l-7 -3h-66q-7 0 -7 7l-10 225h-37l-6 -3q-3 0 -7 60zM1792 1055q10 145 40 431q0 4 -3 4q10 109 16 109q206 -20 422 -36q3 -7 3 -10q-44 -541 -50 -541l-6 -3q-25 6 -388 36 h-14q-17 0 -20 10zM1826 -212q4 0 16 -17v-96h143v50h-86q-7 0 -7 6v27q1 6 7 6h59v50h-56q-7 0 -7 7v26q1 7 7 7h86v50h-146v-97zM1829 1287q0 -149 109 -205q40 -14 63 -14h53q50 4 110 63q63 82 63 216q0 144 -113 199q-36 13 -50 13h-53q-52 0 -109 -53 q-73 -87 -73 -219zM1885 1297v57q0 3 4 3q0 3 -4 3q13 92 50 133q45 42 83 43h23q93 0 130 -166v-106q0 -106 -93 -169q-3 0 -27 -7h-43q-58 0 -106 106q-17 51 -17 103zM1928 508l7 -4v4q-3 6 -3 10h-4v-10zM1932 464h10v7l-4 17h-6v-24zM2048 -47q1 7 6 7h90q0 17 7 17 h126q6 -1 6 -7v-295q0 -7 -6 -7h-130q0 -16 -6 -16h-87q-6 0 -6 6v295zM2074 -90v-232h50v83q0 5 20 10q1 7 7 7q17 -18 53 -83h60q-44 71 -73 103q46 25 46 66q0 60 -83 60h-7q0 -14 -6 -14h-67zM2081 843q0 10 289 30q0 3 10 3q78 0 122 10h10q60 0 123 10h40l17 3v-3l6 3 h20q14 0 23 -212q10 -65 50 -564v-17q0 -14 -385 -36q-6 -4 -10 -4v4q-116 -17 -245 -20q-9 0 -70 793zM2124 -136q0 4 20 10q0 13 10 13q27 0 30 -33q0 -21 -37 -37q0 -13 -6 -13h-10q-7 0 -7 7v53zM2254 693l46 -531h3l17 4v-4q11 7 20 7h23q22 0 66 3q-6 121 -13 153l7 3 q58 -71 103 -146h23q4 0 36 7h10q28 0 83 3v7q-169 243 -169 249q32 80 126 269v3h-156q-65 -166 -76 -166h-7q0 42 -6 83l3 7l-10 63l-7 -4q-92 -3 -122 -10zM2283 972v657q1 7 7 7h199l7 3l-4 7v16q0 5 10 10h286q6 -1 6 -6v-657q0 -7 -6 -7h-289v-30q0 -7 -7 -7h-202 q-7 0 -7 7zM2320 -342q0 21 36 30q30 -10 30 -33v-3q0 -26 -33 -30q-27 0 -33 36zM2340 1029l6 -4h97q6 0 6 7v179q0 3 10 10l17 -3h3l17 3l-4 17q2 6 7 6q43 -34 106 -152q17 -24 17 -30h126v3q-99 159 -146 206q-15 6 -17 13q100 52 100 100q7 23 7 39q0 110 -133 130h-60 v-20q0 -7 -7 -7h-146l-6 -3l3 -7v-481zM2410 -66l6 3h226q6 -1 6 -7q10 -227 10 -275q4 0 4 -3l-7 -4h-226q-11 0 -19 286zM2449 1307v126q0 5 10 10h37l-4 17v10q2 6 7 6h13q63 -9 63 -59q4 0 4 -10q0 -56 -80 -77q0 -33 -10 -33h-30q-4 0 -10 10zM2453 -212q4 0 16 -17 v-96h143v50h-86q-7 0 -7 6v27q1 6 7 6h59v50h-56q-7 0 -7 7v26q1 7 7 7h86v50h-146v-97zM2675 -252q0 12 36 13q-33 34 -33 43q0 26 4 93q42 40 59 40h90q29 0 63 -57v-9q0 -60 -23 -60h-20l40 -43l-4 -24v-43q-25 -59 -66 -59h-90q-20 0 -56 49v57zM2751 -249q9 -16 14 -17 h23q5 0 10 10q-11 7 -20 7h-27zM2765 -163v-6q0 -5 10 -10h36q-7 26 -13 26h-23q-5 0 -10 -10z" />
<glyph unicode="&#xa7;" horiz-adv-x="3018" d="M110 1184v10q0 115 136 163l47 3q46 0 89 -36h3q-19 188 -26 229q-33 -7 -60 -7q-5 0 -10 10v17q0 12 140 20h3q13 0 17 -103q6 -11 43 -402v-6q1 -7 6 -7h33q13 0 37 362q6 26 17 159q6 3 10 3q46 -6 418 -36q3 -7 3 -10q-43 -501 -50 -541q-6 -3 -10 -3q-11 6 -20 6 h-23l-345 30q-16 -7 -149 -13q-4 5 -7 40q-41 -63 -123 -63h-30q-49 4 -109 63q-40 60 -40 112zM113 760q0 9 209 30q213 23 246 23q135 0 182 -83q20 -46 20 -80v-40q0 -46 -79 -119q-71 -51 -216 -70q-31 0 -43 -10q23 -209 33 -209q28 -13 53 -13h30q10 0 13 -36 q-16 -13 -119 -20q0 -4 -10 -4h-13q-210 -23 -223 -23l-10 13q0 4 4 4l-4 6v10q0 11 73 27q18 12 20 30l-59 497q-13 30 -97 30q-7 8 -10 37zM190 -315q0 99 3 272l7 3h176l6 -3q-3 -133 -3 -199v-43q0 -77 -10 -77h-173q-6 0 -6 7v40zM206 -66q4 -52 33 -269h24l20 113h6 v-4q0 -24 10 -109h20q8 0 50 269h-37q-12 -127 -20 -127h-3v4q-8 123 -16 123h-17q-13 -104 -13 -127h-7l-13 127h-37zM389 -309q20 223 26 252q196 -14 196 -23q-20 -225 -20 -245q-3 0 -3 -4q-155 14 -199 20zM392 746l33 -268v-10h4q71 0 129 53q23 26 23 89 q0 102 -73 136q-31 5 -53 10q-12 -6 -26 -6h-30zM409 -183v-29q10 -90 79 -90h17q86 16 86 123v6q0 76 -63 97q-18 3 -26 3q-80 0 -93 -110zM432 -189q0 89 60 103h16q46 0 57 -87v-33q0 -71 -57 -86h-16q-60 15 -60 103zM575 1291q0 -172 129 -216q27 -7 33 -7h63 q41 0 113 67q60 93 60 205q0 162 -130 213l-29 6h-50q-138 0 -186 -205q-3 -37 -3 -63zM618 -309q20 223 26 252q196 -14 196 -23q-20 -225 -20 -245q-3 0 -3 -4q-155 14 -199 20zM628 1311q0 180 109 219q12 6 27 6h13q65 0 103 -66q36 -61 36 -140v-43q0 -150 -106 -195 l-16 -4h-40q-42 0 -86 63q-40 71 -40 160zM638 -183v-29q10 -90 79 -90h17q86 16 86 123v6q0 76 -63 97q-18 3 -26 3q-80 0 -93 -110zM661 -189q0 89 60 103h16q46 0 57 -87v-33q0 -71 -57 -86h-16q-60 15 -60 103zM764 760q2 30 10 30h26q101 -10 123 -17h37q79 -11 79 -20 l3 -7q-66 -352 -66 -371v-23q16 -60 60 -60q18 -3 30 -3q45 0 89 46q50 276 50 292v10q-10 27 -50 43q-30 4 -30 13q0 40 20 40q18 -6 249 -33q10 -7 10 -13q-70 -402 -70 -422q0 -39 73 -53v-23q0 -23 -19 -23l-249 33q-7 11 -7 20q7 9 10 46h-7q-62 -42 -122 -49h-50 q-173 20 -173 162q0 34 47 305v10q-18 47 -53 47q-20 11 -20 20zM860 -242q0 64 83 76q17 0 43 -17v4l-10 99h-26q-7 0 -7 7v3q0 7 10 7q11 0 56 3q6 0 27 -239h16v203q1 6 7 6h166q0 -15 80 -23q3 0 10 -3q-24 -124 -24 -140q5 -13 17 -19h17q30 0 36 53q0 26 10 59 q0 19 -27 24v10l4 6q80 -10 89 -13q-23 -128 -23 -156q23 -13 23 -17v-3q0 -7 -6 -7q-66 7 -87 14l4 16v4h-4q-19 -17 -53 -17h-3q-38 0 -53 33h-3v-93q0 -6 -7 -6h-166q-7 0 -7 6v47q-41 -4 -49 -4q-4 6 -4 17q-21 -27 -59 -27h-7q-62 0 -73 87zM1019 936v584q0 4 10 10 h362l16 -4q-3 63 -6 83q11 7 20 7h332q16 0 16 -116l-6 -4h-54q-23 0 -36 -6l3 -17v-23q7 -146 7 -159l3 -17q0 -3 -3 -3l7 -40q0 -3 -4 -3l4 -20q0 -39 9 -176h-3l3 -7v-40q0 -6 -6 -6h-149q-5 0 -10 10q0 27 -27 494h-76q-8 -7 -14 -7q-6 4 -10 4v-544q0 -7 -6 -7h-375 q-7 0 -7 7zM1052 1005h7q5 0 10 10q0 6 -17 10v-20zM1052 1463h27v4q0 6 -7 6h-20v-10zM1066 -116v-4h13v4h-13zM1066 -322v-10h3q7 0 7 7l-7 3h-3zM1089 -216q0 -96 36 -96q0 -9 47 -13q17 0 20 10q-10 0 -10 6q6 4 10 4v6q-6 0 -20 14v3h-27q-4 0 -10 10v36q0 4 4 4l-4 6 q0 43 40 43q6 -3 13 -3v10q-6 8 -6 10v3q10 0 10 7v3q-26 14 -40 14h-3q-40 0 -60 -77zM1102 1251q0 -187 67 -203q51 -29 92 -29h27l33 10v3l-23 13q0 8 23 17v10q-16 0 -16 23q-8 0 -14 -3q-13 5 -13 10q0 3 3 3q-3 6 -3 10q-23 -7 -40 -7h-16q-24 8 -24 60v33q0 9 7 20 q-3 12 -3 13q12 90 73 90q0 3 6 3q11 -6 20 -6h14v3l-4 6q4 6 4 14l-17 20l30 20q-5 0 -43 26q-24 7 -27 7h-40q-48 0 -93 -87q-16 -40 -23 -79zM1185 1267l7 4q6 -1 6 -7l-6 -3q-7 0 -7 6zM1192 -246h13v4q-3 0 -10 3zM1198 1297h10q0 -6 -6 -6zM1205 -329v-6h10q7 0 7 6 v17q-5 0 -17 -17zM1218 -116v-7h4v7h-4zM1232 -123v-86h3q10 67 10 80q-8 6 -10 6h-3zM1321 1191l7 -3q6 3 10 3q11 -7 20 -7v4q0 6 -24 13q-13 -5 -13 -10zM1351 1005q1 -6 7 -6h26l7 20l-3 6q3 6 3 13v4h-7q-4 0 -33 -33v-4zM1378 1457l6 -4l7 10v4h-10q0 -4 -3 -10z M1421 846v20q2 20 10 20h43q9 0 89 -73q17 0 80 -70v-40q0 -13 -17 -26q6 0 17 -10h3q14 23 37 23h7q47 0 96 -63q6 0 53 -36h3q-6 150 -6 278l19 17h166q26 0 33 -37v-3q0 -96 -9 -96l9 -17v-76q0 -31 -73 -43l-3 -14h37q39 -5 39 -26q0 -14 7 -37v-56q0 -17 -3 -50 q6 -1 6 -6v-10q0 -14 4 -37q-7 -13 -7 -23q0 -36 7 -143q-4 -24 -4 -59q-10 -7 -19 -7h-14q-30 0 -139 99q-17 0 -126 113q-23 3 -120 93h-10q7 -21 7 -30v-69l-3 -20q10 -34 10 -70q-7 -21 -7 -27q0 -2 3 -43q0 -15 -43 -53h-30l-73 14q-23 -7 -39 -7h-4q-23 0 -23 20 q-3 167 -3 235l-4 24q7 11 7 20q-7 0 -7 6v27q0 41 4 76l-7 76q3 18 3 34l-3 13q0 3 3 3q-6 51 -6 166zM1437 -53l7 3h153q4 0 10 -10v-36q0 -7 -44 -10l10 -223q4 -6 4 -10l-7 -3h-66q-7 0 -7 7l-10 225h-36l-7 -3q-3 0 -7 60zM1613 -53l7 3h152q10 0 10 -13h233q6 -1 6 -7 q10 -227 10 -275q4 0 4 -3l-7 -4h-226q-13 0 -16 239q-4 7 -4 10h-26l-17 -3l10 -223q4 -6 4 -10l-7 -3h-66q-7 0 -7 7l-10 225h-37l-6 -3q-3 0 -7 60zM1792 1055q10 145 40 431q0 4 -3 4q10 109 16 109q206 -20 422 -36q3 -7 3 -10q-44 -541 -50 -541l-6 -3q-25 6 -388 36 h-14q-17 0 -20 10zM1826 -212q4 0 16 -17v-96h143v50h-86q-7 0 -7 6v27q1 6 7 6h59v50h-56q-7 0 -7 7v26q1 7 7 7h86v50h-146v-97zM1829 1287q0 -149 109 -205q40 -14 63 -14h53q50 4 110 63q63 82 63 216q0 144 -113 199q-36 13 -50 13h-53q-52 0 -109 -53 q-73 -87 -73 -219zM1885 1297v57q0 3 4 3q0 3 -4 3q13 92 50 133q45 42 83 43h23q93 0 130 -166v-106q0 -106 -93 -169q-3 0 -27 -7h-43q-58 0 -106 106q-17 51 -17 103zM1928 508l7 -4v4q-3 6 -3 10h-4v-10zM1932 464h10v7l-4 17h-6v-24zM2048 -47q1 7 6 7h90q0 17 7 17 h126q6 -1 6 -7v-295q0 -7 -6 -7h-130q0 -16 -6 -16h-87q-6 0 -6 6v295zM2074 -90v-232h50v83q0 5 20 10q1 7 7 7q17 -18 53 -83h60q-44 71 -73 103q46 25 46 66q0 60 -83 60h-7q0 -14 -6 -14h-67zM2081 843q0 10 289 30q0 3 10 3q78 0 122 10h10q60 0 123 10h40l17 3v-3l6 3 h20q14 0 23 -212q10 -65 50 -564v-17q0 -14 -385 -36q-6 -4 -10 -4v4q-116 -17 -245 -20q-9 0 -70 793zM2124 -136q0 4 20 10q0 13 10 13q27 0 30 -33q0 -21 -37 -37q0 -13 -6 -13h-10q-7 0 -7 7v53zM2254 693l46 -531h3l17 4v-4q11 7 20 7h23q22 0 66 3q-6 121 -13 153l7 3 q58 -71 103 -146h23q4 0 36 7h10q28 0 83 3v7q-169 243 -169 249q32 80 126 269v3h-156q-65 -166 -76 -166h-7q0 42 -6 83l3 7l-10 63l-7 -4q-92 -3 -122 -10zM2283 972v657q1 7 7 7h199l7 3l-4 7v16q0 5 10 10h286q6 -1 6 -6v-657q0 -7 -6 -7h-289v-30q0 -7 -7 -7h-202 q-7 0 -7 7zM2320 -342q0 21 36 30q30 -10 30 -33v-3q0 -26 -33 -30q-27 0 -33 36zM2340 1029l6 -4h97q6 0 6 7v179q0 3 10 10l17 -3h3l17 3l-4 17q2 6 7 6q43 -34 106 -152q17 -24 17 -30h126v3q-99 159 -146 206q-15 6 -17 13q100 52 100 100q7 23 7 39q0 110 -133 130h-60 v-20q0 -7 -7 -7h-146l-6 -3l3 -7v-481zM2410 -66l6 3h226q6 -1 6 -7q10 -227 10 -275q4 0 4 -3l-7 -4h-226q-11 0 -19 286zM2449 1307v126q0 5 10 10h37l-4 17v10q2 6 7 6h13q63 -9 63 -59q4 0 4 -10q0 -56 -80 -77q0 -33 -10 -33h-30q-4 0 -10 10zM2453 -212q4 0 16 -17 v-96h143v50h-86q-7 0 -7 6v27q1 6 7 6h59v50h-56q-7 0 -7 7v26q1 7 7 7h86v50h-146v-97zM2675 -252q0 12 36 13q-33 34 -33 43q0 26 4 93q42 40 59 40h90q29 0 63 -57v-9q0 -60 -23 -60h-20l40 -43l-4 -24v-43q-25 -59 -66 -59h-90q-20 0 -56 49v57zM2751 -249q9 -16 14 -17 h23q5 0 10 10q-11 7 -20 7h-27zM2765 -163v-6q0 -5 10 -10h36q-7 26 -13 26h-23q-5 0 -10 -10z" />
<glyph unicode="&#xa8;" horiz-adv-x="1024" />
<glyph unicode="&#xa9;" horiz-adv-x="3018" d="M110 1184v10q0 115 136 163l47 3q46 0 89 -36h3q-19 188 -26 229q-33 -7 -60 -7q-5 0 -10 10v17q0 12 140 20h3q13 0 17 -103q6 -11 43 -402v-6q1 -7 6 -7h33q13 0 37 362q6 26 17 159q6 3 10 3q46 -6 418 -36q3 -7 3 -10q-43 -501 -50 -541q-6 -3 -10 -3q-11 6 -20 6 h-23l-345 30q-16 -7 -149 -13q-4 5 -7 40q-41 -63 -123 -63h-30q-49 4 -109 63q-40 60 -40 112zM113 760q0 9 209 30q213 23 246 23q135 0 182 -83q20 -46 20 -80v-40q0 -46 -79 -119q-71 -51 -216 -70q-31 0 -43 -10q23 -209 33 -209q28 -13 53 -13h30q10 0 13 -36 q-16 -13 -119 -20q0 -4 -10 -4h-13q-210 -23 -223 -23l-10 13q0 4 4 4l-4 6v10q0 11 73 27q18 12 20 30l-59 497q-13 30 -97 30q-7 8 -10 37zM190 -315q0 99 3 272l7 3h176l6 -3q-3 -133 -3 -199v-43q0 -77 -10 -77h-173q-6 0 -6 7v40zM206 -66q4 -52 33 -269h24l20 113h6 v-4q0 -24 10 -109h20q8 0 50 269h-37q-12 -127 -20 -127h-3v4q-8 123 -16 123h-17q-13 -104 -13 -127h-7l-13 127h-37zM389 -309q20 223 26 252q196 -14 196 -23q-20 -225 -20 -245q-3 0 -3 -4q-155 14 -199 20zM392 746l33 -268v-10h4q71 0 129 53q23 26 23 89 q0 102 -73 136q-31 5 -53 10q-12 -6 -26 -6h-30zM409 -183v-29q10 -90 79 -90h17q86 16 86 123v6q0 76 -63 97q-18 3 -26 3q-80 0 -93 -110zM432 -189q0 89 60 103h16q46 0 57 -87v-33q0 -71 -57 -86h-16q-60 15 -60 103zM575 1291q0 -172 129 -216q27 -7 33 -7h63 q41 0 113 67q60 93 60 205q0 162 -130 213l-29 6h-50q-138 0 -186 -205q-3 -37 -3 -63zM618 -309q20 223 26 252q196 -14 196 -23q-20 -225 -20 -245q-3 0 -3 -4q-155 14 -199 20zM628 1311q0 180 109 219q12 6 27 6h13q65 0 103 -66q36 -61 36 -140v-43q0 -150 -106 -195 l-16 -4h-40q-42 0 -86 63q-40 71 -40 160zM638 -183v-29q10 -90 79 -90h17q86 16 86 123v6q0 76 -63 97q-18 3 -26 3q-80 0 -93 -110zM661 -189q0 89 60 103h16q46 0 57 -87v-33q0 -71 -57 -86h-16q-60 15 -60 103zM764 760q2 30 10 30h26q101 -10 123 -17h37q79 -11 79 -20 l3 -7q-66 -352 -66 -371v-23q16 -60 60 -60q18 -3 30 -3q45 0 89 46q50 276 50 292v10q-10 27 -50 43q-30 4 -30 13q0 40 20 40q18 -6 249 -33q10 -7 10 -13q-70 -402 -70 -422q0 -39 73 -53v-23q0 -23 -19 -23l-249 33q-7 11 -7 20q7 9 10 46h-7q-62 -42 -122 -49h-50 q-173 20 -173 162q0 34 47 305v10q-18 47 -53 47q-20 11 -20 20zM860 -242q0 64 83 76q17 0 43 -17v4l-10 99h-26q-7 0 -7 7v3q0 7 10 7q11 0 56 3q6 0 27 -239h16v203q1 6 7 6h166q0 -15 80 -23q3 0 10 -3q-24 -124 -24 -140q5 -13 17 -19h17q30 0 36 53q0 26 10 59 q0 19 -27 24v10l4 6q80 -10 89 -13q-23 -128 -23 -156q23 -13 23 -17v-3q0 -7 -6 -7q-66 7 -87 14l4 16v4h-4q-19 -17 -53 -17h-3q-38 0 -53 33h-3v-93q0 -6 -7 -6h-166q-7 0 -7 6v47q-41 -4 -49 -4q-4 6 -4 17q-21 -27 -59 -27h-7q-62 0 -73 87zM1019 936v584q0 4 10 10 h362l16 -4q-3 63 -6 83q11 7 20 7h332q16 0 16 -116l-6 -4h-54q-23 0 -36 -6l3 -17v-23q7 -146 7 -159l3 -17q0 -3 -3 -3l7 -40q0 -3 -4 -3l4 -20q0 -39 9 -176h-3l3 -7v-40q0 -6 -6 -6h-149q-5 0 -10 10q0 27 -27 494h-76q-8 -7 -14 -7q-6 4 -10 4v-544q0 -7 -6 -7h-375 q-7 0 -7 7zM1052 1005h7q5 0 10 10q0 6 -17 10v-20zM1052 1463h27v4q0 6 -7 6h-20v-10zM1066 -116v-4h13v4h-13zM1066 -322v-10h3q7 0 7 7l-7 3h-3zM1089 -216q0 -96 36 -96q0 -9 47 -13q17 0 20 10q-10 0 -10 6q6 4 10 4v6q-6 0 -20 14v3h-27q-4 0 -10 10v36q0 4 4 4l-4 6 q0 43 40 43q6 -3 13 -3v10q-6 8 -6 10v3q10 0 10 7v3q-26 14 -40 14h-3q-40 0 -60 -77zM1102 1251q0 -187 67 -203q51 -29 92 -29h27l33 10v3l-23 13q0 8 23 17v10q-16 0 -16 23q-8 0 -14 -3q-13 5 -13 10q0 3 3 3q-3 6 -3 10q-23 -7 -40 -7h-16q-24 8 -24 60v33q0 9 7 20 q-3 12 -3 13q12 90 73 90q0 3 6 3q11 -6 20 -6h14v3l-4 6q4 6 4 14l-17 20l30 20q-5 0 -43 26q-24 7 -27 7h-40q-48 0 -93 -87q-16 -40 -23 -79zM1185 1267l7 4q6 -1 6 -7l-6 -3q-7 0 -7 6zM1192 -246h13v4q-3 0 -10 3zM1198 1297h10q0 -6 -6 -6zM1205 -329v-6h10q7 0 7 6 v17q-5 0 -17 -17zM1218 -116v-7h4v7h-4zM1232 -123v-86h3q10 67 10 80q-8 6 -10 6h-3zM1321 1191l7 -3q6 3 10 3q11 -7 20 -7v4q0 6 -24 13q-13 -5 -13 -10zM1351 1005q1 -6 7 -6h26l7 20l-3 6q3 6 3 13v4h-7q-4 0 -33 -33v-4zM1378 1457l6 -4l7 10v4h-10q0 -4 -3 -10z M1421 846v20q2 20 10 20h43q9 0 89 -73q17 0 80 -70v-40q0 -13 -17 -26q6 0 17 -10h3q14 23 37 23h7q47 0 96 -63q6 0 53 -36h3q-6 150 -6 278l19 17h166q26 0 33 -37v-3q0 -96 -9 -96l9 -17v-76q0 -31 -73 -43l-3 -14h37q39 -5 39 -26q0 -14 7 -37v-56q0 -17 -3 -50 q6 -1 6 -6v-10q0 -14 4 -37q-7 -13 -7 -23q0 -36 7 -143q-4 -24 -4 -59q-10 -7 -19 -7h-14q-30 0 -139 99q-17 0 -126 113q-23 3 -120 93h-10q7 -21 7 -30v-69l-3 -20q10 -34 10 -70q-7 -21 -7 -27q0 -2 3 -43q0 -15 -43 -53h-30l-73 14q-23 -7 -39 -7h-4q-23 0 -23 20 q-3 167 -3 235l-4 24q7 11 7 20q-7 0 -7 6v27q0 41 4 76l-7 76q3 18 3 34l-3 13q0 3 3 3q-6 51 -6 166zM1437 -53l7 3h153q4 0 10 -10v-36q0 -7 -44 -10l10 -223q4 -6 4 -10l-7 -3h-66q-7 0 -7 7l-10 225h-36l-7 -3q-3 0 -7 60zM1613 -53l7 3h152q10 0 10 -13h233q6 -1 6 -7 q10 -227 10 -275q4 0 4 -3l-7 -4h-226q-13 0 -16 239q-4 7 -4 10h-26l-17 -3l10 -223q4 -6 4 -10l-7 -3h-66q-7 0 -7 7l-10 225h-37l-6 -3q-3 0 -7 60zM1792 1055q10 145 40 431q0 4 -3 4q10 109 16 109q206 -20 422 -36q3 -7 3 -10q-44 -541 -50 -541l-6 -3q-25 6 -388 36 h-14q-17 0 -20 10zM1826 -212q4 0 16 -17v-96h143v50h-86q-7 0 -7 6v27q1 6 7 6h59v50h-56q-7 0 -7 7v26q1 7 7 7h86v50h-146v-97zM1829 1287q0 -149 109 -205q40 -14 63 -14h53q50 4 110 63q63 82 63 216q0 144 -113 199q-36 13 -50 13h-53q-52 0 -109 -53 q-73 -87 -73 -219zM1885 1297v57q0 3 4 3q0 3 -4 3q13 92 50 133q45 42 83 43h23q93 0 130 -166v-106q0 -106 -93 -169q-3 0 -27 -7h-43q-58 0 -106 106q-17 51 -17 103zM1928 508l7 -4v4q-3 6 -3 10h-4v-10zM1932 464h10v7l-4 17h-6v-24zM2048 -47q1 7 6 7h90q0 17 7 17 h126q6 -1 6 -7v-295q0 -7 -6 -7h-130q0 -16 -6 -16h-87q-6 0 -6 6v295zM2074 -90v-232h50v83q0 5 20 10q1 7 7 7q17 -18 53 -83h60q-44 71 -73 103q46 25 46 66q0 60 -83 60h-7q0 -14 -6 -14h-67zM2081 843q0 10 289 30q0 3 10 3q78 0 122 10h10q60 0 123 10h40l17 3v-3l6 3 h20q14 0 23 -212q10 -65 50 -564v-17q0 -14 -385 -36q-6 -4 -10 -4v4q-116 -17 -245 -20q-9 0 -70 793zM2124 -136q0 4 20 10q0 13 10 13q27 0 30 -33q0 -21 -37 -37q0 -13 -6 -13h-10q-7 0 -7 7v53zM2254 693l46 -531h3l17 4v-4q11 7 20 7h23q22 0 66 3q-6 121 -13 153l7 3 q58 -71 103 -146h23q4 0 36 7h10q28 0 83 3v7q-169 243 -169 249q32 80 126 269v3h-156q-65 -166 -76 -166h-7q0 42 -6 83l3 7l-10 63l-7 -4q-92 -3 -122 -10zM2283 972v657q1 7 7 7h199l7 3l-4 7v16q0 5 10 10h286q6 -1 6 -6v-657q0 -7 -6 -7h-289v-30q0 -7 -7 -7h-202 q-7 0 -7 7zM2320 -342q0 21 36 30q30 -10 30 -33v-3q0 -26 -33 -30q-27 0 -33 36zM2340 1029l6 -4h97q6 0 6 7v179q0 3 10 10l17 -3h3l17 3l-4 17q2 6 7 6q43 -34 106 -152q17 -24 17 -30h126v3q-99 159 -146 206q-15 6 -17 13q100 52 100 100q7 23 7 39q0 110 -133 130h-60 v-20q0 -7 -7 -7h-146l-6 -3l3 -7v-481zM2410 -66l6 3h226q6 -1 6 -7q10 -227 10 -275q4 0 4 -3l-7 -4h-226q-11 0 -19 286zM2449 1307v126q0 5 10 10h37l-4 17v10q2 6 7 6h13q63 -9 63 -59q4 0 4 -10q0 -56 -80 -77q0 -33 -10 -33h-30q-4 0 -10 10zM2453 -212q4 0 16 -17 v-96h143v50h-86q-7 0 -7 6v27q1 6 7 6h59v50h-56q-7 0 -7 7v26q1 7 7 7h86v50h-146v-97zM2675 -252q0 12 36 13q-33 34 -33 43q0 26 4 93q42 40 59 40h90q29 0 63 -57v-9q0 -60 -23 -60h-20l40 -43l-4 -24v-43q-25 -59 -66 -59h-90q-20 0 -56 49v57zM2751 -249q9 -16 14 -17 h23q5 0 10 10q-11 7 -20 7h-27zM2765 -163v-6q0 -5 10 -10h36q-7 26 -13 26h-23q-5 0 -10 -10z" />
<glyph unicode="&#xaa;" horiz-adv-x="648" />
<glyph unicode="&#xab;" horiz-adv-x="944" />
<glyph unicode="&#xac;" horiz-adv-x="1014" />
<glyph unicode="&#xad;" horiz-adv-x="670" d="M62 603v168q1 8 8 8h488q8 -1 8 -8v-168q0 -8 -8 -8h-488q-8 0 -8 8z" />
<glyph unicode="&#xae;" horiz-adv-x="3018" d="M110 1184v10q0 115 136 163l47 3q46 0 89 -36h3q-19 188 -26 229q-33 -7 -60 -7q-5 0 -10 10v17q0 12 140 20h3q13 0 17 -103q6 -11 43 -402v-6q1 -7 6 -7h33q13 0 37 362q6 26 17 159q6 3 10 3q46 -6 418 -36q3 -7 3 -10q-43 -501 -50 -541q-6 -3 -10 -3q-11 6 -20 6 h-23l-345 30q-16 -7 -149 -13q-4 5 -7 40q-41 -63 -123 -63h-30q-49 4 -109 63q-40 60 -40 112zM113 760q0 9 209 30q213 23 246 23q135 0 182 -83q20 -46 20 -80v-40q0 -46 -79 -119q-71 -51 -216 -70q-31 0 -43 -10q23 -209 33 -209q28 -13 53 -13h30q10 0 13 -36 q-16 -13 -119 -20q0 -4 -10 -4h-13q-210 -23 -223 -23l-10 13q0 4 4 4l-4 6v10q0 11 73 27q18 12 20 30l-59 497q-13 30 -97 30q-7 8 -10 37zM190 -315q0 99 3 272l7 3h176l6 -3q-3 -133 -3 -199v-43q0 -77 -10 -77h-173q-6 0 -6 7v40zM206 -66q4 -52 33 -269h24l20 113h6 v-4q0 -24 10 -109h20q8 0 50 269h-37q-12 -127 -20 -127h-3v4q-8 123 -16 123h-17q-13 -104 -13 -127h-7l-13 127h-37zM389 -309q20 223 26 252q196 -14 196 -23q-20 -225 -20 -245q-3 0 -3 -4q-155 14 -199 20zM392 746l33 -268v-10h4q71 0 129 53q23 26 23 89 q0 102 -73 136q-31 5 -53 10q-12 -6 -26 -6h-30zM409 -183v-29q10 -90 79 -90h17q86 16 86 123v6q0 76 -63 97q-18 3 -26 3q-80 0 -93 -110zM432 -189q0 89 60 103h16q46 0 57 -87v-33q0 -71 -57 -86h-16q-60 15 -60 103zM575 1291q0 -172 129 -216q27 -7 33 -7h63 q41 0 113 67q60 93 60 205q0 162 -130 213l-29 6h-50q-138 0 -186 -205q-3 -37 -3 -63zM618 -309q20 223 26 252q196 -14 196 -23q-20 -225 -20 -245q-3 0 -3 -4q-155 14 -199 20zM628 1311q0 180 109 219q12 6 27 6h13q65 0 103 -66q36 -61 36 -140v-43q0 -150 -106 -195 l-16 -4h-40q-42 0 -86 63q-40 71 -40 160zM638 -183v-29q10 -90 79 -90h17q86 16 86 123v6q0 76 -63 97q-18 3 -26 3q-80 0 -93 -110zM661 -189q0 89 60 103h16q46 0 57 -87v-33q0 -71 -57 -86h-16q-60 15 -60 103zM764 760q2 30 10 30h26q101 -10 123 -17h37q79 -11 79 -20 l3 -7q-66 -352 -66 -371v-23q16 -60 60 -60q18 -3 30 -3q45 0 89 46q50 276 50 292v10q-10 27 -50 43q-30 4 -30 13q0 40 20 40q18 -6 249 -33q10 -7 10 -13q-70 -402 -70 -422q0 -39 73 -53v-23q0 -23 -19 -23l-249 33q-7 11 -7 20q7 9 10 46h-7q-62 -42 -122 -49h-50 q-173 20 -173 162q0 34 47 305v10q-18 47 -53 47q-20 11 -20 20zM860 -242q0 64 83 76q17 0 43 -17v4l-10 99h-26q-7 0 -7 7v3q0 7 10 7q11 0 56 3q6 0 27 -239h16v203q1 6 7 6h166q0 -15 80 -23q3 0 10 -3q-24 -124 -24 -140q5 -13 17 -19h17q30 0 36 53q0 26 10 59 q0 19 -27 24v10l4 6q80 -10 89 -13q-23 -128 -23 -156q23 -13 23 -17v-3q0 -7 -6 -7q-66 7 -87 14l4 16v4h-4q-19 -17 -53 -17h-3q-38 0 -53 33h-3v-93q0 -6 -7 -6h-166q-7 0 -7 6v47q-41 -4 -49 -4q-4 6 -4 17q-21 -27 -59 -27h-7q-62 0 -73 87zM1019 936v584q0 4 10 10 h362l16 -4q-3 63 -6 83q11 7 20 7h332q16 0 16 -116l-6 -4h-54q-23 0 -36 -6l3 -17v-23q7 -146 7 -159l3 -17q0 -3 -3 -3l7 -40q0 -3 -4 -3l4 -20q0 -39 9 -176h-3l3 -7v-40q0 -6 -6 -6h-149q-5 0 -10 10q0 27 -27 494h-76q-8 -7 -14 -7q-6 4 -10 4v-544q0 -7 -6 -7h-375 q-7 0 -7 7zM1052 1005h7q5 0 10 10q0 6 -17 10v-20zM1052 1463h27v4q0 6 -7 6h-20v-10zM1066 -116v-4h13v4h-13zM1066 -322v-10h3q7 0 7 7l-7 3h-3zM1089 -216q0 -96 36 -96q0 -9 47 -13q17 0 20 10q-10 0 -10 6q6 4 10 4v6q-6 0 -20 14v3h-27q-4 0 -10 10v36q0 4 4 4l-4 6 q0 43 40 43q6 -3 13 -3v10q-6 8 -6 10v3q10 0 10 7v3q-26 14 -40 14h-3q-40 0 -60 -77zM1102 1251q0 -187 67 -203q51 -29 92 -29h27l33 10v3l-23 13q0 8 23 17v10q-16 0 -16 23q-8 0 -14 -3q-13 5 -13 10q0 3 3 3q-3 6 -3 10q-23 -7 -40 -7h-16q-24 8 -24 60v33q0 9 7 20 q-3 12 -3 13q12 90 73 90q0 3 6 3q11 -6 20 -6h14v3l-4 6q4 6 4 14l-17 20l30 20q-5 0 -43 26q-24 7 -27 7h-40q-48 0 -93 -87q-16 -40 -23 -79zM1185 1267l7 4q6 -1 6 -7l-6 -3q-7 0 -7 6zM1192 -246h13v4q-3 0 -10 3zM1198 1297h10q0 -6 -6 -6zM1205 -329v-6h10q7 0 7 6 v17q-5 0 -17 -17zM1218 -116v-7h4v7h-4zM1232 -123v-86h3q10 67 10 80q-8 6 -10 6h-3zM1321 1191l7 -3q6 3 10 3q11 -7 20 -7v4q0 6 -24 13q-13 -5 -13 -10zM1351 1005q1 -6 7 -6h26l7 20l-3 6q3 6 3 13v4h-7q-4 0 -33 -33v-4zM1378 1457l6 -4l7 10v4h-10q0 -4 -3 -10z M1421 846v20q2 20 10 20h43q9 0 89 -73q17 0 80 -70v-40q0 -13 -17 -26q6 0 17 -10h3q14 23 37 23h7q47 0 96 -63q6 0 53 -36h3q-6 150 -6 278l19 17h166q26 0 33 -37v-3q0 -96 -9 -96l9 -17v-76q0 -31 -73 -43l-3 -14h37q39 -5 39 -26q0 -14 7 -37v-56q0 -17 -3 -50 q6 -1 6 -6v-10q0 -14 4 -37q-7 -13 -7 -23q0 -36 7 -143q-4 -24 -4 -59q-10 -7 -19 -7h-14q-30 0 -139 99q-17 0 -126 113q-23 3 -120 93h-10q7 -21 7 -30v-69l-3 -20q10 -34 10 -70q-7 -21 -7 -27q0 -2 3 -43q0 -15 -43 -53h-30l-73 14q-23 -7 -39 -7h-4q-23 0 -23 20 q-3 167 -3 235l-4 24q7 11 7 20q-7 0 -7 6v27q0 41 4 76l-7 76q3 18 3 34l-3 13q0 3 3 3q-6 51 -6 166zM1437 -53l7 3h153q4 0 10 -10v-36q0 -7 -44 -10l10 -223q4 -6 4 -10l-7 -3h-66q-7 0 -7 7l-10 225h-36l-7 -3q-3 0 -7 60zM1613 -53l7 3h152q10 0 10 -13h233q6 -1 6 -7 q10 -227 10 -275q4 0 4 -3l-7 -4h-226q-13 0 -16 239q-4 7 -4 10h-26l-17 -3l10 -223q4 -6 4 -10l-7 -3h-66q-7 0 -7 7l-10 225h-37l-6 -3q-3 0 -7 60zM1792 1055q10 145 40 431q0 4 -3 4q10 109 16 109q206 -20 422 -36q3 -7 3 -10q-44 -541 -50 -541l-6 -3q-25 6 -388 36 h-14q-17 0 -20 10zM1826 -212q4 0 16 -17v-96h143v50h-86q-7 0 -7 6v27q1 6 7 6h59v50h-56q-7 0 -7 7v26q1 7 7 7h86v50h-146v-97zM1829 1287q0 -149 109 -205q40 -14 63 -14h53q50 4 110 63q63 82 63 216q0 144 -113 199q-36 13 -50 13h-53q-52 0 -109 -53 q-73 -87 -73 -219zM1885 1297v57q0 3 4 3q0 3 -4 3q13 92 50 133q45 42 83 43h23q93 0 130 -166v-106q0 -106 -93 -169q-3 0 -27 -7h-43q-58 0 -106 106q-17 51 -17 103zM1928 508l7 -4v4q-3 6 -3 10h-4v-10zM1932 464h10v7l-4 17h-6v-24zM2048 -47q1 7 6 7h90q0 17 7 17 h126q6 -1 6 -7v-295q0 -7 -6 -7h-130q0 -16 -6 -16h-87q-6 0 -6 6v295zM2074 -90v-232h50v83q0 5 20 10q1 7 7 7q17 -18 53 -83h60q-44 71 -73 103q46 25 46 66q0 60 -83 60h-7q0 -14 -6 -14h-67zM2081 843q0 10 289 30q0 3 10 3q78 0 122 10h10q60 0 123 10h40l17 3v-3l6 3 h20q14 0 23 -212q10 -65 50 -564v-17q0 -14 -385 -36q-6 -4 -10 -4v4q-116 -17 -245 -20q-9 0 -70 793zM2124 -136q0 4 20 10q0 13 10 13q27 0 30 -33q0 -21 -37 -37q0 -13 -6 -13h-10q-7 0 -7 7v53zM2254 693l46 -531h3l17 4v-4q11 7 20 7h23q22 0 66 3q-6 121 -13 153l7 3 q58 -71 103 -146h23q4 0 36 7h10q28 0 83 3v7q-169 243 -169 249q32 80 126 269v3h-156q-65 -166 -76 -166h-7q0 42 -6 83l3 7l-10 63l-7 -4q-92 -3 -122 -10zM2283 972v657q1 7 7 7h199l7 3l-4 7v16q0 5 10 10h286q6 -1 6 -6v-657q0 -7 -6 -7h-289v-30q0 -7 -7 -7h-202 q-7 0 -7 7zM2320 -342q0 21 36 30q30 -10 30 -33v-3q0 -26 -33 -30q-27 0 -33 36zM2340 1029l6 -4h97q6 0 6 7v179q0 3 10 10l17 -3h3l17 3l-4 17q2 6 7 6q43 -34 106 -152q17 -24 17 -30h126v3q-99 159 -146 206q-15 6 -17 13q100 52 100 100q7 23 7 39q0 110 -133 130h-60 v-20q0 -7 -7 -7h-146l-6 -3l3 -7v-481zM2410 -66l6 3h226q6 -1 6 -7q10 -227 10 -275q4 0 4 -3l-7 -4h-226q-11 0 -19 286zM2449 1307v126q0 5 10 10h37l-4 17v10q2 6 7 6h13q63 -9 63 -59q4 0 4 -10q0 -56 -80 -77q0 -33 -10 -33h-30q-4 0 -10 10zM2453 -212q4 0 16 -17 v-96h143v50h-86q-7 0 -7 6v27q1 6 7 6h59v50h-56q-7 0 -7 7v26q1 7 7 7h86v50h-146v-97zM2675 -252q0 12 36 13q-33 34 -33 43q0 26 4 93q42 40 59 40h90q29 0 63 -57v-9q0 -60 -23 -60h-20l40 -43l-4 -24v-43q-25 -59 -66 -59h-90q-20 0 -56 49v57zM2751 -249q9 -16 14 -17 h23q5 0 10 10q-11 7 -20 7h-27zM2765 -163v-6q0 -5 10 -10h36q-7 26 -13 26h-23q-5 0 -10 -10z" />
<glyph unicode="&#xaf;" horiz-adv-x="670" />
<glyph unicode="&#xb0;" horiz-adv-x="674" />
<glyph unicode="&#xb1;" horiz-adv-x="1014" />
<glyph unicode="&#xb2;" horiz-adv-x="1014" />
<glyph unicode="&#xb3;" horiz-adv-x="1014" />
<glyph unicode="&#xb4;" horiz-adv-x="521" d="M68 1162q-2 11 134 367q31 70 92 80q78 -7 93 -94q17 -103 -81 -176l-201 -203q-5 -1 -37 26z" />
<glyph unicode="&#xb5;" horiz-adv-x="3018" d="M110 1184v10q0 115 136 163l47 3q46 0 89 -36h3q-19 188 -26 229q-33 -7 -60 -7q-5 0 -10 10v17q0 12 140 20h3q13 0 17 -103q6 -11 43 -402v-6q1 -7 6 -7h33q13 0 37 362q6 26 17 159q6 3 10 3q46 -6 418 -36q3 -7 3 -10q-43 -501 -50 -541q-6 -3 -10 -3q-11 6 -20 6 h-23l-345 30q-16 -7 -149 -13q-4 5 -7 40q-41 -63 -123 -63h-30q-49 4 -109 63q-40 60 -40 112zM113 760q0 9 209 30q213 23 246 23q135 0 182 -83q20 -46 20 -80v-40q0 -46 -79 -119q-71 -51 -216 -70q-31 0 -43 -10q23 -209 33 -209q28 -13 53 -13h30q10 0 13 -36 q-16 -13 -119 -20q0 -4 -10 -4h-13q-210 -23 -223 -23l-10 13q0 4 4 4l-4 6v10q0 11 73 27q18 12 20 30l-59 497q-13 30 -97 30q-7 8 -10 37zM190 -315q0 99 3 272l7 3h176l6 -3q-3 -133 -3 -199v-43q0 -77 -10 -77h-173q-6 0 -6 7v40zM206 -66q4 -52 33 -269h24l20 113h6 v-4q0 -24 10 -109h20q8 0 50 269h-37q-12 -127 -20 -127h-3v4q-8 123 -16 123h-17q-13 -104 -13 -127h-7l-13 127h-37zM389 -309q20 223 26 252q196 -14 196 -23q-20 -225 -20 -245q-3 0 -3 -4q-155 14 -199 20zM392 746l33 -268v-10h4q71 0 129 53q23 26 23 89 q0 102 -73 136q-31 5 -53 10q-12 -6 -26 -6h-30zM409 -183v-29q10 -90 79 -90h17q86 16 86 123v6q0 76 -63 97q-18 3 -26 3q-80 0 -93 -110zM432 -189q0 89 60 103h16q46 0 57 -87v-33q0 -71 -57 -86h-16q-60 15 -60 103zM575 1291q0 -172 129 -216q27 -7 33 -7h63 q41 0 113 67q60 93 60 205q0 162 -130 213l-29 6h-50q-138 0 -186 -205q-3 -37 -3 -63zM618 -309q20 223 26 252q196 -14 196 -23q-20 -225 -20 -245q-3 0 -3 -4q-155 14 -199 20zM628 1311q0 180 109 219q12 6 27 6h13q65 0 103 -66q36 -61 36 -140v-43q0 -150 -106 -195 l-16 -4h-40q-42 0 -86 63q-40 71 -40 160zM638 -183v-29q10 -90 79 -90h17q86 16 86 123v6q0 76 -63 97q-18 3 -26 3q-80 0 -93 -110zM661 -189q0 89 60 103h16q46 0 57 -87v-33q0 -71 -57 -86h-16q-60 15 -60 103zM764 760q2 30 10 30h26q101 -10 123 -17h37q79 -11 79 -20 l3 -7q-66 -352 -66 -371v-23q16 -60 60 -60q18 -3 30 -3q45 0 89 46q50 276 50 292v10q-10 27 -50 43q-30 4 -30 13q0 40 20 40q18 -6 249 -33q10 -7 10 -13q-70 -402 -70 -422q0 -39 73 -53v-23q0 -23 -19 -23l-249 33q-7 11 -7 20q7 9 10 46h-7q-62 -42 -122 -49h-50 q-173 20 -173 162q0 34 47 305v10q-18 47 -53 47q-20 11 -20 20zM860 -242q0 64 83 76q17 0 43 -17v4l-10 99h-26q-7 0 -7 7v3q0 7 10 7q11 0 56 3q6 0 27 -239h16v203q1 6 7 6h166q0 -15 80 -23q3 0 10 -3q-24 -124 -24 -140q5 -13 17 -19h17q30 0 36 53q0 26 10 59 q0 19 -27 24v10l4 6q80 -10 89 -13q-23 -128 -23 -156q23 -13 23 -17v-3q0 -7 -6 -7q-66 7 -87 14l4 16v4h-4q-19 -17 -53 -17h-3q-38 0 -53 33h-3v-93q0 -6 -7 -6h-166q-7 0 -7 6v47q-41 -4 -49 -4q-4 6 -4 17q-21 -27 -59 -27h-7q-62 0 -73 87zM1019 936v584q0 4 10 10 h362l16 -4q-3 63 -6 83q11 7 20 7h332q16 0 16 -116l-6 -4h-54q-23 0 -36 -6l3 -17v-23q7 -146 7 -159l3 -17q0 -3 -3 -3l7 -40q0 -3 -4 -3l4 -20q0 -39 9 -176h-3l3 -7v-40q0 -6 -6 -6h-149q-5 0 -10 10q0 27 -27 494h-76q-8 -7 -14 -7q-6 4 -10 4v-544q0 -7 -6 -7h-375 q-7 0 -7 7zM1052 1005h7q5 0 10 10q0 6 -17 10v-20zM1052 1463h27v4q0 6 -7 6h-20v-10zM1066 -116v-4h13v4h-13zM1066 -322v-10h3q7 0 7 7l-7 3h-3zM1089 -216q0 -96 36 -96q0 -9 47 -13q17 0 20 10q-10 0 -10 6q6 4 10 4v6q-6 0 -20 14v3h-27q-4 0 -10 10v36q0 4 4 4l-4 6 q0 43 40 43q6 -3 13 -3v10q-6 8 -6 10v3q10 0 10 7v3q-26 14 -40 14h-3q-40 0 -60 -77zM1102 1251q0 -187 67 -203q51 -29 92 -29h27l33 10v3l-23 13q0 8 23 17v10q-16 0 -16 23q-8 0 -14 -3q-13 5 -13 10q0 3 3 3q-3 6 -3 10q-23 -7 -40 -7h-16q-24 8 -24 60v33q0 9 7 20 q-3 12 -3 13q12 90 73 90q0 3 6 3q11 -6 20 -6h14v3l-4 6q4 6 4 14l-17 20l30 20q-5 0 -43 26q-24 7 -27 7h-40q-48 0 -93 -87q-16 -40 -23 -79zM1185 1267l7 4q6 -1 6 -7l-6 -3q-7 0 -7 6zM1192 -246h13v4q-3 0 -10 3zM1198 1297h10q0 -6 -6 -6zM1205 -329v-6h10q7 0 7 6 v17q-5 0 -17 -17zM1218 -116v-7h4v7h-4zM1232 -123v-86h3q10 67 10 80q-8 6 -10 6h-3zM1321 1191l7 -3q6 3 10 3q11 -7 20 -7v4q0 6 -24 13q-13 -5 -13 -10zM1351 1005q1 -6 7 -6h26l7 20l-3 6q3 6 3 13v4h-7q-4 0 -33 -33v-4zM1378 1457l6 -4l7 10v4h-10q0 -4 -3 -10z M1421 846v20q2 20 10 20h43q9 0 89 -73q17 0 80 -70v-40q0 -13 -17 -26q6 0 17 -10h3q14 23 37 23h7q47 0 96 -63q6 0 53 -36h3q-6 150 -6 278l19 17h166q26 0 33 -37v-3q0 -96 -9 -96l9 -17v-76q0 -31 -73 -43l-3 -14h37q39 -5 39 -26q0 -14 7 -37v-56q0 -17 -3 -50 q6 -1 6 -6v-10q0 -14 4 -37q-7 -13 -7 -23q0 -36 7 -143q-4 -24 -4 -59q-10 -7 -19 -7h-14q-30 0 -139 99q-17 0 -126 113q-23 3 -120 93h-10q7 -21 7 -30v-69l-3 -20q10 -34 10 -70q-7 -21 -7 -27q0 -2 3 -43q0 -15 -43 -53h-30l-73 14q-23 -7 -39 -7h-4q-23 0 -23 20 q-3 167 -3 235l-4 24q7 11 7 20q-7 0 -7 6v27q0 41 4 76l-7 76q3 18 3 34l-3 13q0 3 3 3q-6 51 -6 166zM1437 -53l7 3h153q4 0 10 -10v-36q0 -7 -44 -10l10 -223q4 -6 4 -10l-7 -3h-66q-7 0 -7 7l-10 225h-36l-7 -3q-3 0 -7 60zM1613 -53l7 3h152q10 0 10 -13h233q6 -1 6 -7 q10 -227 10 -275q4 0 4 -3l-7 -4h-226q-13 0 -16 239q-4 7 -4 10h-26l-17 -3l10 -223q4 -6 4 -10l-7 -3h-66q-7 0 -7 7l-10 225h-37l-6 -3q-3 0 -7 60zM1792 1055q10 145 40 431q0 4 -3 4q10 109 16 109q206 -20 422 -36q3 -7 3 -10q-44 -541 -50 -541l-6 -3q-25 6 -388 36 h-14q-17 0 -20 10zM1826 -212q4 0 16 -17v-96h143v50h-86q-7 0 -7 6v27q1 6 7 6h59v50h-56q-7 0 -7 7v26q1 7 7 7h86v50h-146v-97zM1829 1287q0 -149 109 -205q40 -14 63 -14h53q50 4 110 63q63 82 63 216q0 144 -113 199q-36 13 -50 13h-53q-52 0 -109 -53 q-73 -87 -73 -219zM1885 1297v57q0 3 4 3q0 3 -4 3q13 92 50 133q45 42 83 43h23q93 0 130 -166v-106q0 -106 -93 -169q-3 0 -27 -7h-43q-58 0 -106 106q-17 51 -17 103zM1928 508l7 -4v4q-3 6 -3 10h-4v-10zM1932 464h10v7l-4 17h-6v-24zM2048 -47q1 7 6 7h90q0 17 7 17 h126q6 -1 6 -7v-295q0 -7 -6 -7h-130q0 -16 -6 -16h-87q-6 0 -6 6v295zM2074 -90v-232h50v83q0 5 20 10q1 7 7 7q17 -18 53 -83h60q-44 71 -73 103q46 25 46 66q0 60 -83 60h-7q0 -14 -6 -14h-67zM2081 843q0 10 289 30q0 3 10 3q78 0 122 10h10q60 0 123 10h40l17 3v-3l6 3 h20q14 0 23 -212q10 -65 50 -564v-17q0 -14 -385 -36q-6 -4 -10 -4v4q-116 -17 -245 -20q-9 0 -70 793zM2124 -136q0 4 20 10q0 13 10 13q27 0 30 -33q0 -21 -37 -37q0 -13 -6 -13h-10q-7 0 -7 7v53zM2254 693l46 -531h3l17 4v-4q11 7 20 7h23q22 0 66 3q-6 121 -13 153l7 3 q58 -71 103 -146h23q4 0 36 7h10q28 0 83 3v7q-169 243 -169 249q32 80 126 269v3h-156q-65 -166 -76 -166h-7q0 42 -6 83l3 7l-10 63l-7 -4q-92 -3 -122 -10zM2283 972v657q1 7 7 7h199l7 3l-4 7v16q0 5 10 10h286q6 -1 6 -6v-657q0 -7 -6 -7h-289v-30q0 -7 -7 -7h-202 q-7 0 -7 7zM2320 -342q0 21 36 30q30 -10 30 -33v-3q0 -26 -33 -30q-27 0 -33 36zM2340 1029l6 -4h97q6 0 6 7v179q0 3 10 10l17 -3h3l17 3l-4 17q2 6 7 6q43 -34 106 -152q17 -24 17 -30h126v3q-99 159 -146 206q-15 6 -17 13q100 52 100 100q7 23 7 39q0 110 -133 130h-60 v-20q0 -7 -7 -7h-146l-6 -3l3 -7v-481zM2410 -66l6 3h226q6 -1 6 -7q10 -227 10 -275q4 0 4 -3l-7 -4h-226q-11 0 -19 286zM2449 1307v126q0 5 10 10h37l-4 17v10q2 6 7 6h13q63 -9 63 -59q4 0 4 -10q0 -56 -80 -77q0 -33 -10 -33h-30q-4 0 -10 10zM2453 -212q4 0 16 -17 v-96h143v50h-86q-7 0 -7 6v27q1 6 7 6h59v50h-56q-7 0 -7 7v26q1 7 7 7h86v50h-146v-97zM2675 -252q0 12 36 13q-33 34 -33 43q0 26 4 93q42 40 59 40h90q29 0 63 -57v-9q0 -60 -23 -60h-20l40 -43l-4 -24v-43q-25 -59 -66 -59h-90q-20 0 -56 49v57zM2751 -249q9 -16 14 -17 h23q5 0 10 10q-11 7 -20 7h-27zM2765 -163v-6q0 -5 10 -10h36q-7 26 -13 26h-23q-5 0 -10 -10z" />
<glyph unicode="&#xb6;" horiz-adv-x="3018" d="M110 1184v10q0 115 136 163l47 3q46 0 89 -36h3q-19 188 -26 229q-33 -7 -60 -7q-5 0 -10 10v17q0 12 140 20h3q13 0 17 -103q6 -11 43 -402v-6q1 -7 6 -7h33q13 0 37 362q6 26 17 159q6 3 10 3q46 -6 418 -36q3 -7 3 -10q-43 -501 -50 -541q-6 -3 -10 -3q-11 6 -20 6 h-23l-345 30q-16 -7 -149 -13q-4 5 -7 40q-41 -63 -123 -63h-30q-49 4 -109 63q-40 60 -40 112zM113 760q0 9 209 30q213 23 246 23q135 0 182 -83q20 -46 20 -80v-40q0 -46 -79 -119q-71 -51 -216 -70q-31 0 -43 -10q23 -209 33 -209q28 -13 53 -13h30q10 0 13 -36 q-16 -13 -119 -20q0 -4 -10 -4h-13q-210 -23 -223 -23l-10 13q0 4 4 4l-4 6v10q0 11 73 27q18 12 20 30l-59 497q-13 30 -97 30q-7 8 -10 37zM190 -315q0 99 3 272l7 3h176l6 -3q-3 -133 -3 -199v-43q0 -77 -10 -77h-173q-6 0 -6 7v40zM206 -66q4 -52 33 -269h24l20 113h6 v-4q0 -24 10 -109h20q8 0 50 269h-37q-12 -127 -20 -127h-3v4q-8 123 -16 123h-17q-13 -104 -13 -127h-7l-13 127h-37zM389 -309q20 223 26 252q196 -14 196 -23q-20 -225 -20 -245q-3 0 -3 -4q-155 14 -199 20zM392 746l33 -268v-10h4q71 0 129 53q23 26 23 89 q0 102 -73 136q-31 5 -53 10q-12 -6 -26 -6h-30zM409 -183v-29q10 -90 79 -90h17q86 16 86 123v6q0 76 -63 97q-18 3 -26 3q-80 0 -93 -110zM432 -189q0 89 60 103h16q46 0 57 -87v-33q0 -71 -57 -86h-16q-60 15 -60 103zM575 1291q0 -172 129 -216q27 -7 33 -7h63 q41 0 113 67q60 93 60 205q0 162 -130 213l-29 6h-50q-138 0 -186 -205q-3 -37 -3 -63zM618 -309q20 223 26 252q196 -14 196 -23q-20 -225 -20 -245q-3 0 -3 -4q-155 14 -199 20zM628 1311q0 180 109 219q12 6 27 6h13q65 0 103 -66q36 -61 36 -140v-43q0 -150 -106 -195 l-16 -4h-40q-42 0 -86 63q-40 71 -40 160zM638 -183v-29q10 -90 79 -90h17q86 16 86 123v6q0 76 -63 97q-18 3 -26 3q-80 0 -93 -110zM661 -189q0 89 60 103h16q46 0 57 -87v-33q0 -71 -57 -86h-16q-60 15 -60 103zM764 760q2 30 10 30h26q101 -10 123 -17h37q79 -11 79 -20 l3 -7q-66 -352 -66 -371v-23q16 -60 60 -60q18 -3 30 -3q45 0 89 46q50 276 50 292v10q-10 27 -50 43q-30 4 -30 13q0 40 20 40q18 -6 249 -33q10 -7 10 -13q-70 -402 -70 -422q0 -39 73 -53v-23q0 -23 -19 -23l-249 33q-7 11 -7 20q7 9 10 46h-7q-62 -42 -122 -49h-50 q-173 20 -173 162q0 34 47 305v10q-18 47 -53 47q-20 11 -20 20zM860 -242q0 64 83 76q17 0 43 -17v4l-10 99h-26q-7 0 -7 7v3q0 7 10 7q11 0 56 3q6 0 27 -239h16v203q1 6 7 6h166q0 -15 80 -23q3 0 10 -3q-24 -124 -24 -140q5 -13 17 -19h17q30 0 36 53q0 26 10 59 q0 19 -27 24v10l4 6q80 -10 89 -13q-23 -128 -23 -156q23 -13 23 -17v-3q0 -7 -6 -7q-66 7 -87 14l4 16v4h-4q-19 -17 -53 -17h-3q-38 0 -53 33h-3v-93q0 -6 -7 -6h-166q-7 0 -7 6v47q-41 -4 -49 -4q-4 6 -4 17q-21 -27 -59 -27h-7q-62 0 -73 87zM1019 936v584q0 4 10 10 h362l16 -4q-3 63 -6 83q11 7 20 7h332q16 0 16 -116l-6 -4h-54q-23 0 -36 -6l3 -17v-23q7 -146 7 -159l3 -17q0 -3 -3 -3l7 -40q0 -3 -4 -3l4 -20q0 -39 9 -176h-3l3 -7v-40q0 -6 -6 -6h-149q-5 0 -10 10q0 27 -27 494h-76q-8 -7 -14 -7q-6 4 -10 4v-544q0 -7 -6 -7h-375 q-7 0 -7 7zM1052 1005h7q5 0 10 10q0 6 -17 10v-20zM1052 1463h27v4q0 6 -7 6h-20v-10zM1066 -116v-4h13v4h-13zM1066 -322v-10h3q7 0 7 7l-7 3h-3zM1089 -216q0 -96 36 -96q0 -9 47 -13q17 0 20 10q-10 0 -10 6q6 4 10 4v6q-6 0 -20 14v3h-27q-4 0 -10 10v36q0 4 4 4l-4 6 q0 43 40 43q6 -3 13 -3v10q-6 8 -6 10v3q10 0 10 7v3q-26 14 -40 14h-3q-40 0 -60 -77zM1102 1251q0 -187 67 -203q51 -29 92 -29h27l33 10v3l-23 13q0 8 23 17v10q-16 0 -16 23q-8 0 -14 -3q-13 5 -13 10q0 3 3 3q-3 6 -3 10q-23 -7 -40 -7h-16q-24 8 -24 60v33q0 9 7 20 q-3 12 -3 13q12 90 73 90q0 3 6 3q11 -6 20 -6h14v3l-4 6q4 6 4 14l-17 20l30 20q-5 0 -43 26q-24 7 -27 7h-40q-48 0 -93 -87q-16 -40 -23 -79zM1185 1267l7 4q6 -1 6 -7l-6 -3q-7 0 -7 6zM1192 -246h13v4q-3 0 -10 3zM1198 1297h10q0 -6 -6 -6zM1205 -329v-6h10q7 0 7 6 v17q-5 0 -17 -17zM1218 -116v-7h4v7h-4zM1232 -123v-86h3q10 67 10 80q-8 6 -10 6h-3zM1321 1191l7 -3q6 3 10 3q11 -7 20 -7v4q0 6 -24 13q-13 -5 -13 -10zM1351 1005q1 -6 7 -6h26l7 20l-3 6q3 6 3 13v4h-7q-4 0 -33 -33v-4zM1378 1457l6 -4l7 10v4h-10q0 -4 -3 -10z M1421 846v20q2 20 10 20h43q9 0 89 -73q17 0 80 -70v-40q0 -13 -17 -26q6 0 17 -10h3q14 23 37 23h7q47 0 96 -63q6 0 53 -36h3q-6 150 -6 278l19 17h166q26 0 33 -37v-3q0 -96 -9 -96l9 -17v-76q0 -31 -73 -43l-3 -14h37q39 -5 39 -26q0 -14 7 -37v-56q0 -17 -3 -50 q6 -1 6 -6v-10q0 -14 4 -37q-7 -13 -7 -23q0 -36 7 -143q-4 -24 -4 -59q-10 -7 -19 -7h-14q-30 0 -139 99q-17 0 -126 113q-23 3 -120 93h-10q7 -21 7 -30v-69l-3 -20q10 -34 10 -70q-7 -21 -7 -27q0 -2 3 -43q0 -15 -43 -53h-30l-73 14q-23 -7 -39 -7h-4q-23 0 -23 20 q-3 167 -3 235l-4 24q7 11 7 20q-7 0 -7 6v27q0 41 4 76l-7 76q3 18 3 34l-3 13q0 3 3 3q-6 51 -6 166zM1437 -53l7 3h153q4 0 10 -10v-36q0 -7 -44 -10l10 -223q4 -6 4 -10l-7 -3h-66q-7 0 -7 7l-10 225h-36l-7 -3q-3 0 -7 60zM1613 -53l7 3h152q10 0 10 -13h233q6 -1 6 -7 q10 -227 10 -275q4 0 4 -3l-7 -4h-226q-13 0 -16 239q-4 7 -4 10h-26l-17 -3l10 -223q4 -6 4 -10l-7 -3h-66q-7 0 -7 7l-10 225h-37l-6 -3q-3 0 -7 60zM1792 1055q10 145 40 431q0 4 -3 4q10 109 16 109q206 -20 422 -36q3 -7 3 -10q-44 -541 -50 -541l-6 -3q-25 6 -388 36 h-14q-17 0 -20 10zM1826 -212q4 0 16 -17v-96h143v50h-86q-7 0 -7 6v27q1 6 7 6h59v50h-56q-7 0 -7 7v26q1 7 7 7h86v50h-146v-97zM1829 1287q0 -149 109 -205q40 -14 63 -14h53q50 4 110 63q63 82 63 216q0 144 -113 199q-36 13 -50 13h-53q-52 0 -109 -53 q-73 -87 -73 -219zM1885 1297v57q0 3 4 3q0 3 -4 3q13 92 50 133q45 42 83 43h23q93 0 130 -166v-106q0 -106 -93 -169q-3 0 -27 -7h-43q-58 0 -106 106q-17 51 -17 103zM1928 508l7 -4v4q-3 6 -3 10h-4v-10zM1932 464h10v7l-4 17h-6v-24zM2048 -47q1 7 6 7h90q0 17 7 17 h126q6 -1 6 -7v-295q0 -7 -6 -7h-130q0 -16 -6 -16h-87q-6 0 -6 6v295zM2074 -90v-232h50v83q0 5 20 10q1 7 7 7q17 -18 53 -83h60q-44 71 -73 103q46 25 46 66q0 60 -83 60h-7q0 -14 -6 -14h-67zM2081 843q0 10 289 30q0 3 10 3q78 0 122 10h10q60 0 123 10h40l17 3v-3l6 3 h20q14 0 23 -212q10 -65 50 -564v-17q0 -14 -385 -36q-6 -4 -10 -4v4q-116 -17 -245 -20q-9 0 -70 793zM2124 -136q0 4 20 10q0 13 10 13q27 0 30 -33q0 -21 -37 -37q0 -13 -6 -13h-10q-7 0 -7 7v53zM2254 693l46 -531h3l17 4v-4q11 7 20 7h23q22 0 66 3q-6 121 -13 153l7 3 q58 -71 103 -146h23q4 0 36 7h10q28 0 83 3v7q-169 243 -169 249q32 80 126 269v3h-156q-65 -166 -76 -166h-7q0 42 -6 83l3 7l-10 63l-7 -4q-92 -3 -122 -10zM2283 972v657q1 7 7 7h199l7 3l-4 7v16q0 5 10 10h286q6 -1 6 -6v-657q0 -7 -6 -7h-289v-30q0 -7 -7 -7h-202 q-7 0 -7 7zM2320 -342q0 21 36 30q30 -10 30 -33v-3q0 -26 -33 -30q-27 0 -33 36zM2340 1029l6 -4h97q6 0 6 7v179q0 3 10 10l17 -3h3l17 3l-4 17q2 6 7 6q43 -34 106 -152q17 -24 17 -30h126v3q-99 159 -146 206q-15 6 -17 13q100 52 100 100q7 23 7 39q0 110 -133 130h-60 v-20q0 -7 -7 -7h-146l-6 -3l3 -7v-481zM2410 -66l6 3h226q6 -1 6 -7q10 -227 10 -275q4 0 4 -3l-7 -4h-226q-11 0 -19 286zM2449 1307v126q0 5 10 10h37l-4 17v10q2 6 7 6h13q63 -9 63 -59q4 0 4 -10q0 -56 -80 -77q0 -33 -10 -33h-30q-4 0 -10 10zM2453 -212q4 0 16 -17 v-96h143v50h-86q-7 0 -7 6v27q1 6 7 6h59v50h-56q-7 0 -7 7v26q1 7 7 7h86v50h-146v-97zM2675 -252q0 12 36 13q-33 34 -33 43q0 26 4 93q42 40 59 40h90q29 0 63 -57v-9q0 -60 -23 -60h-20l40 -43l-4 -24v-43q-25 -59 -66 -59h-90q-20 0 -56 49v57zM2751 -249q9 -16 14 -17 h23q5 0 10 10q-11 7 -20 7h-27zM2765 -163v-6q0 -5 10 -10h36q-7 26 -13 26h-23q-5 0 -10 -10z" />
<glyph unicode="&#xb7;" horiz-adv-x="508" />
<glyph unicode="&#xb8;" horiz-adv-x="1024" />
<glyph unicode="&#xb9;" horiz-adv-x="1014" />
<glyph unicode="&#xba;" horiz-adv-x="718" />
<glyph unicode="&#xbb;" horiz-adv-x="944" />
<glyph unicode="&#xbc;" horiz-adv-x="1708" />
<glyph unicode="&#xbd;" horiz-adv-x="1964" />
<glyph unicode="&#xbe;" horiz-adv-x="1708" />
<glyph unicode="&#xbf;" horiz-adv-x="748" />
<glyph unicode="&#xc0;" d="M-178 86l3 47q1 4 86 14q77 32 118 134q345 684 345 689q4 97 8 158l7 3q62 -1 78 -2q26 -64 289 -858q25 -76 84 -104q73 -16 72 -29q3 -13 2 -27l-1 -14q-1 -6 -8 -6q-462 27 -535 33l-2 24l2 27q0 4 96 16q38 -3 49 24q1 12 -77 235l-88 7q-7 0 -6 7l4 57q2 7 7 7 l47 -4q7 0 8 10q-54 146 -52 166l5 71h-3l-149 -314l125 -9q10 -1 5 -68l-7 -3l-155 11q-42 -64 -85 -190l-2 -30q-2 -30 141 -61l-4 -51q0 -6 -7 -6l-394 29q-7 0 -6 7zM62 1529q19 76 108 76q104 0 160 -108l168 -232q0 -5 -32 -32q-11 0 -340 192q-64 43 -64 104z" />
<glyph unicode="&#xc1;" d="M-184 -252l4 56q0 5 101 16q92 38 140 159q409 810 409 816q5 115 10 188l8 3q73 -1 92 -3q31 -76 343 -1016q30 -90 99 -123q87 -20 86 -35q3 -15 1 -32l-1 -16q0 -8 -8 -7q-548 32 -635 38l-2 29l2 32q1 5 114 19q45 -3 58 28q1 15 -92 280l-103 7q-8 1 -8 9l5 68 q2 7 9 7l56 -4q8 -1 9 11q-64 174 -62 197l6 84h-4l-176 -372l148 -11q12 0 6 -80l-8 -4l-184 14q-50 -76 -101 -225l-2 -36q-3 -36 167 -73l-4 -60q-1 -8 -9 -7l-467 34q-8 1 -7 9zM455 1185q-2 11 134 367q31 70 92 80q78 -7 93 -94q17 -103 -81 -176l-201 -203 q-5 -1 -37 26z" />
<glyph unicode="&#xc2;" d="M-178 93l4 56q0 5 101 16q92 38 140 159q409 810 409 816q5 115 10 188l8 3q73 -1 92 -3q31 -76 343 -1016q30 -90 99 -123q87 -20 86 -35q3 -15 1 -32l-1 -16q0 -8 -8 -7q-548 32 -635 38l-2 29l2 32q1 5 114 19q45 -3 58 28q1 15 -92 280l-103 7q-8 1 -8 9l5 68 q2 7 9 7l56 -4q8 -1 9 11q-64 174 -62 197l6 84h-4l-176 -372l148 -11q12 0 6 -80l-8 -4l-184 14q-50 -76 -101 -225l-2 -36q-3 -36 167 -73l-4 -60q-1 -8 -9 -7l-467 34q-8 1 -7 9zM116 1111v8q354 558 368 572h108q16 -15 368 -572v-8h-156q-33 37 -264 420 q-256 -408 -268 -420h-156z" />
<glyph unicode="&#xc3;" d="M-178 93l4 56q0 5 101 16q92 38 140 159q409 810 409 816q5 115 10 188l8 3q73 -1 92 -3q31 -76 343 -1016q30 -90 99 -123q87 -20 86 -35q3 -15 1 -32l-1 -16q0 -8 -8 -7q-548 32 -635 38l-2 29l2 32q1 5 114 19q45 -3 58 28q1 15 -92 280l-103 7q-8 1 -8 9l5 68 q2 7 9 7l56 -4q8 -1 9 11q-64 174 -62 197l6 84h-4l-176 -372l148 -11q12 0 6 -80l-8 -4l-184 14q-50 -76 -101 -225l-2 -36q-3 -36 167 -73l-4 -60q-1 -8 -9 -7l-467 34q-8 1 -7 9zM240 1312q78 199 216 264q46 16 80 16h16q103 0 304 -128q37 -16 80 -16q101 0 168 164h4 q84 -28 84 -44q-124 -276 -308 -276q-99 0 -292 120q-43 21 -92 28q-104 0 -172 -164h-4q-84 27 -84 36z" />
<glyph unicode="&#xc4;" d="M-188 -47l4 56q0 5 101 16q92 38 140 159q409 810 409 816q5 115 10 188l8 3q73 -1 92 -3q31 -76 343 -1016q30 -90 99 -123q87 -20 86 -35q3 -15 1 -32l-1 -16q0 -8 -8 -7q-548 32 -635 38l-2 29l2 32q1 5 114 19q45 -3 58 28q1 15 -92 280l-103 7q-8 1 -8 9l5 68 q2 7 9 7l56 -4q8 -1 9 11q-64 174 -62 197l6 84h-4l-176 -372l148 -11q12 0 6 -80l-8 -4l-184 14q-50 -76 -101 -225l-2 -36q-3 -36 167 -73l-4 -60q-1 -8 -9 -7l-467 34q-8 1 -7 9zM39 1461v20q0 117 132 164q14 0 36 4q110 0 160 -132l4 -36q0 -112 -132 -160l-36 -4 q-121 0 -164 144zM553 1484v20q0 117 132 164q14 0 36 4q110 0 160 -132l4 -36q0 -112 -132 -160l-36 -4q-121 0 -164 144z" />
<glyph unicode="&#xc5;" d="M-178 93l4 56q0 5 101 16q92 38 140 159q409 810 409 816q5 115 10 188l8 3q73 -1 92 -3q31 -76 343 -1016q30 -90 99 -123q87 -20 86 -35q3 -15 1 -32l-1 -16q0 -8 -8 -7q-548 32 -635 38l-2 29l2 32q1 5 114 19q45 -3 58 28q1 15 -92 280l-103 7q-8 1 -8 9l5 68 q2 7 9 7l56 -4q8 -1 9 11q-64 174 -62 197l6 84h-4l-176 -372l148 -11q12 0 6 -80l-8 -4l-184 14q-50 -76 -101 -225l-2 -36q-3 -36 167 -73l-4 -60q-1 -8 -9 -7l-467 34q-8 1 -7 9zM362 1493q0 -126 123 -163l47 -8q2 0 2 2l10 -2h4q146 0 197 135q10 46 10 72 q0 119 -111 159q-35 11 -72 11h-10q-144 0 -192 -141q-8 -35 -8 -65z" />
<glyph unicode="&#xc6;" horiz-adv-x="1122" d="M-46 437q0 135 144 190q86 33 282 82v32q0 134 -29 158q-23 26 -63 26h-13q-33 0 -72 -23q23 -75 23 -95q0 -55 -69 -82q-43 -4 -49 -6q-91 0 -118 72l-3 29q0 125 288 164h23q146 0 230 -66h6q103 66 193 66q226 0 302 -161q23 -61 23 -118v-52q0 -7 -7 -7h-439v-6 q0 -275 220 -275q103 0 193 124q49 -33 49 -42q-121 -184 -321 -184q-215 0 -311 131h-7q-110 -128 -259 -128h-23q-142 0 -186 128zM193 469q0 -72 56 -91l20 -4h6q64 0 105 53v219q-105 -22 -154 -72q-33 -41 -33 -91v-14zM606 705l7 4h200v3q0 213 -89 213h-13 q-66 0 -92 -105q-13 -45 -13 -115z" />
<glyph unicode="&#xc7;" horiz-adv-x="1015" d="M31 562q-47 315 225 510q108 60 204 74l29 4q116 18 246 -26l40 43l52 8l7 -3l58 -342l-6 -4l-52 -8q-4 0 -58 101q-123 187 -276 163l-23 -3q-165 -25 -188 -273q-5 -77 10 -171l4 -29q43 -289 222 -351q54 -18 120 -8l13 2q177 26 261 244q16 3 67 -26 q-90 -282 -368 -324l-13 -2l5 -39l10 2q151 9 159 -46q8 1 16 -37q11 -77 -74 -124q-86 -33 -205 -50l-4 6l-7 45q0 7 6 7l78 12q81 12 74 54l-2 13q-5 36 -83 24l-6 -1q-7 -1 -8 6l-18 123l-3 -1q-112 -16 -274 58q-201 123 -238 369z" />
<glyph unicode="&#xc8;" horiz-adv-x="1061" d="M62 1514q23 91 130 91q125 0 192 -130l202 -279q0 -6 -38 -38q-13 0 -409 231q-77 51 -77 125zM187 487l87 -93l-5 -496l748 -7l3 264l-468 5q-8 0 -8 8l2 184q1 8 8 8l312 -3l8 -4q4 12 8 12l-4 8l2 244q-16 0 -16 4l-8 -4l-300 3q-8 0 -8 8l2 184q1 8 8 8q4 0 4 -4l8 4 l440 -4q4 -1 4 -5q8 4 12 4l2 260l-748 7l-4 -504z" />
<glyph unicode="&#xc9;" horiz-adv-x="1311" d="M36 1158q0 8 7 8l1203 54q8 -1 8 -8l66 -1478q1 -8 -7 -9l-1203 -53q-8 -1 -9 7zM233 508l87 -93l-5 -496l748 -7l3 264l-468 4q-8 0 -8 8l1 184q2 8 9 8l312 -3l7 -4q5 12 9 12l-4 8l2 244q-16 0 -16 4l-8 -3l-300 2q-8 0 -8 8l2 184q1 8 8 8q4 0 4 -4l8 4l440 -4 q4 0 4 -4q7 4 12 4l2 260l-748 7l-4 -504zM651 1237q-2 10 134 367q31 70 92 80q78 -7 92 -94q17 -103 -80 -176l-202 -204q-4 0 -36 27z" />
<glyph unicode="&#xca;" horiz-adv-x="1005" d="M24 308l87 -93l-5 -496l748 -7l3 264l-468 5q-8 0 -8 8l2 184q1 8 8 8l312 -3l8 -4q4 12 8 12l-4 8l2 244q-16 0 -16 4l-8 -4l-300 3q-8 0 -8 8l2 184q1 8 8 8q4 0 4 -4l8 4l440 -4q4 -1 4 -5q8 4 12 4l2 260l-748 7l-4 -504zM55 1006v8q354 558 368 572h108 q16 -15 368 -572v-8h-156q-33 37 -264 420q-256 -408 -268 -420h-156z" />
<glyph unicode="&#xcb;" horiz-adv-x="1005" d="M24 308l87 -93l-5 -496l748 -7l3 264l-468 5q-8 0 -8 8l2 184q1 8 8 8l312 -3l8 -4q4 12 8 12l-4 8l2 244q-16 0 -16 4l-8 -4l-300 3q-8 0 -8 8l2 184q1 8 8 8q4 0 4 -4l8 4l440 -4q4 -1 4 -5q8 4 12 4l2 260l-748 7l-4 -504zM71 1139v20q0 117 132 164q14 0 36 4 q110 0 160 -132l4 -36q0 -112 -132 -160l-36 -4q-121 0 -164 144zM585 1162v20q0 117 132 164q14 0 36 4q110 0 160 -132l4 -36q0 -112 -132 -160l-36 -4q-121 0 -164 144z" />
<glyph unicode="&#xcc;" horiz-adv-x="566" d="M-182 1438q19 76 108 76q104 0 160 -108l168 -232q0 -5 -32 -32q-11 0 -340 192q-64 43 -64 104zM24 891q-8 51 41 75q115 59 148 64q130 21 148 -94l1 -4q10 -62 -26 -421q-11 -112 -5 -147l3 -19q10 -64 73 -53l28 4q48 12 82 17q8 -49 -33 -70q-113 -59 -168 -67 q-100 -16 -138 79q0 3 -8 23q0 78 34 500q3 31 0 77q-11 71 -74 61l-4 -1q-51 -8 -97 -31z" />
<glyph unicode="&#xcd;" horiz-adv-x="566" d="M24 891q-8 51 41 75q115 59 148 64q130 21 148 -94l1 -4q10 -62 -26 -421q-11 -112 -5 -147l3 -19q10 -64 73 -53l28 4q48 12 82 17q8 -49 -33 -70q-113 -59 -168 -67q-100 -16 -138 79q0 3 -8 23q0 78 34 500q3 31 0 77q-11 71 -74 61l-4 -1q-51 -8 -97 -31zM68 1162 q-2 11 134 367q31 70 92 80q78 -7 93 -94q17 -103 -81 -176l-201 -203q-5 -1 -37 26z" />
<glyph unicode="&#xce;" horiz-adv-x="960" d="M45 1058v8q354 558 368 572h108q16 -15 368 -572v-8h-156q-33 37 -264 420q-256 -408 -268 -420h-156zM213 855q-8 51 41 75q115 59 148 64q130 21 148 -94l1 -4q10 -62 -26 -421q-11 -112 -5 -147l3 -19q10 -64 73 -53l28 4q48 12 82 17q8 -49 -33 -70 q-113 -59 -168 -67q-100 -16 -138 79q0 3 -8 23q0 78 34 500q3 31 0 77q-11 71 -74 61l-4 -1q-51 -8 -97 -31z" />
<glyph unicode="&#xcf;" horiz-adv-x="566" d="M7 1283q8 110 86 123q110 -3 122 -82l4 -24q-8 -106 -78 -117l-20 -4q-98 6 -113 96zM24 891q-8 51 41 75q115 59 148 64q130 21 148 -94l1 -4q10 -62 -26 -421q-11 -112 -5 -147l3 -19q10 -64 73 -53l28 4q48 12 82 17q8 -49 -33 -70q-113 -59 -168 -67 q-100 -16 -138 79q0 3 -8 23q0 78 34 500q3 31 0 77q-11 71 -74 61l-4 -1q-51 -8 -97 -31zM299 1266v20q0 117 132 164q14 0 36 4q110 0 160 -132l4 -36q0 -112 -132 -160l-36 -4q-121 0 -164 144z" />
<glyph unicode="&#xd0;" horiz-adv-x="3018" d="M110 1184v10q0 115 136 163l47 3q46 0 89 -36h3q-19 188 -26 229q-33 -7 -60 -7q-5 0 -10 10v17q0 12 140 20h3q13 0 17 -103q6 -11 43 -402v-6q1 -7 6 -7h33q13 0 37 362q6 26 17 159q6 3 10 3q46 -6 418 -36q3 -7 3 -10q-43 -501 -50 -541q-6 -3 -10 -3q-11 6 -20 6 h-23l-345 30q-16 -7 -149 -13q-4 5 -7 40q-41 -63 -123 -63h-30q-49 4 -109 63q-40 60 -40 112zM113 760q0 9 209 30q213 23 246 23q135 0 182 -83q20 -46 20 -80v-40q0 -46 -79 -119q-71 -51 -216 -70q-31 0 -43 -10q23 -209 33 -209q28 -13 53 -13h30q10 0 13 -36 q-16 -13 -119 -20q0 -4 -10 -4h-13q-210 -23 -223 -23l-10 13q0 4 4 4l-4 6v10q0 11 73 27q18 12 20 30l-59 497q-13 30 -97 30q-7 8 -10 37zM190 -315q0 99 3 272l7 3h176l6 -3q-3 -133 -3 -199v-43q0 -77 -10 -77h-173q-6 0 -6 7v40zM206 -66q4 -52 33 -269h24l20 113h6 v-4q0 -24 10 -109h20q8 0 50 269h-37q-12 -127 -20 -127h-3v4q-8 123 -16 123h-17q-13 -104 -13 -127h-7l-13 127h-37zM389 -309q20 223 26 252q196 -14 196 -23q-20 -225 -20 -245q-3 0 -3 -4q-155 14 -199 20zM392 746l33 -268v-10h4q71 0 129 53q23 26 23 89 q0 102 -73 136q-31 5 -53 10q-12 -6 -26 -6h-30zM409 -183v-29q10 -90 79 -90h17q86 16 86 123v6q0 76 -63 97q-18 3 -26 3q-80 0 -93 -110zM432 -189q0 89 60 103h16q46 0 57 -87v-33q0 -71 -57 -86h-16q-60 15 -60 103zM575 1291q0 -172 129 -216q27 -7 33 -7h63 q41 0 113 67q60 93 60 205q0 162 -130 213l-29 6h-50q-138 0 -186 -205q-3 -37 -3 -63zM618 -309q20 223 26 252q196 -14 196 -23q-20 -225 -20 -245q-3 0 -3 -4q-155 14 -199 20zM628 1311q0 180 109 219q12 6 27 6h13q65 0 103 -66q36 -61 36 -140v-43q0 -150 -106 -195 l-16 -4h-40q-42 0 -86 63q-40 71 -40 160zM638 -183v-29q10 -90 79 -90h17q86 16 86 123v6q0 76 -63 97q-18 3 -26 3q-80 0 -93 -110zM661 -189q0 89 60 103h16q46 0 57 -87v-33q0 -71 -57 -86h-16q-60 15 -60 103zM764 760q2 30 10 30h26q101 -10 123 -17h37q79 -11 79 -20 l3 -7q-66 -352 -66 -371v-23q16 -60 60 -60q18 -3 30 -3q45 0 89 46q50 276 50 292v10q-10 27 -50 43q-30 4 -30 13q0 40 20 40q18 -6 249 -33q10 -7 10 -13q-70 -402 -70 -422q0 -39 73 -53v-23q0 -23 -19 -23l-249 33q-7 11 -7 20q7 9 10 46h-7q-62 -42 -122 -49h-50 q-173 20 -173 162q0 34 47 305v10q-18 47 -53 47q-20 11 -20 20zM860 -242q0 64 83 76q17 0 43 -17v4l-10 99h-26q-7 0 -7 7v3q0 7 10 7q11 0 56 3q6 0 27 -239h16v203q1 6 7 6h166q0 -15 80 -23q3 0 10 -3q-24 -124 -24 -140q5 -13 17 -19h17q30 0 36 53q0 26 10 59 q0 19 -27 24v10l4 6q80 -10 89 -13q-23 -128 -23 -156q23 -13 23 -17v-3q0 -7 -6 -7q-66 7 -87 14l4 16v4h-4q-19 -17 -53 -17h-3q-38 0 -53 33h-3v-93q0 -6 -7 -6h-166q-7 0 -7 6v47q-41 -4 -49 -4q-4 6 -4 17q-21 -27 -59 -27h-7q-62 0 -73 87zM1019 936v584q0 4 10 10 h362l16 -4q-3 63 -6 83q11 7 20 7h332q16 0 16 -116l-6 -4h-54q-23 0 -36 -6l3 -17v-23q7 -146 7 -159l3 -17q0 -3 -3 -3l7 -40q0 -3 -4 -3l4 -20q0 -39 9 -176h-3l3 -7v-40q0 -6 -6 -6h-149q-5 0 -10 10q0 27 -27 494h-76q-8 -7 -14 -7q-6 4 -10 4v-544q0 -7 -6 -7h-375 q-7 0 -7 7zM1052 1005h7q5 0 10 10q0 6 -17 10v-20zM1052 1463h27v4q0 6 -7 6h-20v-10zM1066 -116v-4h13v4h-13zM1066 -322v-10h3q7 0 7 7l-7 3h-3zM1089 -216q0 -96 36 -96q0 -9 47 -13q17 0 20 10q-10 0 -10 6q6 4 10 4v6q-6 0 -20 14v3h-27q-4 0 -10 10v36q0 4 4 4l-4 6 q0 43 40 43q6 -3 13 -3v10q-6 8 -6 10v3q10 0 10 7v3q-26 14 -40 14h-3q-40 0 -60 -77zM1102 1251q0 -187 67 -203q51 -29 92 -29h27l33 10v3l-23 13q0 8 23 17v10q-16 0 -16 23q-8 0 -14 -3q-13 5 -13 10q0 3 3 3q-3 6 -3 10q-23 -7 -40 -7h-16q-24 8 -24 60v33q0 9 7 20 q-3 12 -3 13q12 90 73 90q0 3 6 3q11 -6 20 -6h14v3l-4 6q4 6 4 14l-17 20l30 20q-5 0 -43 26q-24 7 -27 7h-40q-48 0 -93 -87q-16 -40 -23 -79zM1185 1267l7 4q6 -1 6 -7l-6 -3q-7 0 -7 6zM1192 -246h13v4q-3 0 -10 3zM1198 1297h10q0 -6 -6 -6zM1205 -329v-6h10q7 0 7 6 v17q-5 0 -17 -17zM1218 -116v-7h4v7h-4zM1232 -123v-86h3q10 67 10 80q-8 6 -10 6h-3zM1321 1191l7 -3q6 3 10 3q11 -7 20 -7v4q0 6 -24 13q-13 -5 -13 -10zM1351 1005q1 -6 7 -6h26l7 20l-3 6q3 6 3 13v4h-7q-4 0 -33 -33v-4zM1378 1457l6 -4l7 10v4h-10q0 -4 -3 -10z M1421 846v20q2 20 10 20h43q9 0 89 -73q17 0 80 -70v-40q0 -13 -17 -26q6 0 17 -10h3q14 23 37 23h7q47 0 96 -63q6 0 53 -36h3q-6 150 -6 278l19 17h166q26 0 33 -37v-3q0 -96 -9 -96l9 -17v-76q0 -31 -73 -43l-3 -14h37q39 -5 39 -26q0 -14 7 -37v-56q0 -17 -3 -50 q6 -1 6 -6v-10q0 -14 4 -37q-7 -13 -7 -23q0 -36 7 -143q-4 -24 -4 -59q-10 -7 -19 -7h-14q-30 0 -139 99q-17 0 -126 113q-23 3 -120 93h-10q7 -21 7 -30v-69l-3 -20q10 -34 10 -70q-7 -21 -7 -27q0 -2 3 -43q0 -15 -43 -53h-30l-73 14q-23 -7 -39 -7h-4q-23 0 -23 20 q-3 167 -3 235l-4 24q7 11 7 20q-7 0 -7 6v27q0 41 4 76l-7 76q3 18 3 34l-3 13q0 3 3 3q-6 51 -6 166zM1437 -53l7 3h153q4 0 10 -10v-36q0 -7 -44 -10l10 -223q4 -6 4 -10l-7 -3h-66q-7 0 -7 7l-10 225h-36l-7 -3q-3 0 -7 60zM1613 -53l7 3h152q10 0 10 -13h233q6 -1 6 -7 q10 -227 10 -275q4 0 4 -3l-7 -4h-226q-13 0 -16 239q-4 7 -4 10h-26l-17 -3l10 -223q4 -6 4 -10l-7 -3h-66q-7 0 -7 7l-10 225h-37l-6 -3q-3 0 -7 60zM1792 1055q10 145 40 431q0 4 -3 4q10 109 16 109q206 -20 422 -36q3 -7 3 -10q-44 -541 -50 -541l-6 -3q-25 6 -388 36 h-14q-17 0 -20 10zM1826 -212q4 0 16 -17v-96h143v50h-86q-7 0 -7 6v27q1 6 7 6h59v50h-56q-7 0 -7 7v26q1 7 7 7h86v50h-146v-97zM1829 1287q0 -149 109 -205q40 -14 63 -14h53q50 4 110 63q63 82 63 216q0 144 -113 199q-36 13 -50 13h-53q-52 0 -109 -53 q-73 -87 -73 -219zM1885 1297v57q0 3 4 3q0 3 -4 3q13 92 50 133q45 42 83 43h23q93 0 130 -166v-106q0 -106 -93 -169q-3 0 -27 -7h-43q-58 0 -106 106q-17 51 -17 103zM1928 508l7 -4v4q-3 6 -3 10h-4v-10zM1932 464h10v7l-4 17h-6v-24zM2048 -47q1 7 6 7h90q0 17 7 17 h126q6 -1 6 -7v-295q0 -7 -6 -7h-130q0 -16 -6 -16h-87q-6 0 -6 6v295zM2074 -90v-232h50v83q0 5 20 10q1 7 7 7q17 -18 53 -83h60q-44 71 -73 103q46 25 46 66q0 60 -83 60h-7q0 -14 -6 -14h-67zM2081 843q0 10 289 30q0 3 10 3q78 0 122 10h10q60 0 123 10h40l17 3v-3l6 3 h20q14 0 23 -212q10 -65 50 -564v-17q0 -14 -385 -36q-6 -4 -10 -4v4q-116 -17 -245 -20q-9 0 -70 793zM2124 -136q0 4 20 10q0 13 10 13q27 0 30 -33q0 -21 -37 -37q0 -13 -6 -13h-10q-7 0 -7 7v53zM2254 693l46 -531h3l17 4v-4q11 7 20 7h23q22 0 66 3q-6 121 -13 153l7 3 q58 -71 103 -146h23q4 0 36 7h10q28 0 83 3v7q-169 243 -169 249q32 80 126 269v3h-156q-65 -166 -76 -166h-7q0 42 -6 83l3 7l-10 63l-7 -4q-92 -3 -122 -10zM2283 972v657q1 7 7 7h199l7 3l-4 7v16q0 5 10 10h286q6 -1 6 -6v-657q0 -7 -6 -7h-289v-30q0 -7 -7 -7h-202 q-7 0 -7 7zM2320 -342q0 21 36 30q30 -10 30 -33v-3q0 -26 -33 -30q-27 0 -33 36zM2340 1029l6 -4h97q6 0 6 7v179q0 3 10 10l17 -3h3l17 3l-4 17q2 6 7 6q43 -34 106 -152q17 -24 17 -30h126v3q-99 159 -146 206q-15 6 -17 13q100 52 100 100q7 23 7 39q0 110 -133 130h-60 v-20q0 -7 -7 -7h-146l-6 -3l3 -7v-481zM2410 -66l6 3h226q6 -1 6 -7q10 -227 10 -275q4 0 4 -3l-7 -4h-226q-11 0 -19 286zM2449 1307v126q0 5 10 10h37l-4 17v10q2 6 7 6h13q63 -9 63 -59q4 0 4 -10q0 -56 -80 -77q0 -33 -10 -33h-30q-4 0 -10 10zM2453 -212q4 0 16 -17 v-96h143v50h-86q-7 0 -7 6v27q1 6 7 6h59v50h-56q-7 0 -7 7v26q1 7 7 7h86v50h-146v-97zM2675 -252q0 12 36 13q-33 34 -33 43q0 26 4 93q42 40 59 40h90q29 0 63 -57v-9q0 -60 -23 -60h-20l40 -43l-4 -24v-43q-25 -59 -66 -59h-90q-20 0 -56 49v57zM2751 -249q9 -16 14 -17 h23q5 0 10 10q-11 7 -20 7h-27zM2765 -163v-6q0 -5 10 -10h36q-7 26 -13 26h-23q-5 0 -10 -10z" />
<glyph unicode="&#xd1;" horiz-adv-x="1158" d="M-46 1610q4 12 23 12q115 -8 133 -12l78 8q16 0 43 -4q119 4 207 4h39q212 -19 499 -31q24 0 24 -47q-8 -161 -8 -199v-27q0 -6 -12 -12h-16q-44 0 -82 4q-27 -4 -46 -4q-73 16 -110 16h-15q-27 0 -47 -4l-19 4q-105 -4 -168 -4h-12q-88 -8 -94 -8h-7q-52 0 -199 20 q-64 -4 -125 -4h-27q-24 0 -24 191v82q-30 0 -35 15zM63 974v114q0 70 16 70l300 15q24 -45 70 -261q41 -254 55 -254q0 14 258 449q45 89 54 94q180 -11 180 -28q10 -59 15 -401q20 -132 43 -437q24 -106 59 -234v-16q-10 -98 -20 -98h-74q-9 0 -16 4q-158 -27 -206 -27 h-16q-16 0 -31 343v20q-87 -104 -219 -340l-7 -3h-110q-281 0 -281 19q-70 509 -70 971z" />
<glyph unicode="&#xd2;" horiz-adv-x="1171" d="M24 -50l114 1292q1 7 7 7l1005 -89q7 -1 6 -7l-113 -1293q-1 -6 -8 -6l-1004 89q-7 0 -7 7zM62 1529q19 76 108 76q104 0 160 -108l168 -232q0 -5 -32 -32q-11 0 -340 192q-64 43 -64 104zM105 515q0 -399 299 -517l116 -24q4 0 4 5l25 -5h9q355 0 478 426q24 147 24 230 q0 373 -270 502q-84 34 -174 34h-24q-350 0 -468 -445q-19 -112 -19 -206zM244 563q0 410 227 521q60 20 102 20h19q239 0 319 -369q9 -98 9 -177q0 -376 -217 -497q-63 -20 -121 -24v4q-5 0 -5 -4q-202 0 -299 277q-34 126 -34 249z" />
<glyph unicode="&#xd3;" horiz-adv-x="1171" d="M102 514q0 -399 299 -517l116 -24q4 0 4 5l25 -5h9q355 0 478 426q24 147 24 230q0 373 -270 502q-84 34 -174 34h-24q-350 0 -468 -445q-19 -112 -19 -206zM241 562q0 410 227 521q60 20 102 20h19q239 0 319 -369q9 -98 9 -177q0 -376 -217 -497q-63 -20 -121 -24v4 q-5 0 -5 -4q-202 0 -299 277q-34 126 -34 249zM686 1205q-2 11 134 367q31 70 92 80q78 -7 93 -94q17 -103 -81 -176l-201 -203q-5 -1 -37 26z" />
<glyph unicode="&#xd4;" horiz-adv-x="1171" d="M53 -229l114 1292q1 7 7 7l1005 -89q7 -1 6 -7l-113 -1293q-1 -6 -8 -6l-1004 89q-7 0 -7 7zM134 336q0 -399 299 -517l116 -24q4 0 4 5l25 -5h9q355 0 478 426q24 147 24 230q0 373 -270 502q-84 34 -174 34h-24q-350 0 -468 -445q-19 -112 -19 -206zM238 1113v8 q354 558 368 572h108q16 -15 368 -572v-8h-156q-33 37 -264 420q-256 -408 -268 -420h-156zM273 384q0 410 227 521q60 20 102 20h19q239 0 319 -369q9 -98 9 -177q0 -376 -217 -497q-63 -20 -121 -24v4q-5 0 -5 -4q-202 0 -299 277q-34 126 -34 249z" />
<glyph unicode="&#xd5;" horiz-adv-x="1171" d="M53 -204l114 1292q1 7 7 7l1005 -89q7 -1 6 -7l-113 -1293q-1 -6 -8 -6l-1004 89q-7 0 -7 7zM134 361q0 -399 299 -517l116 -24q4 0 4 5l25 -5h9q355 0 478 426q24 147 24 230q0 373 -270 502q-84 34 -174 34h-24q-350 0 -468 -445q-19 -112 -19 -206zM149 1294 q78 199 216 264q46 16 80 16h16q103 0 304 -128q37 -16 80 -16q101 0 168 164h4q84 -28 84 -44q-124 -276 -308 -276q-99 0 -292 120q-43 21 -92 28q-104 0 -172 -164h-4q-84 27 -84 36zM273 409q0 410 227 521q60 20 102 20h19q239 0 319 -369q9 -98 9 -177 q0 -376 -217 -497q-63 -20 -121 -24v4q-5 0 -5 -4q-202 0 -299 277q-34 126 -34 249z" />
<glyph unicode="&#xd6;" horiz-adv-x="1171" d="M27 213l114 1292q1 7 7 7l1005 -89q7 -1 6 -7l-113 -1293q-1 -6 -8 -6l-1004 89q-7 0 -7 7zM108 778q0 -399 299 -517l116 -24q4 0 4 5l25 -5h9q355 0 478 426q24 147 24 230q0 373 -270 502q-84 34 -174 34h-24q-350 0 -468 -445q-19 -112 -19 -206zM247 826 q0 410 227 521q60 20 102 20h19q239 0 319 -369q9 -98 9 -177q0 -376 -217 -497q-63 -20 -121 -24v4q-5 0 -5 -4q-202 0 -299 277q-34 126 -34 249z" />
<glyph unicode="&#xd7;" horiz-adv-x="3018" d="M110 1184v10q0 115 136 163l47 3q46 0 89 -36h3q-19 188 -26 229q-33 -7 -60 -7q-5 0 -10 10v17q0 12 140 20h3q13 0 17 -103q6 -11 43 -402v-6q1 -7 6 -7h33q13 0 37 362q6 26 17 159q6 3 10 3q46 -6 418 -36q3 -7 3 -10q-43 -501 -50 -541q-6 -3 -10 -3q-11 6 -20 6 h-23l-345 30q-16 -7 -149 -13q-4 5 -7 40q-41 -63 -123 -63h-30q-49 4 -109 63q-40 60 -40 112zM113 760q0 9 209 30q213 23 246 23q135 0 182 -83q20 -46 20 -80v-40q0 -46 -79 -119q-71 -51 -216 -70q-31 0 -43 -10q23 -209 33 -209q28 -13 53 -13h30q10 0 13 -36 q-16 -13 -119 -20q0 -4 -10 -4h-13q-210 -23 -223 -23l-10 13q0 4 4 4l-4 6v10q0 11 73 27q18 12 20 30l-59 497q-13 30 -97 30q-7 8 -10 37zM190 -315q0 99 3 272l7 3h176l6 -3q-3 -133 -3 -199v-43q0 -77 -10 -77h-173q-6 0 -6 7v40zM206 -66q4 -52 33 -269h24l20 113h6 v-4q0 -24 10 -109h20q8 0 50 269h-37q-12 -127 -20 -127h-3v4q-8 123 -16 123h-17q-13 -104 -13 -127h-7l-13 127h-37zM389 -309q20 223 26 252q196 -14 196 -23q-20 -225 -20 -245q-3 0 -3 -4q-155 14 -199 20zM392 746l33 -268v-10h4q71 0 129 53q23 26 23 89 q0 102 -73 136q-31 5 -53 10q-12 -6 -26 -6h-30zM409 -183v-29q10 -90 79 -90h17q86 16 86 123v6q0 76 -63 97q-18 3 -26 3q-80 0 -93 -110zM432 -189q0 89 60 103h16q46 0 57 -87v-33q0 -71 -57 -86h-16q-60 15 -60 103zM575 1291q0 -172 129 -216q27 -7 33 -7h63 q41 0 113 67q60 93 60 205q0 162 -130 213l-29 6h-50q-138 0 -186 -205q-3 -37 -3 -63zM618 -309q20 223 26 252q196 -14 196 -23q-20 -225 -20 -245q-3 0 -3 -4q-155 14 -199 20zM628 1311q0 180 109 219q12 6 27 6h13q65 0 103 -66q36 -61 36 -140v-43q0 -150 -106 -195 l-16 -4h-40q-42 0 -86 63q-40 71 -40 160zM638 -183v-29q10 -90 79 -90h17q86 16 86 123v6q0 76 -63 97q-18 3 -26 3q-80 0 -93 -110zM661 -189q0 89 60 103h16q46 0 57 -87v-33q0 -71 -57 -86h-16q-60 15 -60 103zM764 760q2 30 10 30h26q101 -10 123 -17h37q79 -11 79 -20 l3 -7q-66 -352 -66 -371v-23q16 -60 60 -60q18 -3 30 -3q45 0 89 46q50 276 50 292v10q-10 27 -50 43q-30 4 -30 13q0 40 20 40q18 -6 249 -33q10 -7 10 -13q-70 -402 -70 -422q0 -39 73 -53v-23q0 -23 -19 -23l-249 33q-7 11 -7 20q7 9 10 46h-7q-62 -42 -122 -49h-50 q-173 20 -173 162q0 34 47 305v10q-18 47 -53 47q-20 11 -20 20zM860 -242q0 64 83 76q17 0 43 -17v4l-10 99h-26q-7 0 -7 7v3q0 7 10 7q11 0 56 3q6 0 27 -239h16v203q1 6 7 6h166q0 -15 80 -23q3 0 10 -3q-24 -124 -24 -140q5 -13 17 -19h17q30 0 36 53q0 26 10 59 q0 19 -27 24v10l4 6q80 -10 89 -13q-23 -128 -23 -156q23 -13 23 -17v-3q0 -7 -6 -7q-66 7 -87 14l4 16v4h-4q-19 -17 -53 -17h-3q-38 0 -53 33h-3v-93q0 -6 -7 -6h-166q-7 0 -7 6v47q-41 -4 -49 -4q-4 6 -4 17q-21 -27 -59 -27h-7q-62 0 -73 87zM1019 936v584q0 4 10 10 h362l16 -4q-3 63 -6 83q11 7 20 7h332q16 0 16 -116l-6 -4h-54q-23 0 -36 -6l3 -17v-23q7 -146 7 -159l3 -17q0 -3 -3 -3l7 -40q0 -3 -4 -3l4 -20q0 -39 9 -176h-3l3 -7v-40q0 -6 -6 -6h-149q-5 0 -10 10q0 27 -27 494h-76q-8 -7 -14 -7q-6 4 -10 4v-544q0 -7 -6 -7h-375 q-7 0 -7 7zM1052 1005h7q5 0 10 10q0 6 -17 10v-20zM1052 1463h27v4q0 6 -7 6h-20v-10zM1066 -116v-4h13v4h-13zM1066 -322v-10h3q7 0 7 7l-7 3h-3zM1089 -216q0 -96 36 -96q0 -9 47 -13q17 0 20 10q-10 0 -10 6q6 4 10 4v6q-6 0 -20 14v3h-27q-4 0 -10 10v36q0 4 4 4l-4 6 q0 43 40 43q6 -3 13 -3v10q-6 8 -6 10v3q10 0 10 7v3q-26 14 -40 14h-3q-40 0 -60 -77zM1102 1251q0 -187 67 -203q51 -29 92 -29h27l33 10v3l-23 13q0 8 23 17v10q-16 0 -16 23q-8 0 -14 -3q-13 5 -13 10q0 3 3 3q-3 6 -3 10q-23 -7 -40 -7h-16q-24 8 -24 60v33q0 9 7 20 q-3 12 -3 13q12 90 73 90q0 3 6 3q11 -6 20 -6h14v3l-4 6q4 6 4 14l-17 20l30 20q-5 0 -43 26q-24 7 -27 7h-40q-48 0 -93 -87q-16 -40 -23 -79zM1185 1267l7 4q6 -1 6 -7l-6 -3q-7 0 -7 6zM1192 -246h13v4q-3 0 -10 3zM1198 1297h10q0 -6 -6 -6zM1205 -329v-6h10q7 0 7 6 v17q-5 0 -17 -17zM1218 -116v-7h4v7h-4zM1232 -123v-86h3q10 67 10 80q-8 6 -10 6h-3zM1321 1191l7 -3q6 3 10 3q11 -7 20 -7v4q0 6 -24 13q-13 -5 -13 -10zM1351 1005q1 -6 7 -6h26l7 20l-3 6q3 6 3 13v4h-7q-4 0 -33 -33v-4zM1378 1457l6 -4l7 10v4h-10q0 -4 -3 -10z M1421 846v20q2 20 10 20h43q9 0 89 -73q17 0 80 -70v-40q0 -13 -17 -26q6 0 17 -10h3q14 23 37 23h7q47 0 96 -63q6 0 53 -36h3q-6 150 -6 278l19 17h166q26 0 33 -37v-3q0 -96 -9 -96l9 -17v-76q0 -31 -73 -43l-3 -14h37q39 -5 39 -26q0 -14 7 -37v-56q0 -17 -3 -50 q6 -1 6 -6v-10q0 -14 4 -37q-7 -13 -7 -23q0 -36 7 -143q-4 -24 -4 -59q-10 -7 -19 -7h-14q-30 0 -139 99q-17 0 -126 113q-23 3 -120 93h-10q7 -21 7 -30v-69l-3 -20q10 -34 10 -70q-7 -21 -7 -27q0 -2 3 -43q0 -15 -43 -53h-30l-73 14q-23 -7 -39 -7h-4q-23 0 -23 20 q-3 167 -3 235l-4 24q7 11 7 20q-7 0 -7 6v27q0 41 4 76l-7 76q3 18 3 34l-3 13q0 3 3 3q-6 51 -6 166zM1437 -53l7 3h153q4 0 10 -10v-36q0 -7 -44 -10l10 -223q4 -6 4 -10l-7 -3h-66q-7 0 -7 7l-10 225h-36l-7 -3q-3 0 -7 60zM1613 -53l7 3h152q10 0 10 -13h233q6 -1 6 -7 q10 -227 10 -275q4 0 4 -3l-7 -4h-226q-13 0 -16 239q-4 7 -4 10h-26l-17 -3l10 -223q4 -6 4 -10l-7 -3h-66q-7 0 -7 7l-10 225h-37l-6 -3q-3 0 -7 60zM1792 1055q10 145 40 431q0 4 -3 4q10 109 16 109q206 -20 422 -36q3 -7 3 -10q-44 -541 -50 -541l-6 -3q-25 6 -388 36 h-14q-17 0 -20 10zM1826 -212q4 0 16 -17v-96h143v50h-86q-7 0 -7 6v27q1 6 7 6h59v50h-56q-7 0 -7 7v26q1 7 7 7h86v50h-146v-97zM1829 1287q0 -149 109 -205q40 -14 63 -14h53q50 4 110 63q63 82 63 216q0 144 -113 199q-36 13 -50 13h-53q-52 0 -109 -53 q-73 -87 -73 -219zM1885 1297v57q0 3 4 3q0 3 -4 3q13 92 50 133q45 42 83 43h23q93 0 130 -166v-106q0 -106 -93 -169q-3 0 -27 -7h-43q-58 0 -106 106q-17 51 -17 103zM1928 508l7 -4v4q-3 6 -3 10h-4v-10zM1932 464h10v7l-4 17h-6v-24zM2048 -47q1 7 6 7h90q0 17 7 17 h126q6 -1 6 -7v-295q0 -7 -6 -7h-130q0 -16 -6 -16h-87q-6 0 -6 6v295zM2074 -90v-232h50v83q0 5 20 10q1 7 7 7q17 -18 53 -83h60q-44 71 -73 103q46 25 46 66q0 60 -83 60h-7q0 -14 -6 -14h-67zM2081 843q0 10 289 30q0 3 10 3q78 0 122 10h10q60 0 123 10h40l17 3v-3l6 3 h20q14 0 23 -212q10 -65 50 -564v-17q0 -14 -385 -36q-6 -4 -10 -4v4q-116 -17 -245 -20q-9 0 -70 793zM2124 -136q0 4 20 10q0 13 10 13q27 0 30 -33q0 -21 -37 -37q0 -13 -6 -13h-10q-7 0 -7 7v53zM2254 693l46 -531h3l17 4v-4q11 7 20 7h23q22 0 66 3q-6 121 -13 153l7 3 q58 -71 103 -146h23q4 0 36 7h10q28 0 83 3v7q-169 243 -169 249q32 80 126 269v3h-156q-65 -166 -76 -166h-7q0 42 -6 83l3 7l-10 63l-7 -4q-92 -3 -122 -10zM2283 972v657q1 7 7 7h199l7 3l-4 7v16q0 5 10 10h286q6 -1 6 -6v-657q0 -7 -6 -7h-289v-30q0 -7 -7 -7h-202 q-7 0 -7 7zM2320 -342q0 21 36 30q30 -10 30 -33v-3q0 -26 -33 -30q-27 0 -33 36zM2340 1029l6 -4h97q6 0 6 7v179q0 3 10 10l17 -3h3l17 3l-4 17q2 6 7 6q43 -34 106 -152q17 -24 17 -30h126v3q-99 159 -146 206q-15 6 -17 13q100 52 100 100q7 23 7 39q0 110 -133 130h-60 v-20q0 -7 -7 -7h-146l-6 -3l3 -7v-481zM2410 -66l6 3h226q6 -1 6 -7q10 -227 10 -275q4 0 4 -3l-7 -4h-226q-11 0 -19 286zM2449 1307v126q0 5 10 10h37l-4 17v10q2 6 7 6h13q63 -9 63 -59q4 0 4 -10q0 -56 -80 -77q0 -33 -10 -33h-30q-4 0 -10 10zM2453 -212q4 0 16 -17 v-96h143v50h-86q-7 0 -7 6v27q1 6 7 6h59v50h-56q-7 0 -7 7v26q1 7 7 7h86v50h-146v-97zM2675 -252q0 12 36 13q-33 34 -33 43q0 26 4 93q42 40 59 40h90q29 0 63 -57v-9q0 -60 -23 -60h-20l40 -43l-4 -24v-43q-25 -59 -66 -59h-90q-20 0 -56 49v57zM2751 -249q9 -16 14 -17 h23q5 0 10 10q-11 7 -20 7h-27zM2765 -163v-6q0 -5 10 -10h36q-7 26 -13 26h-23q-5 0 -10 -10z" />
<glyph unicode="&#xd8;" horiz-adv-x="1168" d="M74 845q55 111 123 189q128 146 302 197l-16 242q8 9 88 10l16 -236q216 2 343 -109l-3 -3l10 -3q274 -240 144 -589q-35 -76 -122 -189q-116 -133 -303 -191q23 -248 20 -252q-5 -5 -85 -6l-4 3q2 3 -16 243q-214 -4 -360 124q-259 226 -137 570zM256 982 q-141 -161 181 -442q20 -18 118 -98q0 60 -44 563q-60 52 -176 31q-43 -14 -79 -54zM600 958l47 -565l7 -7q46 -40 179 -27q53 31 72 54q141 161 -198 457l-34 31q-23 20 -73 57z" />
<glyph unicode="&#xd9;" horiz-adv-x="1067" d="M-47 1193l10 54q2 9 10 7l446 -54l11 -21l-112 -638q-21 -123 76 -175l44 -8q102 -17 198 77l85 491q21 116 -118 140l-9 2q-6 1 -11 16l10 53q2 9 10 8l451 -56l10 -20l-123 -706q-20 -116 109 -139l14 -2q8 -3 7 -11l-9 -53q-1 -7 -16 -11l-437 53l-11 20l20 112l-5 1 q-163 -129 -370 -92q-184 32 -232 201q-18 81 8 234l66 375q15 88 -129 133zM62 1529q19 76 108 76q104 0 160 -108l168 -232q0 -5 -32 -32q-11 0 -340 192q-64 43 -64 104z" />
<glyph unicode="&#xda;" horiz-adv-x="1067" d="M-38 1118l10 54q2 9 10 7l446 -54l11 -21l-112 -638q-21 -123 76 -175l44 -8q102 -17 198 77l85 491q21 116 -118 140l-9 2q-6 1 -11 16l10 53q2 9 10 8l451 -56l10 -20l-123 -706q-20 -116 109 -139l14 -2q8 -3 7 -11l-9 -53q-1 -7 -16 -11l-437 53l-11 20l20 112l-5 1 q-163 -129 -370 -92q-184 32 -232 201q-18 81 8 234l66 375q15 88 -129 133zM543 1259q-2 11 134 367q31 70 92 80q78 -7 93 -94q17 -103 -81 -176l-201 -203q-5 -1 -37 26z" />
<glyph unicode="&#xdb;" horiz-adv-x="1067" d="M-31 890l10 54q2 9 10 7l446 -54l11 -21l-112 -638q-21 -123 76 -175l44 -8q102 -17 198 77l85 491q21 116 -118 140l-9 2q-6 1 -11 16l10 53q2 9 10 8l451 -56l10 -20l-123 -706q-20 -116 109 -139l14 -2q8 -3 7 -11l-9 -53q-1 -7 -16 -11l-437 53l-11 20l20 112l-5 1 q-163 -129 -370 -92q-184 32 -232 201q-18 81 8 234l66 375q15 88 -129 133zM55 1006v8q354 558 368 572h108q16 -15 368 -572v-8h-156q-33 37 -264 420q-256 -408 -268 -420h-156z" />
<glyph unicode="&#xdc;" horiz-adv-x="1067" d="M-41 1219l10 54q2 9 10 7l446 -54l11 -21l-112 -638q-21 -123 76 -175l44 -8q102 -17 198 77l85 491q21 116 -118 140l-9 2q-6 1 -11 16l10 53q2 9 10 8l451 -56l10 -20l-123 -706q-20 -116 109 -139l14 -2q8 -3 7 -11l-9 -53q-1 -7 -16 -11l-437 53l-11 20l20 112l-5 1 q-163 -129 -370 -92q-184 32 -232 201q-18 81 8 234l66 375q15 88 -129 133zM39 1461v20q0 117 132 164q14 0 36 4q110 0 160 -132l4 -36q0 -112 -132 -160l-36 -4q-121 0 -164 144zM553 1484v20q0 117 132 164q14 0 36 4q110 0 160 -132l4 -36q0 -112 -132 -160l-36 -4 q-121 0 -164 144z" />
<glyph unicode="&#xdd;" horiz-adv-x="1253" d="M347 1004q44 -70 163 -153q31 -17 80 -67v-3q-37 -118 -106 -256q-35 -32 -54 -183q-43 -71 -43 -89v-10q0 -26 73 -80h4q52 21 109 203q38 66 140 226q22 44 53 146q133 244 163 332q-37 23 -60 23h-26q-65 0 -183 -162q-17 -17 -30 -17q-46 28 -146 113q-39 27 -73 27 q-26 0 -64 -50zM660 1204q-2 11 134 367q31 70 92 80q78 -7 93 -94q17 -103 -81 -176l-201 -203q-5 -1 -37 26z" />
<glyph unicode="&#xde;" horiz-adv-x="3018" d="M110 1184v10q0 115 136 163l47 3q46 0 89 -36h3q-19 188 -26 229q-33 -7 -60 -7q-5 0 -10 10v17q0 12 140 20h3q13 0 17 -103q6 -11 43 -402v-6q1 -7 6 -7h33q13 0 37 362q6 26 17 159q6 3 10 3q46 -6 418 -36q3 -7 3 -10q-43 -501 -50 -541q-6 -3 -10 -3q-11 6 -20 6 h-23l-345 30q-16 -7 -149 -13q-4 5 -7 40q-41 -63 -123 -63h-30q-49 4 -109 63q-40 60 -40 112zM113 760q0 9 209 30q213 23 246 23q135 0 182 -83q20 -46 20 -80v-40q0 -46 -79 -119q-71 -51 -216 -70q-31 0 -43 -10q23 -209 33 -209q28 -13 53 -13h30q10 0 13 -36 q-16 -13 -119 -20q0 -4 -10 -4h-13q-210 -23 -223 -23l-10 13q0 4 4 4l-4 6v10q0 11 73 27q18 12 20 30l-59 497q-13 30 -97 30q-7 8 -10 37zM190 -315q0 99 3 272l7 3h176l6 -3q-3 -133 -3 -199v-43q0 -77 -10 -77h-173q-6 0 -6 7v40zM206 -66q4 -52 33 -269h24l20 113h6 v-4q0 -24 10 -109h20q8 0 50 269h-37q-12 -127 -20 -127h-3v4q-8 123 -16 123h-17q-13 -104 -13 -127h-7l-13 127h-37zM389 -309q20 223 26 252q196 -14 196 -23q-20 -225 -20 -245q-3 0 -3 -4q-155 14 -199 20zM392 746l33 -268v-10h4q71 0 129 53q23 26 23 89 q0 102 -73 136q-31 5 -53 10q-12 -6 -26 -6h-30zM409 -183v-29q10 -90 79 -90h17q86 16 86 123v6q0 76 -63 97q-18 3 -26 3q-80 0 -93 -110zM432 -189q0 89 60 103h16q46 0 57 -87v-33q0 -71 -57 -86h-16q-60 15 -60 103zM575 1291q0 -172 129 -216q27 -7 33 -7h63 q41 0 113 67q60 93 60 205q0 162 -130 213l-29 6h-50q-138 0 -186 -205q-3 -37 -3 -63zM618 -309q20 223 26 252q196 -14 196 -23q-20 -225 -20 -245q-3 0 -3 -4q-155 14 -199 20zM628 1311q0 180 109 219q12 6 27 6h13q65 0 103 -66q36 -61 36 -140v-43q0 -150 -106 -195 l-16 -4h-40q-42 0 -86 63q-40 71 -40 160zM638 -183v-29q10 -90 79 -90h17q86 16 86 123v6q0 76 -63 97q-18 3 -26 3q-80 0 -93 -110zM661 -189q0 89 60 103h16q46 0 57 -87v-33q0 -71 -57 -86h-16q-60 15 -60 103zM764 760q2 30 10 30h26q101 -10 123 -17h37q79 -11 79 -20 l3 -7q-66 -352 -66 -371v-23q16 -60 60 -60q18 -3 30 -3q45 0 89 46q50 276 50 292v10q-10 27 -50 43q-30 4 -30 13q0 40 20 40q18 -6 249 -33q10 -7 10 -13q-70 -402 -70 -422q0 -39 73 -53v-23q0 -23 -19 -23l-249 33q-7 11 -7 20q7 9 10 46h-7q-62 -42 -122 -49h-50 q-173 20 -173 162q0 34 47 305v10q-18 47 -53 47q-20 11 -20 20zM860 -242q0 64 83 76q17 0 43 -17v4l-10 99h-26q-7 0 -7 7v3q0 7 10 7q11 0 56 3q6 0 27 -239h16v203q1 6 7 6h166q0 -15 80 -23q3 0 10 -3q-24 -124 -24 -140q5 -13 17 -19h17q30 0 36 53q0 26 10 59 q0 19 -27 24v10l4 6q80 -10 89 -13q-23 -128 -23 -156q23 -13 23 -17v-3q0 -7 -6 -7q-66 7 -87 14l4 16v4h-4q-19 -17 -53 -17h-3q-38 0 -53 33h-3v-93q0 -6 -7 -6h-166q-7 0 -7 6v47q-41 -4 -49 -4q-4 6 -4 17q-21 -27 -59 -27h-7q-62 0 -73 87zM1019 936v584q0 4 10 10 h362l16 -4q-3 63 -6 83q11 7 20 7h332q16 0 16 -116l-6 -4h-54q-23 0 -36 -6l3 -17v-23q7 -146 7 -159l3 -17q0 -3 -3 -3l7 -40q0 -3 -4 -3l4 -20q0 -39 9 -176h-3l3 -7v-40q0 -6 -6 -6h-149q-5 0 -10 10q0 27 -27 494h-76q-8 -7 -14 -7q-6 4 -10 4v-544q0 -7 -6 -7h-375 q-7 0 -7 7zM1052 1005h7q5 0 10 10q0 6 -17 10v-20zM1052 1463h27v4q0 6 -7 6h-20v-10zM1066 -116v-4h13v4h-13zM1066 -322v-10h3q7 0 7 7l-7 3h-3zM1089 -216q0 -96 36 -96q0 -9 47 -13q17 0 20 10q-10 0 -10 6q6 4 10 4v6q-6 0 -20 14v3h-27q-4 0 -10 10v36q0 4 4 4l-4 6 q0 43 40 43q6 -3 13 -3v10q-6 8 -6 10v3q10 0 10 7v3q-26 14 -40 14h-3q-40 0 -60 -77zM1102 1251q0 -187 67 -203q51 -29 92 -29h27l33 10v3l-23 13q0 8 23 17v10q-16 0 -16 23q-8 0 -14 -3q-13 5 -13 10q0 3 3 3q-3 6 -3 10q-23 -7 -40 -7h-16q-24 8 -24 60v33q0 9 7 20 q-3 12 -3 13q12 90 73 90q0 3 6 3q11 -6 20 -6h14v3l-4 6q4 6 4 14l-17 20l30 20q-5 0 -43 26q-24 7 -27 7h-40q-48 0 -93 -87q-16 -40 -23 -79zM1185 1267l7 4q6 -1 6 -7l-6 -3q-7 0 -7 6zM1192 -246h13v4q-3 0 -10 3zM1198 1297h10q0 -6 -6 -6zM1205 -329v-6h10q7 0 7 6 v17q-5 0 -17 -17zM1218 -116v-7h4v7h-4zM1232 -123v-86h3q10 67 10 80q-8 6 -10 6h-3zM1321 1191l7 -3q6 3 10 3q11 -7 20 -7v4q0 6 -24 13q-13 -5 -13 -10zM1351 1005q1 -6 7 -6h26l7 20l-3 6q3 6 3 13v4h-7q-4 0 -33 -33v-4zM1378 1457l6 -4l7 10v4h-10q0 -4 -3 -10z M1421 846v20q2 20 10 20h43q9 0 89 -73q17 0 80 -70v-40q0 -13 -17 -26q6 0 17 -10h3q14 23 37 23h7q47 0 96 -63q6 0 53 -36h3q-6 150 -6 278l19 17h166q26 0 33 -37v-3q0 -96 -9 -96l9 -17v-76q0 -31 -73 -43l-3 -14h37q39 -5 39 -26q0 -14 7 -37v-56q0 -17 -3 -50 q6 -1 6 -6v-10q0 -14 4 -37q-7 -13 -7 -23q0 -36 7 -143q-4 -24 -4 -59q-10 -7 -19 -7h-14q-30 0 -139 99q-17 0 -126 113q-23 3 -120 93h-10q7 -21 7 -30v-69l-3 -20q10 -34 10 -70q-7 -21 -7 -27q0 -2 3 -43q0 -15 -43 -53h-30l-73 14q-23 -7 -39 -7h-4q-23 0 -23 20 q-3 167 -3 235l-4 24q7 11 7 20q-7 0 -7 6v27q0 41 4 76l-7 76q3 18 3 34l-3 13q0 3 3 3q-6 51 -6 166zM1437 -53l7 3h153q4 0 10 -10v-36q0 -7 -44 -10l10 -223q4 -6 4 -10l-7 -3h-66q-7 0 -7 7l-10 225h-36l-7 -3q-3 0 -7 60zM1613 -53l7 3h152q10 0 10 -13h233q6 -1 6 -7 q10 -227 10 -275q4 0 4 -3l-7 -4h-226q-13 0 -16 239q-4 7 -4 10h-26l-17 -3l10 -223q4 -6 4 -10l-7 -3h-66q-7 0 -7 7l-10 225h-37l-6 -3q-3 0 -7 60zM1792 1055q10 145 40 431q0 4 -3 4q10 109 16 109q206 -20 422 -36q3 -7 3 -10q-44 -541 -50 -541l-6 -3q-25 6 -388 36 h-14q-17 0 -20 10zM1826 -212q4 0 16 -17v-96h143v50h-86q-7 0 -7 6v27q1 6 7 6h59v50h-56q-7 0 -7 7v26q1 7 7 7h86v50h-146v-97zM1829 1287q0 -149 109 -205q40 -14 63 -14h53q50 4 110 63q63 82 63 216q0 144 -113 199q-36 13 -50 13h-53q-52 0 -109 -53 q-73 -87 -73 -219zM1885 1297v57q0 3 4 3q0 3 -4 3q13 92 50 133q45 42 83 43h23q93 0 130 -166v-106q0 -106 -93 -169q-3 0 -27 -7h-43q-58 0 -106 106q-17 51 -17 103zM1928 508l7 -4v4q-3 6 -3 10h-4v-10zM1932 464h10v7l-4 17h-6v-24zM2048 -47q1 7 6 7h90q0 17 7 17 h126q6 -1 6 -7v-295q0 -7 -6 -7h-130q0 -16 -6 -16h-87q-6 0 -6 6v295zM2074 -90v-232h50v83q0 5 20 10q1 7 7 7q17 -18 53 -83h60q-44 71 -73 103q46 25 46 66q0 60 -83 60h-7q0 -14 -6 -14h-67zM2081 843q0 10 289 30q0 3 10 3q78 0 122 10h10q60 0 123 10h40l17 3v-3l6 3 h20q14 0 23 -212q10 -65 50 -564v-17q0 -14 -385 -36q-6 -4 -10 -4v4q-116 -17 -245 -20q-9 0 -70 793zM2124 -136q0 4 20 10q0 13 10 13q27 0 30 -33q0 -21 -37 -37q0 -13 -6 -13h-10q-7 0 -7 7v53zM2254 693l46 -531h3l17 4v-4q11 7 20 7h23q22 0 66 3q-6 121 -13 153l7 3 q58 -71 103 -146h23q4 0 36 7h10q28 0 83 3v7q-169 243 -169 249q32 80 126 269v3h-156q-65 -166 -76 -166h-7q0 42 -6 83l3 7l-10 63l-7 -4q-92 -3 -122 -10zM2283 972v657q1 7 7 7h199l7 3l-4 7v16q0 5 10 10h286q6 -1 6 -6v-657q0 -7 -6 -7h-289v-30q0 -7 -7 -7h-202 q-7 0 -7 7zM2320 -342q0 21 36 30q30 -10 30 -33v-3q0 -26 -33 -30q-27 0 -33 36zM2340 1029l6 -4h97q6 0 6 7v179q0 3 10 10l17 -3h3l17 3l-4 17q2 6 7 6q43 -34 106 -152q17 -24 17 -30h126v3q-99 159 -146 206q-15 6 -17 13q100 52 100 100q7 23 7 39q0 110 -133 130h-60 v-20q0 -7 -7 -7h-146l-6 -3l3 -7v-481zM2410 -66l6 3h226q6 -1 6 -7q10 -227 10 -275q4 0 4 -3l-7 -4h-226q-11 0 -19 286zM2449 1307v126q0 5 10 10h37l-4 17v10q2 6 7 6h13q63 -9 63 -59q4 0 4 -10q0 -56 -80 -77q0 -33 -10 -33h-30q-4 0 -10 10zM2453 -212q4 0 16 -17 v-96h143v50h-86q-7 0 -7 6v27q1 6 7 6h59v50h-56q-7 0 -7 7v26q1 7 7 7h86v50h-146v-97zM2675 -252q0 12 36 13q-33 34 -33 43q0 26 4 93q42 40 59 40h90q29 0 63 -57v-9q0 -60 -23 -60h-20l40 -43l-4 -24v-43q-25 -59 -66 -59h-90q-20 0 -56 49v57zM2751 -249q9 -16 14 -17 h23q5 0 10 10q-11 7 -20 7h-27zM2765 -163v-6q0 -5 10 -10h36q-7 26 -13 26h-23q-5 0 -10 -10z" />
<glyph unicode="&#xdf;" horiz-adv-x="3018" d="M110 1184v10q0 115 136 163l47 3q46 0 89 -36h3q-19 188 -26 229q-33 -7 -60 -7q-5 0 -10 10v17q0 12 140 20h3q13 0 17 -103q6 -11 43 -402v-6q1 -7 6 -7h33q13 0 37 362q6 26 17 159q6 3 10 3q46 -6 418 -36q3 -7 3 -10q-43 -501 -50 -541q-6 -3 -10 -3q-11 6 -20 6 h-23l-345 30q-16 -7 -149 -13q-4 5 -7 40q-41 -63 -123 -63h-30q-49 4 -109 63q-40 60 -40 112zM113 760q0 9 209 30q213 23 246 23q135 0 182 -83q20 -46 20 -80v-40q0 -46 -79 -119q-71 -51 -216 -70q-31 0 -43 -10q23 -209 33 -209q28 -13 53 -13h30q10 0 13 -36 q-16 -13 -119 -20q0 -4 -10 -4h-13q-210 -23 -223 -23l-10 13q0 4 4 4l-4 6v10q0 11 73 27q18 12 20 30l-59 497q-13 30 -97 30q-7 8 -10 37zM190 -315q0 99 3 272l7 3h176l6 -3q-3 -133 -3 -199v-43q0 -77 -10 -77h-173q-6 0 -6 7v40zM206 -66q4 -52 33 -269h24l20 113h6 v-4q0 -24 10 -109h20q8 0 50 269h-37q-12 -127 -20 -127h-3v4q-8 123 -16 123h-17q-13 -104 -13 -127h-7l-13 127h-37zM389 -309q20 223 26 252q196 -14 196 -23q-20 -225 -20 -245q-3 0 -3 -4q-155 14 -199 20zM392 746l33 -268v-10h4q71 0 129 53q23 26 23 89 q0 102 -73 136q-31 5 -53 10q-12 -6 -26 -6h-30zM409 -183v-29q10 -90 79 -90h17q86 16 86 123v6q0 76 -63 97q-18 3 -26 3q-80 0 -93 -110zM432 -189q0 89 60 103h16q46 0 57 -87v-33q0 -71 -57 -86h-16q-60 15 -60 103zM575 1291q0 -172 129 -216q27 -7 33 -7h63 q41 0 113 67q60 93 60 205q0 162 -130 213l-29 6h-50q-138 0 -186 -205q-3 -37 -3 -63zM618 -309q20 223 26 252q196 -14 196 -23q-20 -225 -20 -245q-3 0 -3 -4q-155 14 -199 20zM628 1311q0 180 109 219q12 6 27 6h13q65 0 103 -66q36 -61 36 -140v-43q0 -150 -106 -195 l-16 -4h-40q-42 0 -86 63q-40 71 -40 160zM638 -183v-29q10 -90 79 -90h17q86 16 86 123v6q0 76 -63 97q-18 3 -26 3q-80 0 -93 -110zM661 -189q0 89 60 103h16q46 0 57 -87v-33q0 -71 -57 -86h-16q-60 15 -60 103zM764 760q2 30 10 30h26q101 -10 123 -17h37q79 -11 79 -20 l3 -7q-66 -352 -66 -371v-23q16 -60 60 -60q18 -3 30 -3q45 0 89 46q50 276 50 292v10q-10 27 -50 43q-30 4 -30 13q0 40 20 40q18 -6 249 -33q10 -7 10 -13q-70 -402 -70 -422q0 -39 73 -53v-23q0 -23 -19 -23l-249 33q-7 11 -7 20q7 9 10 46h-7q-62 -42 -122 -49h-50 q-173 20 -173 162q0 34 47 305v10q-18 47 -53 47q-20 11 -20 20zM860 -242q0 64 83 76q17 0 43 -17v4l-10 99h-26q-7 0 -7 7v3q0 7 10 7q11 0 56 3q6 0 27 -239h16v203q1 6 7 6h166q0 -15 80 -23q3 0 10 -3q-24 -124 -24 -140q5 -13 17 -19h17q30 0 36 53q0 26 10 59 q0 19 -27 24v10l4 6q80 -10 89 -13q-23 -128 -23 -156q23 -13 23 -17v-3q0 -7 -6 -7q-66 7 -87 14l4 16v4h-4q-19 -17 -53 -17h-3q-38 0 -53 33h-3v-93q0 -6 -7 -6h-166q-7 0 -7 6v47q-41 -4 -49 -4q-4 6 -4 17q-21 -27 -59 -27h-7q-62 0 -73 87zM1019 936v584q0 4 10 10 h362l16 -4q-3 63 -6 83q11 7 20 7h332q16 0 16 -116l-6 -4h-54q-23 0 -36 -6l3 -17v-23q7 -146 7 -159l3 -17q0 -3 -3 -3l7 -40q0 -3 -4 -3l4 -20q0 -39 9 -176h-3l3 -7v-40q0 -6 -6 -6h-149q-5 0 -10 10q0 27 -27 494h-76q-8 -7 -14 -7q-6 4 -10 4v-544q0 -7 -6 -7h-375 q-7 0 -7 7zM1052 1005h7q5 0 10 10q0 6 -17 10v-20zM1052 1463h27v4q0 6 -7 6h-20v-10zM1066 -116v-4h13v4h-13zM1066 -322v-10h3q7 0 7 7l-7 3h-3zM1089 -216q0 -96 36 -96q0 -9 47 -13q17 0 20 10q-10 0 -10 6q6 4 10 4v6q-6 0 -20 14v3h-27q-4 0 -10 10v36q0 4 4 4l-4 6 q0 43 40 43q6 -3 13 -3v10q-6 8 -6 10v3q10 0 10 7v3q-26 14 -40 14h-3q-40 0 -60 -77zM1102 1251q0 -187 67 -203q51 -29 92 -29h27l33 10v3l-23 13q0 8 23 17v10q-16 0 -16 23q-8 0 -14 -3q-13 5 -13 10q0 3 3 3q-3 6 -3 10q-23 -7 -40 -7h-16q-24 8 -24 60v33q0 9 7 20 q-3 12 -3 13q12 90 73 90q0 3 6 3q11 -6 20 -6h14v3l-4 6q4 6 4 14l-17 20l30 20q-5 0 -43 26q-24 7 -27 7h-40q-48 0 -93 -87q-16 -40 -23 -79zM1185 1267l7 4q6 -1 6 -7l-6 -3q-7 0 -7 6zM1192 -246h13v4q-3 0 -10 3zM1198 1297h10q0 -6 -6 -6zM1205 -329v-6h10q7 0 7 6 v17q-5 0 -17 -17zM1218 -116v-7h4v7h-4zM1232 -123v-86h3q10 67 10 80q-8 6 -10 6h-3zM1321 1191l7 -3q6 3 10 3q11 -7 20 -7v4q0 6 -24 13q-13 -5 -13 -10zM1351 1005q1 -6 7 -6h26l7 20l-3 6q3 6 3 13v4h-7q-4 0 -33 -33v-4zM1378 1457l6 -4l7 10v4h-10q0 -4 -3 -10z M1421 846v20q2 20 10 20h43q9 0 89 -73q17 0 80 -70v-40q0 -13 -17 -26q6 0 17 -10h3q14 23 37 23h7q47 0 96 -63q6 0 53 -36h3q-6 150 -6 278l19 17h166q26 0 33 -37v-3q0 -96 -9 -96l9 -17v-76q0 -31 -73 -43l-3 -14h37q39 -5 39 -26q0 -14 7 -37v-56q0 -17 -3 -50 q6 -1 6 -6v-10q0 -14 4 -37q-7 -13 -7 -23q0 -36 7 -143q-4 -24 -4 -59q-10 -7 -19 -7h-14q-30 0 -139 99q-17 0 -126 113q-23 3 -120 93h-10q7 -21 7 -30v-69l-3 -20q10 -34 10 -70q-7 -21 -7 -27q0 -2 3 -43q0 -15 -43 -53h-30l-73 14q-23 -7 -39 -7h-4q-23 0 -23 20 q-3 167 -3 235l-4 24q7 11 7 20q-7 0 -7 6v27q0 41 4 76l-7 76q3 18 3 34l-3 13q0 3 3 3q-6 51 -6 166zM1437 -53l7 3h153q4 0 10 -10v-36q0 -7 -44 -10l10 -223q4 -6 4 -10l-7 -3h-66q-7 0 -7 7l-10 225h-36l-7 -3q-3 0 -7 60zM1613 -53l7 3h152q10 0 10 -13h233q6 -1 6 -7 q10 -227 10 -275q4 0 4 -3l-7 -4h-226q-13 0 -16 239q-4 7 -4 10h-26l-17 -3l10 -223q4 -6 4 -10l-7 -3h-66q-7 0 -7 7l-10 225h-37l-6 -3q-3 0 -7 60zM1792 1055q10 145 40 431q0 4 -3 4q10 109 16 109q206 -20 422 -36q3 -7 3 -10q-44 -541 -50 -541l-6 -3q-25 6 -388 36 h-14q-17 0 -20 10zM1826 -212q4 0 16 -17v-96h143v50h-86q-7 0 -7 6v27q1 6 7 6h59v50h-56q-7 0 -7 7v26q1 7 7 7h86v50h-146v-97zM1829 1287q0 -149 109 -205q40 -14 63 -14h53q50 4 110 63q63 82 63 216q0 144 -113 199q-36 13 -50 13h-53q-52 0 -109 -53 q-73 -87 -73 -219zM1885 1297v57q0 3 4 3q0 3 -4 3q13 92 50 133q45 42 83 43h23q93 0 130 -166v-106q0 -106 -93 -169q-3 0 -27 -7h-43q-58 0 -106 106q-17 51 -17 103zM1928 508l7 -4v4q-3 6 -3 10h-4v-10zM1932 464h10v7l-4 17h-6v-24zM2048 -47q1 7 6 7h90q0 17 7 17 h126q6 -1 6 -7v-295q0 -7 -6 -7h-130q0 -16 -6 -16h-87q-6 0 -6 6v295zM2074 -90v-232h50v83q0 5 20 10q1 7 7 7q17 -18 53 -83h60q-44 71 -73 103q46 25 46 66q0 60 -83 60h-7q0 -14 -6 -14h-67zM2081 843q0 10 289 30q0 3 10 3q78 0 122 10h10q60 0 123 10h40l17 3v-3l6 3 h20q14 0 23 -212q10 -65 50 -564v-17q0 -14 -385 -36q-6 -4 -10 -4v4q-116 -17 -245 -20q-9 0 -70 793zM2124 -136q0 4 20 10q0 13 10 13q27 0 30 -33q0 -21 -37 -37q0 -13 -6 -13h-10q-7 0 -7 7v53zM2254 693l46 -531h3l17 4v-4q11 7 20 7h23q22 0 66 3q-6 121 -13 153l7 3 q58 -71 103 -146h23q4 0 36 7h10q28 0 83 3v7q-169 243 -169 249q32 80 126 269v3h-156q-65 -166 -76 -166h-7q0 42 -6 83l3 7l-10 63l-7 -4q-92 -3 -122 -10zM2283 972v657q1 7 7 7h199l7 3l-4 7v16q0 5 10 10h286q6 -1 6 -6v-657q0 -7 -6 -7h-289v-30q0 -7 -7 -7h-202 q-7 0 -7 7zM2320 -342q0 21 36 30q30 -10 30 -33v-3q0 -26 -33 -30q-27 0 -33 36zM2340 1029l6 -4h97q6 0 6 7v179q0 3 10 10l17 -3h3l17 3l-4 17q2 6 7 6q43 -34 106 -152q17 -24 17 -30h126v3q-99 159 -146 206q-15 6 -17 13q100 52 100 100q7 23 7 39q0 110 -133 130h-60 v-20q0 -7 -7 -7h-146l-6 -3l3 -7v-481zM2410 -66l6 3h226q6 -1 6 -7q10 -227 10 -275q4 0 4 -3l-7 -4h-226q-11 0 -19 286zM2449 1307v126q0 5 10 10h37l-4 17v10q2 6 7 6h13q63 -9 63 -59q4 0 4 -10q0 -56 -80 -77q0 -33 -10 -33h-30q-4 0 -10 10zM2453 -212q4 0 16 -17 v-96h143v50h-86q-7 0 -7 6v27q1 6 7 6h59v50h-56q-7 0 -7 7v26q1 7 7 7h86v50h-146v-97zM2675 -252q0 12 36 13q-33 34 -33 43q0 26 4 93q42 40 59 40h90q29 0 63 -57v-9q0 -60 -23 -60h-20l40 -43l-4 -24v-43q-25 -59 -66 -59h-90q-20 0 -56 49v57zM2751 -249q9 -16 14 -17 h23q5 0 10 10q-11 7 -20 7h-27zM2765 -163v-6q0 -5 10 -10h36q-7 26 -13 26h-23q-5 0 -10 -10z" />
<glyph unicode="&#xe0;" d="M-178 86l3 47q1 4 86 14q77 32 118 134q345 684 345 689q4 97 8 158l7 3q62 -1 78 -2q26 -64 289 -858q25 -76 84 -104q73 -16 72 -29q3 -13 2 -27l-1 -14q-1 -6 -8 -6q-462 27 -535 33l-2 24l2 27q0 4 96 16q38 -3 49 24q1 12 -77 235l-88 7q-7 0 -6 7l4 57q2 7 7 7 l47 -4q7 0 8 10q-54 146 -52 166l5 71h-3l-149 -314l125 -9q10 -1 5 -68l-7 -3l-155 11q-42 -64 -85 -190l-2 -30q-2 -30 141 -61l-4 -51q0 -6 -7 -6l-394 29q-7 0 -6 7zM62 1529q19 76 108 76q104 0 160 -108l168 -232q0 -5 -32 -32q-11 0 -340 192q-64 43 -64 104z" />
<glyph unicode="&#xe1;" d="M-184 -252l4 56q0 5 101 16q92 38 140 159q409 810 409 816q5 115 10 188l8 3q73 -1 92 -3q31 -76 343 -1016q30 -90 99 -123q87 -20 86 -35q3 -15 1 -32l-1 -16q0 -8 -8 -7q-548 32 -635 38l-2 29l2 32q1 5 114 19q45 -3 58 28q1 15 -92 280l-103 7q-8 1 -8 9l5 68 q2 7 9 7l56 -4q8 -1 9 11q-64 174 -62 197l6 84h-4l-176 -372l148 -11q12 0 6 -80l-8 -4l-184 14q-50 -76 -101 -225l-2 -36q-3 -36 167 -73l-4 -60q-1 -8 -9 -7l-467 34q-8 1 -7 9zM455 1185q-2 11 134 367q31 70 92 80q78 -7 93 -94q17 -103 -81 -176l-201 -203 q-5 -1 -37 26z" />
<glyph unicode="&#xe2;" d="M-178 93l4 56q0 5 101 16q92 38 140 159q409 810 409 816q5 115 10 188l8 3q73 -1 92 -3q31 -76 343 -1016q30 -90 99 -123q87 -20 86 -35q3 -15 1 -32l-1 -16q0 -8 -8 -7q-548 32 -635 38l-2 29l2 32q1 5 114 19q45 -3 58 28q1 15 -92 280l-103 7q-8 1 -8 9l5 68 q2 7 9 7l56 -4q8 -1 9 11q-64 174 -62 197l6 84h-4l-176 -372l148 -11q12 0 6 -80l-8 -4l-184 14q-50 -76 -101 -225l-2 -36q-3 -36 167 -73l-4 -60q-1 -8 -9 -7l-467 34q-8 1 -7 9zM116 1111v8q354 558 368 572h108q16 -15 368 -572v-8h-156q-33 37 -264 420 q-256 -408 -268 -420h-156z" />
<glyph unicode="&#xe3;" d="M-178 93l4 56q0 5 101 16q92 38 140 159q409 810 409 816q5 115 10 188l8 3q73 -1 92 -3q31 -76 343 -1016q30 -90 99 -123q87 -20 86 -35q3 -15 1 -32l-1 -16q0 -8 -8 -7q-548 32 -635 38l-2 29l2 32q1 5 114 19q45 -3 58 28q1 15 -92 280l-103 7q-8 1 -8 9l5 68 q2 7 9 7l56 -4q8 -1 9 11q-64 174 -62 197l6 84h-4l-176 -372l148 -11q12 0 6 -80l-8 -4l-184 14q-50 -76 -101 -225l-2 -36q-3 -36 167 -73l-4 -60q-1 -8 -9 -7l-467 34q-8 1 -7 9zM240 1312q78 199 216 264q46 16 80 16h16q103 0 304 -128q37 -16 80 -16q101 0 168 164h4 q84 -28 84 -44q-124 -276 -308 -276q-99 0 -292 120q-43 21 -92 28q-104 0 -172 -164h-4q-84 27 -84 36z" />
<glyph unicode="&#xe4;" d="M-188 -47l4 56q0 5 101 16q92 38 140 159q409 810 409 816q5 115 10 188l8 3q73 -1 92 -3q31 -76 343 -1016q30 -90 99 -123q87 -20 86 -35q3 -15 1 -32l-1 -16q0 -8 -8 -7q-548 32 -635 38l-2 29l2 32q1 5 114 19q45 -3 58 28q1 15 -92 280l-103 7q-8 1 -8 9l5 68 q2 7 9 7l56 -4q8 -1 9 11q-64 174 -62 197l6 84h-4l-176 -372l148 -11q12 0 6 -80l-8 -4l-184 14q-50 -76 -101 -225l-2 -36q-3 -36 167 -73l-4 -60q-1 -8 -9 -7l-467 34q-8 1 -7 9zM39 1461v20q0 117 132 164q14 0 36 4q110 0 160 -132l4 -36q0 -112 -132 -160l-36 -4 q-121 0 -164 144zM553 1484v20q0 117 132 164q14 0 36 4q110 0 160 -132l4 -36q0 -112 -132 -160l-36 -4q-121 0 -164 144z" />
<glyph unicode="&#xe5;" d="M-178 93l4 56q0 5 101 16q92 38 140 159q409 810 409 816q5 115 10 188l8 3q73 -1 92 -3q31 -76 343 -1016q30 -90 99 -123q87 -20 86 -35q3 -15 1 -32l-1 -16q0 -8 -8 -7q-548 32 -635 38l-2 29l2 32q1 5 114 19q45 -3 58 28q1 15 -92 280l-103 7q-8 1 -8 9l5 68 q2 7 9 7l56 -4q8 -1 9 11q-64 174 -62 197l6 84h-4l-176 -372l148 -11q12 0 6 -80l-8 -4l-184 14q-50 -76 -101 -225l-2 -36q-3 -36 167 -73l-4 -60q-1 -8 -9 -7l-467 34q-8 1 -7 9zM362 1493q0 -126 123 -163l47 -8q2 0 2 2l10 -2h4q146 0 197 135q10 46 10 72 q0 119 -111 159q-35 11 -72 11h-10q-144 0 -192 -141q-8 -35 -8 -65z" />
<glyph unicode="&#xe6;" horiz-adv-x="1122" d="M-46 437q0 135 144 190q86 33 282 82v32q0 134 -29 158q-23 26 -63 26h-13q-33 0 -72 -23q23 -75 23 -95q0 -55 -69 -82q-43 -4 -49 -6q-91 0 -118 72l-3 29q0 125 288 164h23q146 0 230 -66h6q103 66 193 66q226 0 302 -161q23 -61 23 -118v-52q0 -7 -7 -7h-439v-6 q0 -275 220 -275q103 0 193 124q49 -33 49 -42q-121 -184 -321 -184q-215 0 -311 131h-7q-110 -128 -259 -128h-23q-142 0 -186 128zM193 469q0 -72 56 -91l20 -4h6q64 0 105 53v219q-105 -22 -154 -72q-33 -41 -33 -91v-14zM606 705l7 4h200v3q0 213 -89 213h-13 q-66 0 -92 -105q-13 -45 -13 -115z" />
<glyph unicode="&#xe7;" horiz-adv-x="1015" d="M31 562q-47 315 225 510q108 60 204 74l29 4q116 18 246 -26l40 43l52 8l7 -3l58 -342l-6 -4l-52 -8q-4 0 -58 101q-123 187 -276 163l-23 -3q-165 -25 -188 -273q-5 -77 10 -171l4 -29q43 -289 222 -351q54 -18 120 -8l13 2q177 26 261 244q16 3 67 -26 q-90 -282 -368 -324l-13 -2l5 -39l10 2q151 9 159 -46q8 1 16 -37q11 -77 -74 -124q-86 -33 -205 -50l-4 6l-7 45q0 7 6 7l78 12q81 12 74 54l-2 13q-5 36 -83 24l-6 -1q-7 -1 -8 6l-18 123l-3 -1q-112 -16 -274 58q-201 123 -238 369z" />
<glyph unicode="&#xe8;" horiz-adv-x="1061" d="M62 1514q23 91 130 91q125 0 192 -130l202 -279q0 -6 -38 -38q-13 0 -409 231q-77 51 -77 125zM187 487l87 -93l-5 -496l748 -7l3 264l-468 5q-8 0 -8 8l2 184q1 8 8 8l312 -3l8 -4q4 12 8 12l-4 8l2 244q-16 0 -16 4l-8 -4l-300 3q-8 0 -8 8l2 184q1 8 8 8q4 0 4 -4l8 4 l440 -4q4 -1 4 -5q8 4 12 4l2 260l-748 7l-4 -504z" />
<glyph unicode="&#xe9;" horiz-adv-x="1311" d="M36 1158q0 8 7 8l1203 54q8 -1 8 -8l66 -1478q1 -8 -7 -9l-1203 -53q-8 -1 -9 7zM233 508l87 -93l-5 -496l748 -7l3 264l-468 4q-8 0 -8 8l1 184q2 8 9 8l312 -3l7 -4q5 12 9 12l-4 8l2 244q-16 0 -16 4l-8 -3l-300 2q-8 0 -8 8l2 184q1 8 8 8q4 0 4 -4l8 4l440 -4 q4 0 4 -4q7 4 12 4l2 260l-748 7l-4 -504zM651 1237q-2 10 134 367q31 70 92 80q78 -7 92 -94q17 -103 -80 -176l-202 -204q-4 0 -36 27z" />
<glyph unicode="&#xea;" horiz-adv-x="1005" d="M24 308l87 -93l-5 -496l748 -7l3 264l-468 5q-8 0 -8 8l2 184q1 8 8 8l312 -3l8 -4q4 12 8 12l-4 8l2 244q-16 0 -16 4l-8 -4l-300 3q-8 0 -8 8l2 184q1 8 8 8q4 0 4 -4l8 4l440 -4q4 -1 4 -5q8 4 12 4l2 260l-748 7l-4 -504zM55 1006v8q354 558 368 572h108 q16 -15 368 -572v-8h-156q-33 37 -264 420q-256 -408 -268 -420h-156z" />
<glyph unicode="&#xeb;" horiz-adv-x="1005" d="M24 308l87 -93l-5 -496l748 -7l3 264l-468 5q-8 0 -8 8l2 184q1 8 8 8l312 -3l8 -4q4 12 8 12l-4 8l2 244q-16 0 -16 4l-8 -4l-300 3q-8 0 -8 8l2 184q1 8 8 8q4 0 4 -4l8 4l440 -4q4 -1 4 -5q8 4 12 4l2 260l-748 7l-4 -504zM71 1139v20q0 117 132 164q14 0 36 4 q110 0 160 -132l4 -36q0 -112 -132 -160l-36 -4q-121 0 -164 144zM585 1162v20q0 117 132 164q14 0 36 4q110 0 160 -132l4 -36q0 -112 -132 -160l-36 -4q-121 0 -164 144z" />
<glyph unicode="&#xec;" horiz-adv-x="566" d="M-182 1438q19 76 108 76q104 0 160 -108l168 -232q0 -5 -32 -32q-11 0 -340 192q-64 43 -64 104zM24 891q-8 51 41 75q115 59 148 64q130 21 148 -94l1 -4q10 -62 -26 -421q-11 -112 -5 -147l3 -19q10 -64 73 -53l28 4q48 12 82 17q8 -49 -33 -70q-113 -59 -168 -67 q-100 -16 -138 79q0 3 -8 23q0 78 34 500q3 31 0 77q-11 71 -74 61l-4 -1q-51 -8 -97 -31z" />
<glyph unicode="&#xed;" horiz-adv-x="566" d="M24 891q-8 51 41 75q115 59 148 64q130 21 148 -94l1 -4q10 -62 -26 -421q-11 -112 -5 -147l3 -19q10 -64 73 -53l28 4q48 12 82 17q8 -49 -33 -70q-113 -59 -168 -67q-100 -16 -138 79q0 3 -8 23q0 78 34 500q3 31 0 77q-11 71 -74 61l-4 -1q-51 -8 -97 -31zM68 1162 q-2 11 134 367q31 70 92 80q78 -7 93 -94q17 -103 -81 -176l-201 -203q-5 -1 -37 26z" />
<glyph unicode="&#xee;" horiz-adv-x="960" d="M45 1058v8q354 558 368 572h108q16 -15 368 -572v-8h-156q-33 37 -264 420q-256 -408 -268 -420h-156zM213 855q-8 51 41 75q115 59 148 64q130 21 148 -94l1 -4q10 -62 -26 -421q-11 -112 -5 -147l3 -19q10 -64 73 -53l28 4q48 12 82 17q8 -49 -33 -70 q-113 -59 -168 -67q-100 -16 -138 79q0 3 -8 23q0 78 34 500q3 31 0 77q-11 71 -74 61l-4 -1q-51 -8 -97 -31z" />
<glyph unicode="&#xef;" horiz-adv-x="566" d="M7 1283q8 110 86 123q110 -3 122 -82l4 -24q-8 -106 -78 -117l-20 -4q-98 6 -113 96zM24 891q-8 51 41 75q115 59 148 64q130 21 148 -94l1 -4q10 -62 -26 -421q-11 -112 -5 -147l3 -19q10 -64 73 -53l28 4q48 12 82 17q8 -49 -33 -70q-113 -59 -168 -67 q-100 -16 -138 79q0 3 -8 23q0 78 34 500q3 31 0 77q-11 71 -74 61l-4 -1q-51 -8 -97 -31zM299 1266v20q0 117 132 164q14 0 36 4q110 0 160 -132l4 -36q0 -112 -132 -160l-36 -4q-121 0 -164 144z" />
<glyph unicode="&#xf0;" horiz-adv-x="1139" />
<glyph unicode="&#xf1;" horiz-adv-x="1158" d="M-46 1610q4 12 23 12q115 -8 133 -12l78 8q16 0 43 -4q119 4 207 4h39q212 -19 499 -31q24 0 24 -47q-8 -161 -8 -199v-27q0 -6 -12 -12h-16q-44 0 -82 4q-27 -4 -46 -4q-73 16 -110 16h-15q-27 0 -47 -4l-19 4q-105 -4 -168 -4h-12q-88 -8 -94 -8h-7q-52 0 -199 20 q-64 -4 -125 -4h-27q-24 0 -24 191v82q-30 0 -35 15zM63 974v114q0 70 16 70l300 15q24 -45 70 -261q41 -254 55 -254q0 14 258 449q45 89 54 94q180 -11 180 -28q10 -59 15 -401q20 -132 43 -437q24 -106 59 -234v-16q-10 -98 -20 -98h-74q-9 0 -16 4q-158 -27 -206 -27 h-16q-16 0 -31 343v20q-87 -104 -219 -340l-7 -3h-110q-281 0 -281 19q-70 509 -70 971z" />
<glyph unicode="&#xf2;" horiz-adv-x="1171" d="M24 -50l114 1292q1 7 7 7l1005 -89q7 -1 6 -7l-113 -1293q-1 -6 -8 -6l-1004 89q-7 0 -7 7zM62 1529q19 76 108 76q104 0 160 -108l168 -232q0 -5 -32 -32q-11 0 -340 192q-64 43 -64 104zM105 515q0 -399 299 -517l116 -24q4 0 4 5l25 -5h9q355 0 478 426q24 147 24 230 q0 373 -270 502q-84 34 -174 34h-24q-350 0 -468 -445q-19 -112 -19 -206zM244 563q0 410 227 521q60 20 102 20h19q239 0 319 -369q9 -98 9 -177q0 -376 -217 -497q-63 -20 -121 -24v4q-5 0 -5 -4q-202 0 -299 277q-34 126 -34 249z" />
<glyph unicode="&#xf3;" horiz-adv-x="1171" d="M102 514q0 -399 299 -517l116 -24q4 0 4 5l25 -5h9q355 0 478 426q24 147 24 230q0 373 -270 502q-84 34 -174 34h-24q-350 0 -468 -445q-19 -112 -19 -206zM241 562q0 410 227 521q60 20 102 20h19q239 0 319 -369q9 -98 9 -177q0 -376 -217 -497q-63 -20 -121 -24v4 q-5 0 -5 -4q-202 0 -299 277q-34 126 -34 249zM686 1205q-2 11 134 367q31 70 92 80q78 -7 93 -94q17 -103 -81 -176l-201 -203q-5 -1 -37 26z" />
<glyph unicode="&#xf4;" horiz-adv-x="1171" d="M53 -229l114 1292q1 7 7 7l1005 -89q7 -1 6 -7l-113 -1293q-1 -6 -8 -6l-1004 89q-7 0 -7 7zM134 336q0 -399 299 -517l116 -24q4 0 4 5l25 -5h9q355 0 478 426q24 147 24 230q0 373 -270 502q-84 34 -174 34h-24q-350 0 -468 -445q-19 -112 -19 -206zM238 1113v8 q354 558 368 572h108q16 -15 368 -572v-8h-156q-33 37 -264 420q-256 -408 -268 -420h-156zM273 384q0 410 227 521q60 20 102 20h19q239 0 319 -369q9 -98 9 -177q0 -376 -217 -497q-63 -20 -121 -24v4q-5 0 -5 -4q-202 0 -299 277q-34 126 -34 249z" />
<glyph unicode="&#xf5;" horiz-adv-x="1171" d="M53 -204l114 1292q1 7 7 7l1005 -89q7 -1 6 -7l-113 -1293q-1 -6 -8 -6l-1004 89q-7 0 -7 7zM134 361q0 -399 299 -517l116 -24q4 0 4 5l25 -5h9q355 0 478 426q24 147 24 230q0 373 -270 502q-84 34 -174 34h-24q-350 0 -468 -445q-19 -112 -19 -206zM149 1294 q78 199 216 264q46 16 80 16h16q103 0 304 -128q37 -16 80 -16q101 0 168 164h4q84 -28 84 -44q-124 -276 -308 -276q-99 0 -292 120q-43 21 -92 28q-104 0 -172 -164h-4q-84 27 -84 36zM273 409q0 410 227 521q60 20 102 20h19q239 0 319 -369q9 -98 9 -177 q0 -376 -217 -497q-63 -20 -121 -24v4q-5 0 -5 -4q-202 0 -299 277q-34 126 -34 249z" />
<glyph unicode="&#xf6;" horiz-adv-x="1171" d="M27 213l114 1292q1 7 7 7l1005 -89q7 -1 6 -7l-113 -1293q-1 -6 -8 -6l-1004 89q-7 0 -7 7zM108 778q0 -399 299 -517l116 -24q4 0 4 5l25 -5h9q355 0 478 426q24 147 24 230q0 373 -270 502q-84 34 -174 34h-24q-350 0 -468 -445q-19 -112 -19 -206zM247 826 q0 410 227 521q60 20 102 20h19q239 0 319 -369q9 -98 9 -177q0 -376 -217 -497q-63 -20 -121 -24v4q-5 0 -5 -4q-202 0 -299 277q-34 126 -34 249z" />
<glyph unicode="&#xf7;" horiz-adv-x="3018" d="M110 1184v10q0 115 136 163l47 3q46 0 89 -36h3q-19 188 -26 229q-33 -7 -60 -7q-5 0 -10 10v17q0 12 140 20h3q13 0 17 -103q6 -11 43 -402v-6q1 -7 6 -7h33q13 0 37 362q6 26 17 159q6 3 10 3q46 -6 418 -36q3 -7 3 -10q-43 -501 -50 -541q-6 -3 -10 -3q-11 6 -20 6 h-23l-345 30q-16 -7 -149 -13q-4 5 -7 40q-41 -63 -123 -63h-30q-49 4 -109 63q-40 60 -40 112zM113 760q0 9 209 30q213 23 246 23q135 0 182 -83q20 -46 20 -80v-40q0 -46 -79 -119q-71 -51 -216 -70q-31 0 -43 -10q23 -209 33 -209q28 -13 53 -13h30q10 0 13 -36 q-16 -13 -119 -20q0 -4 -10 -4h-13q-210 -23 -223 -23l-10 13q0 4 4 4l-4 6v10q0 11 73 27q18 12 20 30l-59 497q-13 30 -97 30q-7 8 -10 37zM190 -315q0 99 3 272l7 3h176l6 -3q-3 -133 -3 -199v-43q0 -77 -10 -77h-173q-6 0 -6 7v40zM206 -66q4 -52 33 -269h24l20 113h6 v-4q0 -24 10 -109h20q8 0 50 269h-37q-12 -127 -20 -127h-3v4q-8 123 -16 123h-17q-13 -104 -13 -127h-7l-13 127h-37zM389 -309q20 223 26 252q196 -14 196 -23q-20 -225 -20 -245q-3 0 -3 -4q-155 14 -199 20zM392 746l33 -268v-10h4q71 0 129 53q23 26 23 89 q0 102 -73 136q-31 5 -53 10q-12 -6 -26 -6h-30zM409 -183v-29q10 -90 79 -90h17q86 16 86 123v6q0 76 -63 97q-18 3 -26 3q-80 0 -93 -110zM432 -189q0 89 60 103h16q46 0 57 -87v-33q0 -71 -57 -86h-16q-60 15 -60 103zM575 1291q0 -172 129 -216q27 -7 33 -7h63 q41 0 113 67q60 93 60 205q0 162 -130 213l-29 6h-50q-138 0 -186 -205q-3 -37 -3 -63zM618 -309q20 223 26 252q196 -14 196 -23q-20 -225 -20 -245q-3 0 -3 -4q-155 14 -199 20zM628 1311q0 180 109 219q12 6 27 6h13q65 0 103 -66q36 -61 36 -140v-43q0 -150 -106 -195 l-16 -4h-40q-42 0 -86 63q-40 71 -40 160zM638 -183v-29q10 -90 79 -90h17q86 16 86 123v6q0 76 -63 97q-18 3 -26 3q-80 0 -93 -110zM661 -189q0 89 60 103h16q46 0 57 -87v-33q0 -71 -57 -86h-16q-60 15 -60 103zM764 760q2 30 10 30h26q101 -10 123 -17h37q79 -11 79 -20 l3 -7q-66 -352 -66 -371v-23q16 -60 60 -60q18 -3 30 -3q45 0 89 46q50 276 50 292v10q-10 27 -50 43q-30 4 -30 13q0 40 20 40q18 -6 249 -33q10 -7 10 -13q-70 -402 -70 -422q0 -39 73 -53v-23q0 -23 -19 -23l-249 33q-7 11 -7 20q7 9 10 46h-7q-62 -42 -122 -49h-50 q-173 20 -173 162q0 34 47 305v10q-18 47 -53 47q-20 11 -20 20zM860 -242q0 64 83 76q17 0 43 -17v4l-10 99h-26q-7 0 -7 7v3q0 7 10 7q11 0 56 3q6 0 27 -239h16v203q1 6 7 6h166q0 -15 80 -23q3 0 10 -3q-24 -124 -24 -140q5 -13 17 -19h17q30 0 36 53q0 26 10 59 q0 19 -27 24v10l4 6q80 -10 89 -13q-23 -128 -23 -156q23 -13 23 -17v-3q0 -7 -6 -7q-66 7 -87 14l4 16v4h-4q-19 -17 -53 -17h-3q-38 0 -53 33h-3v-93q0 -6 -7 -6h-166q-7 0 -7 6v47q-41 -4 -49 -4q-4 6 -4 17q-21 -27 -59 -27h-7q-62 0 -73 87zM1019 936v584q0 4 10 10 h362l16 -4q-3 63 -6 83q11 7 20 7h332q16 0 16 -116l-6 -4h-54q-23 0 -36 -6l3 -17v-23q7 -146 7 -159l3 -17q0 -3 -3 -3l7 -40q0 -3 -4 -3l4 -20q0 -39 9 -176h-3l3 -7v-40q0 -6 -6 -6h-149q-5 0 -10 10q0 27 -27 494h-76q-8 -7 -14 -7q-6 4 -10 4v-544q0 -7 -6 -7h-375 q-7 0 -7 7zM1052 1005h7q5 0 10 10q0 6 -17 10v-20zM1052 1463h27v4q0 6 -7 6h-20v-10zM1066 -116v-4h13v4h-13zM1066 -322v-10h3q7 0 7 7l-7 3h-3zM1089 -216q0 -96 36 -96q0 -9 47 -13q17 0 20 10q-10 0 -10 6q6 4 10 4v6q-6 0 -20 14v3h-27q-4 0 -10 10v36q0 4 4 4l-4 6 q0 43 40 43q6 -3 13 -3v10q-6 8 -6 10v3q10 0 10 7v3q-26 14 -40 14h-3q-40 0 -60 -77zM1102 1251q0 -187 67 -203q51 -29 92 -29h27l33 10v3l-23 13q0 8 23 17v10q-16 0 -16 23q-8 0 -14 -3q-13 5 -13 10q0 3 3 3q-3 6 -3 10q-23 -7 -40 -7h-16q-24 8 -24 60v33q0 9 7 20 q-3 12 -3 13q12 90 73 90q0 3 6 3q11 -6 20 -6h14v3l-4 6q4 6 4 14l-17 20l30 20q-5 0 -43 26q-24 7 -27 7h-40q-48 0 -93 -87q-16 -40 -23 -79zM1185 1267l7 4q6 -1 6 -7l-6 -3q-7 0 -7 6zM1192 -246h13v4q-3 0 -10 3zM1198 1297h10q0 -6 -6 -6zM1205 -329v-6h10q7 0 7 6 v17q-5 0 -17 -17zM1218 -116v-7h4v7h-4zM1232 -123v-86h3q10 67 10 80q-8 6 -10 6h-3zM1321 1191l7 -3q6 3 10 3q11 -7 20 -7v4q0 6 -24 13q-13 -5 -13 -10zM1351 1005q1 -6 7 -6h26l7 20l-3 6q3 6 3 13v4h-7q-4 0 -33 -33v-4zM1378 1457l6 -4l7 10v4h-10q0 -4 -3 -10z M1421 846v20q2 20 10 20h43q9 0 89 -73q17 0 80 -70v-40q0 -13 -17 -26q6 0 17 -10h3q14 23 37 23h7q47 0 96 -63q6 0 53 -36h3q-6 150 -6 278l19 17h166q26 0 33 -37v-3q0 -96 -9 -96l9 -17v-76q0 -31 -73 -43l-3 -14h37q39 -5 39 -26q0 -14 7 -37v-56q0 -17 -3 -50 q6 -1 6 -6v-10q0 -14 4 -37q-7 -13 -7 -23q0 -36 7 -143q-4 -24 -4 -59q-10 -7 -19 -7h-14q-30 0 -139 99q-17 0 -126 113q-23 3 -120 93h-10q7 -21 7 -30v-69l-3 -20q10 -34 10 -70q-7 -21 -7 -27q0 -2 3 -43q0 -15 -43 -53h-30l-73 14q-23 -7 -39 -7h-4q-23 0 -23 20 q-3 167 -3 235l-4 24q7 11 7 20q-7 0 -7 6v27q0 41 4 76l-7 76q3 18 3 34l-3 13q0 3 3 3q-6 51 -6 166zM1437 -53l7 3h153q4 0 10 -10v-36q0 -7 -44 -10l10 -223q4 -6 4 -10l-7 -3h-66q-7 0 -7 7l-10 225h-36l-7 -3q-3 0 -7 60zM1613 -53l7 3h152q10 0 10 -13h233q6 -1 6 -7 q10 -227 10 -275q4 0 4 -3l-7 -4h-226q-13 0 -16 239q-4 7 -4 10h-26l-17 -3l10 -223q4 -6 4 -10l-7 -3h-66q-7 0 -7 7l-10 225h-37l-6 -3q-3 0 -7 60zM1792 1055q10 145 40 431q0 4 -3 4q10 109 16 109q206 -20 422 -36q3 -7 3 -10q-44 -541 -50 -541l-6 -3q-25 6 -388 36 h-14q-17 0 -20 10zM1826 -212q4 0 16 -17v-96h143v50h-86q-7 0 -7 6v27q1 6 7 6h59v50h-56q-7 0 -7 7v26q1 7 7 7h86v50h-146v-97zM1829 1287q0 -149 109 -205q40 -14 63 -14h53q50 4 110 63q63 82 63 216q0 144 -113 199q-36 13 -50 13h-53q-52 0 -109 -53 q-73 -87 -73 -219zM1885 1297v57q0 3 4 3q0 3 -4 3q13 92 50 133q45 42 83 43h23q93 0 130 -166v-106q0 -106 -93 -169q-3 0 -27 -7h-43q-58 0 -106 106q-17 51 -17 103zM1928 508l7 -4v4q-3 6 -3 10h-4v-10zM1932 464h10v7l-4 17h-6v-24zM2048 -47q1 7 6 7h90q0 17 7 17 h126q6 -1 6 -7v-295q0 -7 -6 -7h-130q0 -16 -6 -16h-87q-6 0 -6 6v295zM2074 -90v-232h50v83q0 5 20 10q1 7 7 7q17 -18 53 -83h60q-44 71 -73 103q46 25 46 66q0 60 -83 60h-7q0 -14 -6 -14h-67zM2081 843q0 10 289 30q0 3 10 3q78 0 122 10h10q60 0 123 10h40l17 3v-3l6 3 h20q14 0 23 -212q10 -65 50 -564v-17q0 -14 -385 -36q-6 -4 -10 -4v4q-116 -17 -245 -20q-9 0 -70 793zM2124 -136q0 4 20 10q0 13 10 13q27 0 30 -33q0 -21 -37 -37q0 -13 -6 -13h-10q-7 0 -7 7v53zM2254 693l46 -531h3l17 4v-4q11 7 20 7h23q22 0 66 3q-6 121 -13 153l7 3 q58 -71 103 -146h23q4 0 36 7h10q28 0 83 3v7q-169 243 -169 249q32 80 126 269v3h-156q-65 -166 -76 -166h-7q0 42 -6 83l3 7l-10 63l-7 -4q-92 -3 -122 -10zM2283 972v657q1 7 7 7h199l7 3l-4 7v16q0 5 10 10h286q6 -1 6 -6v-657q0 -7 -6 -7h-289v-30q0 -7 -7 -7h-202 q-7 0 -7 7zM2320 -342q0 21 36 30q30 -10 30 -33v-3q0 -26 -33 -30q-27 0 -33 36zM2340 1029l6 -4h97q6 0 6 7v179q0 3 10 10l17 -3h3l17 3l-4 17q2 6 7 6q43 -34 106 -152q17 -24 17 -30h126v3q-99 159 -146 206q-15 6 -17 13q100 52 100 100q7 23 7 39q0 110 -133 130h-60 v-20q0 -7 -7 -7h-146l-6 -3l3 -7v-481zM2410 -66l6 3h226q6 -1 6 -7q10 -227 10 -275q4 0 4 -3l-7 -4h-226q-11 0 -19 286zM2449 1307v126q0 5 10 10h37l-4 17v10q2 6 7 6h13q63 -9 63 -59q4 0 4 -10q0 -56 -80 -77q0 -33 -10 -33h-30q-4 0 -10 10zM2453 -212q4 0 16 -17 v-96h143v50h-86q-7 0 -7 6v27q1 6 7 6h59v50h-56q-7 0 -7 7v26q1 7 7 7h86v50h-146v-97zM2675 -252q0 12 36 13q-33 34 -33 43q0 26 4 93q42 40 59 40h90q29 0 63 -57v-9q0 -60 -23 -60h-20l40 -43l-4 -24v-43q-25 -59 -66 -59h-90q-20 0 -56 49v57zM2751 -249q9 -16 14 -17 h23q5 0 10 10q-11 7 -20 7h-27zM2765 -163v-6q0 -5 10 -10h36q-7 26 -13 26h-23q-5 0 -10 -10z" />
<glyph unicode="&#xf8;" horiz-adv-x="1168" d="M74 845q55 111 123 189q128 146 302 197l-16 242q8 9 88 10l16 -236q216 2 343 -109l-3 -3l10 -3q274 -240 144 -589q-35 -76 -122 -189q-116 -133 -303 -191q23 -248 20 -252q-5 -5 -85 -6l-4 3q2 3 -16 243q-214 -4 -360 124q-259 226 -137 570zM256 982 q-141 -161 181 -442q20 -18 118 -98q0 60 -44 563q-60 52 -176 31q-43 -14 -79 -54zM600 958l47 -565l7 -7q46 -40 179 -27q53 31 72 54q141 161 -198 457l-34 31q-23 20 -73 57z" />
<glyph unicode="&#xf9;" horiz-adv-x="1067" d="M-47 1193l10 54q2 9 10 7l446 -54l11 -21l-112 -638q-21 -123 76 -175l44 -8q102 -17 198 77l85 491q21 116 -118 140l-9 2q-6 1 -11 16l10 53q2 9 10 8l451 -56l10 -20l-123 -706q-20 -116 109 -139l14 -2q8 -3 7 -11l-9 -53q-1 -7 -16 -11l-437 53l-11 20l20 112l-5 1 q-163 -129 -370 -92q-184 32 -232 201q-18 81 8 234l66 375q15 88 -129 133zM62 1529q19 76 108 76q104 0 160 -108l168 -232q0 -5 -32 -32q-11 0 -340 192q-64 43 -64 104z" />
<glyph unicode="&#xfa;" horiz-adv-x="1067" d="M-38 1118l10 54q2 9 10 7l446 -54l11 -21l-112 -638q-21 -123 76 -175l44 -8q102 -17 198 77l85 491q21 116 -118 140l-9 2q-6 1 -11 16l10 53q2 9 10 8l451 -56l10 -20l-123 -706q-20 -116 109 -139l14 -2q8 -3 7 -11l-9 -53q-1 -7 -16 -11l-437 53l-11 20l20 112l-5 1 q-163 -129 -370 -92q-184 32 -232 201q-18 81 8 234l66 375q15 88 -129 133zM543 1259q-2 11 134 367q31 70 92 80q78 -7 93 -94q17 -103 -81 -176l-201 -203q-5 -1 -37 26z" />
<glyph unicode="&#xfb;" horiz-adv-x="1067" d="M-31 890l10 54q2 9 10 7l446 -54l11 -21l-112 -638q-21 -123 76 -175l44 -8q102 -17 198 77l85 491q21 116 -118 140l-9 2q-6 1 -11 16l10 53q2 9 10 8l451 -56l10 -20l-123 -706q-20 -116 109 -139l14 -2q8 -3 7 -11l-9 -53q-1 -7 -16 -11l-437 53l-11 20l20 112l-5 1 q-163 -129 -370 -92q-184 32 -232 201q-18 81 8 234l66 375q15 88 -129 133zM55 1006v8q354 558 368 572h108q16 -15 368 -572v-8h-156q-33 37 -264 420q-256 -408 -268 -420h-156z" />
<glyph unicode="&#xfc;" horiz-adv-x="1067" d="M-41 1219l10 54q2 9 10 7l446 -54l11 -21l-112 -638q-21 -123 76 -175l44 -8q102 -17 198 77l85 491q21 116 -118 140l-9 2q-6 1 -11 16l10 53q2 9 10 8l451 -56l10 -20l-123 -706q-20 -116 109 -139l14 -2q8 -3 7 -11l-9 -53q-1 -7 -16 -11l-437 53l-11 20l20 112l-5 1 q-163 -129 -370 -92q-184 32 -232 201q-18 81 8 234l66 375q15 88 -129 133zM39 1461v20q0 117 132 164q14 0 36 4q110 0 160 -132l4 -36q0 -112 -132 -160l-36 -4q-121 0 -164 144zM553 1484v20q0 117 132 164q14 0 36 4q110 0 160 -132l4 -36q0 -112 -132 -160l-36 -4 q-121 0 -164 144z" />
<glyph unicode="&#xfd;" horiz-adv-x="1253" d="M347 1004q44 -70 163 -153q31 -17 80 -67v-3q-37 -118 -106 -256q-35 -32 -54 -183q-43 -71 -43 -89v-10q0 -26 73 -80h4q52 21 109 203q38 66 140 226q22 44 53 146q133 244 163 332q-37 23 -60 23h-26q-65 0 -183 -162q-17 -17 -30 -17q-46 28 -146 113q-39 27 -73 27 q-26 0 -64 -50zM660 1204q-2 11 134 367q31 70 92 80q78 -7 93 -94q17 -103 -81 -176l-201 -203q-5 -1 -37 26z" />
<glyph unicode="&#xfe;" horiz-adv-x="3018" d="M110 1184v10q0 115 136 163l47 3q46 0 89 -36h3q-19 188 -26 229q-33 -7 -60 -7q-5 0 -10 10v17q0 12 140 20h3q13 0 17 -103q6 -11 43 -402v-6q1 -7 6 -7h33q13 0 37 362q6 26 17 159q6 3 10 3q46 -6 418 -36q3 -7 3 -10q-43 -501 -50 -541q-6 -3 -10 -3q-11 6 -20 6 h-23l-345 30q-16 -7 -149 -13q-4 5 -7 40q-41 -63 -123 -63h-30q-49 4 -109 63q-40 60 -40 112zM113 760q0 9 209 30q213 23 246 23q135 0 182 -83q20 -46 20 -80v-40q0 -46 -79 -119q-71 -51 -216 -70q-31 0 -43 -10q23 -209 33 -209q28 -13 53 -13h30q10 0 13 -36 q-16 -13 -119 -20q0 -4 -10 -4h-13q-210 -23 -223 -23l-10 13q0 4 4 4l-4 6v10q0 11 73 27q18 12 20 30l-59 497q-13 30 -97 30q-7 8 -10 37zM190 -315q0 99 3 272l7 3h176l6 -3q-3 -133 -3 -199v-43q0 -77 -10 -77h-173q-6 0 -6 7v40zM206 -66q4 -52 33 -269h24l20 113h6 v-4q0 -24 10 -109h20q8 0 50 269h-37q-12 -127 -20 -127h-3v4q-8 123 -16 123h-17q-13 -104 -13 -127h-7l-13 127h-37zM389 -309q20 223 26 252q196 -14 196 -23q-20 -225 -20 -245q-3 0 -3 -4q-155 14 -199 20zM392 746l33 -268v-10h4q71 0 129 53q23 26 23 89 q0 102 -73 136q-31 5 -53 10q-12 -6 -26 -6h-30zM409 -183v-29q10 -90 79 -90h17q86 16 86 123v6q0 76 -63 97q-18 3 -26 3q-80 0 -93 -110zM432 -189q0 89 60 103h16q46 0 57 -87v-33q0 -71 -57 -86h-16q-60 15 -60 103zM575 1291q0 -172 129 -216q27 -7 33 -7h63 q41 0 113 67q60 93 60 205q0 162 -130 213l-29 6h-50q-138 0 -186 -205q-3 -37 -3 -63zM618 -309q20 223 26 252q196 -14 196 -23q-20 -225 -20 -245q-3 0 -3 -4q-155 14 -199 20zM628 1311q0 180 109 219q12 6 27 6h13q65 0 103 -66q36 -61 36 -140v-43q0 -150 -106 -195 l-16 -4h-40q-42 0 -86 63q-40 71 -40 160zM638 -183v-29q10 -90 79 -90h17q86 16 86 123v6q0 76 -63 97q-18 3 -26 3q-80 0 -93 -110zM661 -189q0 89 60 103h16q46 0 57 -87v-33q0 -71 -57 -86h-16q-60 15 -60 103zM764 760q2 30 10 30h26q101 -10 123 -17h37q79 -11 79 -20 l3 -7q-66 -352 -66 -371v-23q16 -60 60 -60q18 -3 30 -3q45 0 89 46q50 276 50 292v10q-10 27 -50 43q-30 4 -30 13q0 40 20 40q18 -6 249 -33q10 -7 10 -13q-70 -402 -70 -422q0 -39 73 -53v-23q0 -23 -19 -23l-249 33q-7 11 -7 20q7 9 10 46h-7q-62 -42 -122 -49h-50 q-173 20 -173 162q0 34 47 305v10q-18 47 -53 47q-20 11 -20 20zM860 -242q0 64 83 76q17 0 43 -17v4l-10 99h-26q-7 0 -7 7v3q0 7 10 7q11 0 56 3q6 0 27 -239h16v203q1 6 7 6h166q0 -15 80 -23q3 0 10 -3q-24 -124 -24 -140q5 -13 17 -19h17q30 0 36 53q0 26 10 59 q0 19 -27 24v10l4 6q80 -10 89 -13q-23 -128 -23 -156q23 -13 23 -17v-3q0 -7 -6 -7q-66 7 -87 14l4 16v4h-4q-19 -17 -53 -17h-3q-38 0 -53 33h-3v-93q0 -6 -7 -6h-166q-7 0 -7 6v47q-41 -4 -49 -4q-4 6 -4 17q-21 -27 -59 -27h-7q-62 0 -73 87zM1019 936v584q0 4 10 10 h362l16 -4q-3 63 -6 83q11 7 20 7h332q16 0 16 -116l-6 -4h-54q-23 0 -36 -6l3 -17v-23q7 -146 7 -159l3 -17q0 -3 -3 -3l7 -40q0 -3 -4 -3l4 -20q0 -39 9 -176h-3l3 -7v-40q0 -6 -6 -6h-149q-5 0 -10 10q0 27 -27 494h-76q-8 -7 -14 -7q-6 4 -10 4v-544q0 -7 -6 -7h-375 q-7 0 -7 7zM1052 1005h7q5 0 10 10q0 6 -17 10v-20zM1052 1463h27v4q0 6 -7 6h-20v-10zM1066 -116v-4h13v4h-13zM1066 -322v-10h3q7 0 7 7l-7 3h-3zM1089 -216q0 -96 36 -96q0 -9 47 -13q17 0 20 10q-10 0 -10 6q6 4 10 4v6q-6 0 -20 14v3h-27q-4 0 -10 10v36q0 4 4 4l-4 6 q0 43 40 43q6 -3 13 -3v10q-6 8 -6 10v3q10 0 10 7v3q-26 14 -40 14h-3q-40 0 -60 -77zM1102 1251q0 -187 67 -203q51 -29 92 -29h27l33 10v3l-23 13q0 8 23 17v10q-16 0 -16 23q-8 0 -14 -3q-13 5 -13 10q0 3 3 3q-3 6 -3 10q-23 -7 -40 -7h-16q-24 8 -24 60v33q0 9 7 20 q-3 12 -3 13q12 90 73 90q0 3 6 3q11 -6 20 -6h14v3l-4 6q4 6 4 14l-17 20l30 20q-5 0 -43 26q-24 7 -27 7h-40q-48 0 -93 -87q-16 -40 -23 -79zM1185 1267l7 4q6 -1 6 -7l-6 -3q-7 0 -7 6zM1192 -246h13v4q-3 0 -10 3zM1198 1297h10q0 -6 -6 -6zM1205 -329v-6h10q7 0 7 6 v17q-5 0 -17 -17zM1218 -116v-7h4v7h-4zM1232 -123v-86h3q10 67 10 80q-8 6 -10 6h-3zM1321 1191l7 -3q6 3 10 3q11 -7 20 -7v4q0 6 -24 13q-13 -5 -13 -10zM1351 1005q1 -6 7 -6h26l7 20l-3 6q3 6 3 13v4h-7q-4 0 -33 -33v-4zM1378 1457l6 -4l7 10v4h-10q0 -4 -3 -10z M1421 846v20q2 20 10 20h43q9 0 89 -73q17 0 80 -70v-40q0 -13 -17 -26q6 0 17 -10h3q14 23 37 23h7q47 0 96 -63q6 0 53 -36h3q-6 150 -6 278l19 17h166q26 0 33 -37v-3q0 -96 -9 -96l9 -17v-76q0 -31 -73 -43l-3 -14h37q39 -5 39 -26q0 -14 7 -37v-56q0 -17 -3 -50 q6 -1 6 -6v-10q0 -14 4 -37q-7 -13 -7 -23q0 -36 7 -143q-4 -24 -4 -59q-10 -7 -19 -7h-14q-30 0 -139 99q-17 0 -126 113q-23 3 -120 93h-10q7 -21 7 -30v-69l-3 -20q10 -34 10 -70q-7 -21 -7 -27q0 -2 3 -43q0 -15 -43 -53h-30l-73 14q-23 -7 -39 -7h-4q-23 0 -23 20 q-3 167 -3 235l-4 24q7 11 7 20q-7 0 -7 6v27q0 41 4 76l-7 76q3 18 3 34l-3 13q0 3 3 3q-6 51 -6 166zM1437 -53l7 3h153q4 0 10 -10v-36q0 -7 -44 -10l10 -223q4 -6 4 -10l-7 -3h-66q-7 0 -7 7l-10 225h-36l-7 -3q-3 0 -7 60zM1613 -53l7 3h152q10 0 10 -13h233q6 -1 6 -7 q10 -227 10 -275q4 0 4 -3l-7 -4h-226q-13 0 -16 239q-4 7 -4 10h-26l-17 -3l10 -223q4 -6 4 -10l-7 -3h-66q-7 0 -7 7l-10 225h-37l-6 -3q-3 0 -7 60zM1792 1055q10 145 40 431q0 4 -3 4q10 109 16 109q206 -20 422 -36q3 -7 3 -10q-44 -541 -50 -541l-6 -3q-25 6 -388 36 h-14q-17 0 -20 10zM1826 -212q4 0 16 -17v-96h143v50h-86q-7 0 -7 6v27q1 6 7 6h59v50h-56q-7 0 -7 7v26q1 7 7 7h86v50h-146v-97zM1829 1287q0 -149 109 -205q40 -14 63 -14h53q50 4 110 63q63 82 63 216q0 144 -113 199q-36 13 -50 13h-53q-52 0 -109 -53 q-73 -87 -73 -219zM1885 1297v57q0 3 4 3q0 3 -4 3q13 92 50 133q45 42 83 43h23q93 0 130 -166v-106q0 -106 -93 -169q-3 0 -27 -7h-43q-58 0 -106 106q-17 51 -17 103zM1928 508l7 -4v4q-3 6 -3 10h-4v-10zM1932 464h10v7l-4 17h-6v-24zM2048 -47q1 7 6 7h90q0 17 7 17 h126q6 -1 6 -7v-295q0 -7 -6 -7h-130q0 -16 -6 -16h-87q-6 0 -6 6v295zM2074 -90v-232h50v83q0 5 20 10q1 7 7 7q17 -18 53 -83h60q-44 71 -73 103q46 25 46 66q0 60 -83 60h-7q0 -14 -6 -14h-67zM2081 843q0 10 289 30q0 3 10 3q78 0 122 10h10q60 0 123 10h40l17 3v-3l6 3 h20q14 0 23 -212q10 -65 50 -564v-17q0 -14 -385 -36q-6 -4 -10 -4v4q-116 -17 -245 -20q-9 0 -70 793zM2124 -136q0 4 20 10q0 13 10 13q27 0 30 -33q0 -21 -37 -37q0 -13 -6 -13h-10q-7 0 -7 7v53zM2254 693l46 -531h3l17 4v-4q11 7 20 7h23q22 0 66 3q-6 121 -13 153l7 3 q58 -71 103 -146h23q4 0 36 7h10q28 0 83 3v7q-169 243 -169 249q32 80 126 269v3h-156q-65 -166 -76 -166h-7q0 42 -6 83l3 7l-10 63l-7 -4q-92 -3 -122 -10zM2283 972v657q1 7 7 7h199l7 3l-4 7v16q0 5 10 10h286q6 -1 6 -6v-657q0 -7 -6 -7h-289v-30q0 -7 -7 -7h-202 q-7 0 -7 7zM2320 -342q0 21 36 30q30 -10 30 -33v-3q0 -26 -33 -30q-27 0 -33 36zM2340 1029l6 -4h97q6 0 6 7v179q0 3 10 10l17 -3h3l17 3l-4 17q2 6 7 6q43 -34 106 -152q17 -24 17 -30h126v3q-99 159 -146 206q-15 6 -17 13q100 52 100 100q7 23 7 39q0 110 -133 130h-60 v-20q0 -7 -7 -7h-146l-6 -3l3 -7v-481zM2410 -66l6 3h226q6 -1 6 -7q10 -227 10 -275q4 0 4 -3l-7 -4h-226q-11 0 -19 286zM2449 1307v126q0 5 10 10h37l-4 17v10q2 6 7 6h13q63 -9 63 -59q4 0 4 -10q0 -56 -80 -77q0 -33 -10 -33h-30q-4 0 -10 10zM2453 -212q4 0 16 -17 v-96h143v50h-86q-7 0 -7 6v27q1 6 7 6h59v50h-56q-7 0 -7 7v26q1 7 7 7h86v50h-146v-97zM2675 -252q0 12 36 13q-33 34 -33 43q0 26 4 93q42 40 59 40h90q29 0 63 -57v-9q0 -60 -23 -60h-20l40 -43l-4 -24v-43q-25 -59 -66 -59h-90q-20 0 -56 49v57zM2751 -249q9 -16 14 -17 h23q5 0 10 10q-11 7 -20 7h-27zM2765 -163v-6q0 -5 10 -10h36q-7 26 -13 26h-23q-5 0 -10 -10z" />
<glyph unicode="&#xff;" horiz-adv-x="1253" d="M52 -180q23 189 23 737q-3 407 -13 645q3 0 3 3q101 -23 316 -23h37l16 3v-3q7 3 10 3q607 37 698 37h10q7 -1 7 -7q0 -46 6 -561q4 -19 4 -27h-4l4 -6q13 -612 29 -612q20 -116 20 -282q0 -92 -20 -130q-238 13 -292 13q-14 0 -100 -6q-101 30 -192 30l-14 -4v4 q-6 -4 -10 -4q-299 -23 -345 -23h-17q-108 0 -136 50q-40 78 -40 163zM191 1429v20q0 117 132 164q14 0 36 4q110 0 160 -132l4 -36q0 -112 -132 -160l-36 -4q-121 0 -164 144zM347 1004q44 -70 163 -153q31 -17 80 -67v-3q-37 -118 -106 -256q-35 -32 -54 -183 q-43 -71 -43 -89v-10q0 -26 73 -80h4q52 21 109 203q38 66 140 226q22 44 53 146q133 244 163 332q-37 23 -60 23h-26q-65 0 -183 -162q-17 -17 -30 -17q-46 28 -146 113q-39 27 -73 27q-26 0 -64 -50zM705 1452v20q0 117 132 164q14 0 36 4q110 0 160 -132l4 -36 q0 -112 -132 -160l-36 -4q-121 0 -164 144z" />
<glyph unicode="&#x2c6;" horiz-adv-x="1024" />
<glyph unicode="&#x2dc;" horiz-adv-x="1024" />
<glyph unicode="&#x2000;" horiz-adv-x="853" />
<glyph unicode="&#x2001;" horiz-adv-x="1706" />
<glyph unicode="&#x2002;" horiz-adv-x="853" />
<glyph unicode="&#x2003;" horiz-adv-x="1706" />
<glyph unicode="&#x2004;" horiz-adv-x="568" />
<glyph unicode="&#x2005;" horiz-adv-x="426" />
<glyph unicode="&#x2006;" horiz-adv-x="284" />
<glyph unicode="&#x2007;" horiz-adv-x="284" />
<glyph unicode="&#x2008;" horiz-adv-x="213" />
<glyph unicode="&#x2009;" horiz-adv-x="341" />
<glyph unicode="&#x200a;" horiz-adv-x="94" />
<glyph unicode="&#x2010;" horiz-adv-x="670" d="M62 603v168q1 8 8 8h488q8 -1 8 -8v-168q0 -8 -8 -8h-488q-8 0 -8 8z" />
<glyph unicode="&#x2011;" horiz-adv-x="670" d="M62 603v168q1 8 8 8h488q8 -1 8 -8v-168q0 -8 -8 -8h-488q-8 0 -8 8z" />
<glyph unicode="&#x2012;" horiz-adv-x="670" d="M62 603v168q1 8 8 8h488q8 -1 8 -8v-168q0 -8 -8 -8h-488q-8 0 -8 8z" />
<glyph unicode="&#x2013;" horiz-adv-x="1108" />
<glyph unicode="&#x2014;" horiz-adv-x="2048" />
<glyph unicode="&#x2018;" horiz-adv-x="557" />
<glyph unicode="&#x2019;" horiz-adv-x="557" />
<glyph unicode="&#x201a;" horiz-adv-x="557" />
<glyph unicode="&#x201c;" horiz-adv-x="910" />
<glyph unicode="&#x201d;" horiz-adv-x="910" />
<glyph unicode="&#x201e;" horiz-adv-x="910" />
<glyph unicode="&#x2022;" horiz-adv-x="1024" />
<glyph unicode="&#x2026;" horiz-adv-x="2048" />
<glyph unicode="&#x202f;" horiz-adv-x="341" />
<glyph unicode="&#x2039;" horiz-adv-x="631" />
<glyph unicode="&#x203a;" horiz-adv-x="631" />
<glyph unicode="&#x205f;" horiz-adv-x="426" />
<glyph unicode="&#x20ac;" horiz-adv-x="1014" d="M17 1028q26 72 32 74h48v99h-74q-6 0 -6 6q26 72 32 74h58q5 0 25 70q134 295 438 295h23q105 0 236 -61q6 11 39 35h51l6 -3q3 -83 7 -339l-7 -3h-48q-8 2 -45 105q-91 198 -230 198h-25q-133 0 -183 -163q-25 -88 -25 -134h224l6 -3q-26 -77 -35 -77h-202v-67l4 -32 h159l7 -3q-28 -77 -35 -77h-125q10 -102 67 -192q67 -83 186 -83q169 0 287 201h4q54 -28 54 -38q-133 -259 -409 -259q-281 0 -416 253q-26 54 -38 118h-84q-6 0 -6 6z" />
<glyph unicode="&#x2122;" horiz-adv-x="1602" d="M107 1622h2q15 -44 29 -92l3 -9t5 -11.5t6 -6.5q2 0 4.5 4.5t4.5 10.5t3 11q1 3 2 5q1 3 2 7q6 14 8 27q-1 16 -10 31q-6 12 -7 22q4 -1 6 -4.5t3 -8.5q1 -2 1 -4q1 -2 1 -4q2 -5 3.5 -9.5t4.5 -5.5q4 0 6.5 5l4.5 9q1 2 1 3q2 4 3 7q2 8 7 12q0 -12 -5 -22q-3 -5 -6 -9 q-7 -8 -8 -19q1 -10 7 -22l4 -12q1 -2 2 -5q1 -5 3 -11t4 -10.5t5 -4.5q2 0 4.5 4t4 10l2.5 10q1 3 1 4q6 22 14 42q4 9 7 18q1 3 2 5q3 13 11 22q-1 -13 -8 -26q-1 -4 -3 -8q-19 -50 -34 -105q-2 2 -3 5l-2 6q0 4 -1 7q-3 10 -7 19l-6 18q0 1 -1 3q-1 4 -2.5 8t-4.5 4 q-4 0 -5.5 -4t-2.5 -9q0 -2 -1 -3q-2 -9 -5 -16q-1 -1 -1 -2q-5 -12 -8 -24q-1 -6 -3 -12q-3 1 -4 3.5t-1 4.5t-1 4q-2 8 -6 15q-3 7 -6 15q-3 9 -6 19q-1 7 -3 13q-2 8 -6 16q-3 7 -5 15q-4 9 -6.5 18.5t-2.5 16.5zM126 1619h2q15 -43 29 -92l3 -9t4.5 -11.5t5.5 -5.5 t5.5 4t4 10t3.5 11q1 3 1 5q2 4 3 8q6 14 7 27q-1 15 -9 30q-6 12 -8 22q4 -1 6 -4.5t4 -8.5q0 -2 1 -4q0 -2 1 -4q1 -5 3 -9.5t5 -4.5q4 0 6.5 4.5t4.5 9.5q1 1 1 2q2 4 3 7q2 8 6 12q0 -12 -5 -21q-2 -5 -5 -10q-7 -8 -8 -19q0 -10 6 -21q3 -6 5 -12q1 -2 2 -6q1 -5 3 -11 t4 -10.5t5 -4.5q2 0 4 4t4 10t3 10q0 3 1 5q6 21 14 41q3 9 7 18l2 6q3 12 10 21q-1 -13 -7 -26q-2 -4 -3 -8q-19 -49 -34 -105q-3 2 -4 5t-1 7q0 3 -1 6q-4 10 -7 20q-3 8 -6 17q-1 1 -1 3q-1 4 -3 8t-5 4t-4.5 -4t-2.5 -8q-1 -2 -1 -4q-3 -9 -6 -16v-2q-5 -12 -8 -24 l-4 -12q-3 2 -3.5 4t-0.5 4q-1 2 -1 4l-6 16q-4 7 -6 14q-3 9 -6 19q-1 7 -3 14q-3 7 -6 15q-3 7 -6 15q-3 9 -5.5 18.5t-2.5 16.5zM254 826q-1 27 10 51q3 7 5 14q3 8 5 16q3 15 9 24t22 3q-2 -20 5 -46q4 -20 5.5 -39t-8.5 -34q-7 -10 -19 -13t-22 2t-12 22zM255 1560 q-3 62 48 70q10 1 21 -0.5t18 -5.5q6 -3 13 -10t11 -14q4 -9 5.5 -22.5t1.5 -24.5v-2q1 -28 -8 -46q-5 -7 -17.5 -14.5t-22.5 -9.5q-20 -5 -33.5 2.5t-21.5 21.5q-7 10 -10.5 25t-4.5 30zM264 1594q-10 -29 1 -66q4 -15 15 -28t22 -17q5 -1 11 -0.5t11 2.5q11 3 22 9.5 t15 13.5q6 9 7.5 23t1.5 26q0 9 -2 20.5t-5 18.5q-4 7 -11.5 14.5t-14.5 11.5q-5 2 -13.5 3.5t-14.5 1.5q-35 -4 -45 -33zM274 1557q-4 62 48 70q10 2 21 0t17 -5t13.5 -10.5t10.5 -13.5q5 -10 6.5 -23.5t0.5 -24.5v-2q1 -28 -7 -46q-5 -7 -17.5 -14.5t-22.5 -9.5 q-20 -5 -33.5 3t-21.5 21q-7 10 -10.5 25t-4.5 30zM281 642.5q1 30.5 16 42.5q18 10 37 3.5t31 -16.5q-13 82 -14.5 165t2.5 159q2 38 10.5 71.5t18.5 64.5q1 1 1 3q12 33 33 57l16 22l8 10q6 8 10 14l2 6t2 5q3 6 8 11t9 11q10 16 24 33.5t27 29.5q24 21 60.5 37.5 t72.5 27.5q8 2 15 4q31 10 63 18q87 16 188 4l26 -2q34 -1 63 -7l8 -4t9 -4q27 -7 48.5 -17.5t35.5 -29.5q41 -21 74 -53q4 -3 7 -7q23 -19 41 -39q5 -7 9 -15t9 -15q4 -5 9 -11q7 -7 12 -14l8 -16q3 -8 7 -16q4 -6 9 -12l10 -16q23 -40 34 -88t6 -104q-1 -3 -1 -7 q0 -5 -1 -10.5t-6 -8.5q-6 3 -8.5 8.5t-3.5 11.5q-2 5 -3 9q-8 17 -16 29q0 -25 -4 -51v-3q-2 -11 -5 -21.5t-12 -11.5q-7 1 -11.5 11.5t-7.5 22.5q-2 11 -5 17l-2 -14q-1 -29 -11 -49q0 -60 -6 -118q-8 -64 -5 -137q5 3 11 8q10 9 24 16t31 3q16 -6 27 -25t11 -41 q-2 -19 -12 -37q-4 -8 -7 -15l-4 -10q-3 -8 -6 -15q-2 -5 -5 -9q-5 -7 -7 -15q-6 -23 -6 -49q0 -20 -4 -40l-6 -24l-4 -16q-2 -13 -3 -24q-2 -20 -10 -36q3 -3 3.5 -7t0.5 -8q-1 -5 0 -10q0 -4 3 -8q2 -5 3 -9q0 -7 -3 -15t-3 -17q0 -6 2 -12q2 -5 2 -10t-3.5 -9.5 t-7.5 -7.5q-7 -6 -9 -12q1 -8 2 -17q3 -23 1 -42q-4 -20 -17 -33q-11 -12 -15 -28q-10 -8 -18 -18q1 -7 -1 -13t-5 -13q-5 -8 -7 -18q-1 -14 0 -27q1 -10 0.5 -19.5t-7.5 -18.5q-7 -8 -15 -13q-6 -3 -11 -7.5t-8 -12.5q2 -23 -5 -38t-17 -28q-5 -6 -9 -13q-8 -10 -18 -14 q-7 -3 -14 -8q-8 -8 -11 -20q-3 -8 -7 -16q-14 -21 -37 -35t-36 -33q-3 -5 -6 -11q-4 -11 -10.5 -20t-17.5 -12q-6 -1 -13 0q-10 2 -18 -2q-4 -2 -6 -6q-2 -2 -4 -4.5t-5 -2.5q-13 -3 -35 -1q-11 1 -22 1h-56q-21 0 -41 -1q-39 -2 -71 1q-8 1 -20.5 6t-23.5 10.5t-15 8.5 q-6 6 -10.5 14.5t-7.5 16.5q-2 5 -4 9q-6 4 -16 5q-9 1 -17 5q-7 5 -12 14q-4 6 -9 11t-12 10t-13 9q-3 2 -8 3q-4 1 -7 4q-13 10 -25 27l-14 18l-8 8q-9 9 -18.5 19.5t-12.5 17.5q-4 16 1 32q2 9 3 17q-1 12 -8.5 25t-16.5 24q-4 5 -9 10q-9 7 -14 17q-5 16 -4 31 q1 14 -3 24q-7 14 -16 22q-7 8 -12.5 17t-6.5 24q-1 8 1 18q3 16 -1 29q-3 5 -8 8t-11 6q-7 3 -12.5 7t-7.5 11q-2 13 1.5 22t8.5 17q5 7 8 15q4 10 5 21q1 6 2 13q-1 2 -3 5q-12 16 -15 41q0 11 2 25q1 9 2 19v23t1 23q1 7 2 15q2 11 1.5 20.5t-7.5 16.5q3 7 3 13t-4 12 q0 3 1 4t2 1l2 2t1 3q-2 6 -7 12q-4 5 -7 11q-4 9 -7 23q-2 15 -8 30q-3 9 -8 15q-5 7 -8 15q-6 21 -5 51.5zM282.5 1591q-9.5 -29 0.5 -66q5 -15 16 -28t22 -16q5 -2 11 -1t11 2q10 3 21 9.5t16 13.5q5 9 7 23t1 27q0 8 -2 19.5t-5 18.5t-11 15t-14 11q-5 2 -14 3.5 t-14 1.5q-36 -4 -45.5 -33zM293.5 633.5q-0.5 -23.5 7.5 -44.5q3 -5 7 -11t7 -14q4 -11 6 -23q3 -17 9 -31q6 -10 13 -17q8 -8 13 -17q-1 27 5 52t7 54q-17 21 -38 39l-3 3q-7 7 -14 10q-3 1 -6 1q-4 0 -7 1t-4 7q6 7 15.5 5t16.5 -6q10 -8 19 -19q11 -12 19 -17q0 12 3 21 q4 9 2 18q-3 9 -16 19t-25 13q-7 1 -14 -0.5t-13 -3.5q-9 -16 -9.5 -39.5zM365 968.5q-6 -100.5 1 -199.5q2 -22 5 -43q2 -9 3 -18q1 -7 1 -14q1 -17 5 -31q1 -3 2 -5q2 -4 3 -8q0 -13 -3 -26q-3 -11 -3 -21q-1 -10 0 -21q2 -14 1 -29q-2 -16 -7 -31q-7 -23 -4 -41 q2 -5 7 -9q7 -5 10 -13q2 -8 1 -18q-1 -7 0 -14q3 -14 8 -26q6 -14 7 -26q-8 -14 -5 -38q2 -15 5 -31q3 -11 4 -20q1 -6 1 -13q0 -8 2 -14q2 -4 6 -8q6 -4 8 -11q3 -12 1 -24t1 -25q13 0 17 -11t4 -25q1 -14 4 -24q8 -3 15 -3t14 -2q10 -5 13 -13t4 -19q0 -10 3 -22 q1 -4 4 -8t4 -9q1 -3 1 -7v-6q2 -5 5 -9q4 -4 5 -8q2 -11 0 -22q-1 -7 -0.5 -14t6.5 -11q7 3 7 9.5t-1 14.5q-2 7 -2 13q0 11 3.5 24.5t7.5 23.5q11 27 32 43.5t48 27.5q31 17 68 19q-6 19 -20 31l-12 12q0 1 -1 2q-5 5 -9.5 12.5t-5.5 16.5q0 5 2.5 9.5t5.5 8.5q5 6 7 14 q1 5 1 10q-1 5 0 10q2 6 7 11q3 5 5 9q6 16 8 32q1 13 4 25q-6 6 -9.5 16.5t-3.5 22.5q1 10 5.5 20.5t8.5 19.5q5 8 7 14q1 3 2 8q1 7 3 13t7 6t5.5 -5t-1 -11t-3.5 -10v-1q-3 -9 -8 -19q-6 -13 -10 -26.5t1 -28.5q2 -5 6 -10q4 -4 6.5 -9.5t0.5 -13.5q0 -2 -1.5 -3.5 l-2.5 -2.5q-3 -2 -4 -5q-2 -8 -3 -14q-1 -11 -6 -23q-2 -4 -5 -8q-5 -6 -7 -12v-8q1 -5 0 -9q-2 -7 -7 -13q-3 -4 -5 -8t-2 -8q0 -9 6.5 -16.5t13.5 -14.5q7 -6 11 -12q8 -10 13 -21q5 -12 14 -22q19 -12 40 -6t38 18q7 5 12 10q7 7 15.5 12t23.5 4q5 0 11 -2q7 -2 13 -1 q15 4 20 24.5t-4 35.5q-5 6 -13 9q-5 2 -8.5 5.5t-1.5 11.5q18 -1 30 -13q17 -22 9.5 -51.5t-32.5 -35.5q-10 0 -20 2q-11 2 -20 1t-13 -11q12 1 22 -4t18 -11q12 -10 25 -13q4 0 8 1q5 2 10 1q6 -1 11 -7q4 -3 7 -6q6 -3 11.5 -6.5t9.5 -5.5q15 -5 28 -7q20 -2 35 -12 q5 -6 8 -13q2 -6 6 -12q4 -5 9 -10t8 -9q2 -4 3 -8q2 -5 4 -8.5t6 -6.5q4 10 10 18l8 12l2 4q4 6 8 14.5t5 15.5q0 4 -2 9q-2 3 -2 7q0 3 1 6v7q0 10 -2 20q-3 17 -1 29t17 14q4 1 9 -2q4 -1 8 -1q4 1 8 4q3 4 9 5q7 2 13 1q5 0 12 1q28 24 30 74v8q-1 5 -1 10q2 8 8 15 q5 8 7 15q2 19 0 37q-1 15 0 29t8 26q-1 22 1 46q1 22 0 45q0 16 -2 31q-3 19 -2.5 35.5t9.5 29.5q-3 7 -7 14q-6 11 -10 22.5t3 25.5q11 2 23 4q4 -6 9 -12q2 -4 5 -8h0.5h0.5h1q-1 1 -1 1.5v0.5q-1 0 -1 1q-2 78 6 145l4 42q1 17 0 34q-1 15 0 30q0 4 1 9q2 7 1 14 q-1 9 -4 19l-4 22q-3 23 -7.5 40t-10.5 34q-2 8 -5 17q-12 35 -31 58q-9 13 -16 26q-6 9 -10 19q-5 13 -12 25q-11 14 -28 28q-4 4 -9 8q-8 8 -19 16.5t-18 10.5q-5 0 -12 -1.5t-14 -3.5t-13 -4q-22 -5 -38 -9q-73 -21 -155 -27q-4 -1 -9 -1q-12 -2 -24 -3q-33 -6 -64 -5 q-19 2 -41 8q-6 1 -11 2q-6 1 -11 2q-23 4 -39 10q-22 11 -36 26q-3 3 -7 6q-10 9 -19 16q-12 9 -25 21l-7 7q-4 5 -8 8.5t-7 4.5q-9 0 -14 -5.5t-9 -12.5q-1 -1 -2 -3q-18 -10 -27 -30l-3 -1.5t-3 -0.5q-1 0 -2 -0.5t-2 -1.5q-11 -22 -29 -40q-20 -21 -33 -50 q-27 -72 -33 -172.5zM374 998q-1 6 3 7.5t8.5 -0.5t5.5 -6l-0.5 -0.5t-0.5 -1.5l-0.5 -1l-0.5 -1q-4 -3 -8.5 -1.5t-6.5 4.5zM375.5 759.5q1.5 2.5 4.5 2t5.5 -2.5t1 -5t-9.5 -5q-3 8 -1.5 10.5zM376 961q0 4 2.5 5.5t5.5 1t5 -2.5q2 -5 -1 -7.5t-7 -1.5t-5 5zM377 907 q0 6 2.5 9.5t6.5 4t7 -2.5q0 -8 -5 -12t-11 1zM379 874q3 3 7 3t6.5 -3t1.5 -8q-3 -3 -6.5 -2.5t-6.5 3.5t-2 7zM383 1560q-3 62 48 70q10 1 21 -0.5t17 -5.5q6 -3 13.5 -10t10.5 -14q5 -9 6.5 -22.5t0.5 -24.5v-2q0 -13 -1 -25.5t-6 -20.5q-5 -7 -17.5 -14.5t-22.5 -9.5 q-20 -5 -33.5 2.5t-21.5 21.5q-7 10 -10.5 25t-4.5 30zM385 821q-1 2 1.5 3.5t5.5 1.5t3.5 -2t-3.5 -8q-6 3 -7 5zM389.5 1058q0.5 4 3.5 5h3q3 0 4 -4t0 -8t-3 -4h-3q-3 0 -4 3.5t-0.5 7.5zM391.5 1594q-9.5 -29 1.5 -66q4 -15 15 -28t22 -17q5 -1 11 -0.5t11 2.5 q10 3 21.5 9.5t15.5 13.5q5 9 7 23t2 26q-1 9 -3 20.5t-4 18.5q-4 7 -11.5 14.5t-14.5 11.5q-5 2 -13.5 3.5t-14.5 1.5q-36 -4 -45.5 -33zM393 1098q-1 5 2.5 6.5t8 0.5t5.5 -4q1 -4 -2.5 -6t-8 -1t-5.5 4zM399 600q0 11 5 17q3 3 6 4t7 2q4 0 8 2q5 1 10 4q11 5 23.5 8 t29.5 -3q5 -2 13 -7q6 -3 11 -6t10 -5q19 -9 34 -22q2 -2 4 -7q3 -5 7 -9q10 -7 28 -13q5 -2 9 -4q2 0 4 -1q17 -5 28 -15t0 -31q6 -4 11 -4t11 -3q9 -6 12.5 -17.5t0 -20.5t-15.5 -7q0 3 1 7q2 9 1 17t-11 11q-16 -21 -48 -34t-65.5 -11t-54.5 26q-9 10 -17 24t-1 27 q5 7 14.5 9.5t21.5 3.5q8 1 15 2q-6 4 -12 10q-7 7 -15.5 12.5t-23.5 3.5q-6 -1 -13 -4q-9 -4 -19.5 -5t-18.5 5q-4 4 -7 13.5t-3 20.5zM402 1557q-4 62 48 70q10 2 20.5 0t17.5 -5q6 -3 13.5 -10.5t10.5 -13.5q4 -10 5.5 -23.5t1.5 -24.5v-2q1 -28 -8 -46 q-4 -7 -16.5 -14.5t-22.5 -9.5q-20 -5 -33.5 3t-21.5 21q-7 10 -10.5 25t-4.5 30zM408 961q-1 5 3.5 7t8.5 0.5t3 -7.5q-1 -3 -4 -4t-6.5 0t-4.5 4zM408.5 894.5q-1.5 8.5 1.5 14t12 2.5q0 -5 -1 -9q-1 -5 -1 -12q0 -4 2 -10q1 -7 2.5 -14t0 -12t-7.5 -5q-4 0 -4.5 3t0.5 6 q1 4 1 7q-1 4 -2 12q-2 9 -3.5 17.5zM410.5 1591q-9.5 -29 0.5 -66q5 -15 16 -28t22 -16q5 -2 11 -1t10 2q11 3 22 9.5t16 13.5q5 9 7 23t1 27q0 8 -2 19.5t-5 18.5t-11 15t-14 11q-5 2 -14 3.5t-14 1.5q-36 -4 -45.5 -33zM411 700q1 6 6 13t6 15q1 7 -2 14q-2 5 -2 10 q-2 13 -1 29.5t5 27.5q2 3 7 2q4 -12 1 -28q-2 -10 -1 -20q0 -8 3 -15q3 -9 3 -22q-2 -7 -6 -13q-2 -3 -3 -6l-2 -6q-1 -4 -2.5 -7t-5.5 -5q-7 5 -6 11zM416 524q1 8 5.5 12t11.5 -2q0 -3 -1 -5t-3 -3t-3 -3q0 -2 1 -3t1 -2q2 -1 2.5 -2.5t0.5 -5.5q-9 -4 -12.5 1t-2.5 13z M419 1099q2 6 7 5.5t8.5 -6t2.5 -11.5q-7 -5 -10.5 -1t-5.5 9zM448 427q5 6 10.5 0.5t9 -16.5t3 -20.5t-7.5 -12.5q-4 2 -4.5 6t0.5 8v7q-2 8 -6 15q-4 6 -5 13zM449 679q0 11 8.5 13.5t16.5 1.5q20 -4 38 -19q10 -8 22 -14q7 -3 15 -4q9 0 14.5 -3t4.5 -12q-15 -1 -30 5.5 t-27 14.5l-6 4q-9 6 -18.5 11.5t-18.5 5.5q-4 -1 -8 -3q-2 -2 -4.5 -2.5t-6.5 1.5zM471 444q1 1 1 5h1l0.5 0.5l0.5 0.5q1 0 1 -1q14 -5 32.5 -9t40.5 -2q13 1 22 5q12 5 25 4q2 -6 -4 -9.5t-13 -4.5q-1 -1 -3 -1q-24 -8 -56 -5.5t-48 17.5zM472 523q1 -3 1 -5q2 -3 2 -5.5 t-2 -5.5q11 -16 24.5 -28t33.5 -16q25 -3 46.5 6t38.5 19q4 3 9 5q2 11 -3.5 16t-14.5 8l-10 4q7 -20 -7.5 -31.5t-31.5 -13.5q-22 0 -35 15.5t-9 39.5q-25 0 -42 -8zM487.5 1099.5q5.5 15.5 16.5 29.5q11 17 14 31q0 1 -0.5 2.5t-0.5 2.5q-1 1 -1 2.5t1 3.5l0.5 1t1.5 1 q3 2 4.5 1.5t3.5 -2.5l2 -2t2 -1q6 -16 10 -38.5t0.5 -42.5t-19.5 -27q-9 -3 -17.5 -0.5t-13.5 8.5q-9 15 -3.5 30.5zM501 373q-1 3 4 5q7 -2 17.5 -2t21.5 1q19 2 32 0q2 -6 -10.5 -9.5t-28.5 -4.5t-25 1q-3 1 -6.5 3.5t-4.5 5.5zM505 786q4 27 13 50q5 14 10 26.5t7 18.5 q1 2 4 2t6 -1q2 -13 8 -25q8 -15 11 -35q3 -28 -5 -53t-38 -22q-20 12 -16 39zM517 1558q1 16 2 31v16q-1 12 0 22q1 1 2 1q13 -2 25 -2t24 -3q7 -2 16.5 -8.5t14.5 -12.5q3 -4 7.5 -11.5t6.5 -13.5q4 -11 4.5 -27t-5.5 -29q-2 -5 -6 -10q-2 -2 -4 -5q-7 -9 -13 -14t-18 -10 q-22 -8 -51 -4h-3q-6 38 -2 80zM519 1518q0 -9 0.5 -19t2.5 -13q3 -4 12 -5t17 0q34 4 48 28l6 6q4 6 6 10q7 17 4 33t-10 27q-5 9 -8.5 14t-11.5 10q-8 6 -15 8.5t-19 3.5q-3 0 -6 1q-4 0 -8.5 0.5t-6.5 0.5q0 -1 -1 0q-6 -1 -6.5 -9.5t-0.5 -17.5q1 -5 0 -9q0 -15 -1 -32 q-2 -19 -2 -36v-1zM536 1555q1 16 2 31q0 8 -1 16q0 12 1 22q0 1 2 1q12 -2 25 -2q12 0 23 -3q8 -2 17.5 -8.5t13.5 -12.5q4 -4 8 -11.5t7 -12.5q4 -12 4.5 -28t-5.5 -29q-2 -4 -7 -9l-4 -6q-6 -9 -12.5 -14t-17.5 -10q-23 -7 -52 -4h-2q-6 38 -2 80zM537.5 1496.5 q0.5 -9.5 2.5 -13.5q4 -4 13 -5t16 0q35 5 49 28q3 4 5 7q5 5 7 9q6 17 3 33t-9 27q-5 9 -9 14t-12 10q-8 6 -15 8.5t-19 3.5q-2 1 -5 1q-5 0 -9 0.5t-6 0.5h-1q-6 -1 -7 -9.5t0 -17.5v-9q0 -15 -2 -32q-1 -19 -1 -36v-1q-1 -9 -0.5 -18.5zM545 143q-1 5 1.5 7t6.5 4t8 5 q7 6 13 15q6 10 13 16t16 1q0 -4 -2.5 -6.5t-5.5 -3.5q-1 -1 -3 -2q-5 -5 -9 -12q-7 -10 -16 -18t-22 -6zM546 512q4 -3 8.5 -2.5t8.5 3t4 7.5q-4 4 -9 4t-9 -3t-3 -9zM546 933q2 11 13.5 13t22.5 0h4q47 -5 93 -24q28 -10 56 -17.5t57 -6.5q17 0 32 6q2 0 5 2q5 2 11.5 3 t11.5 -5q-2 -5 -6.5 -6.5t-9.5 -2.5q-4 0 -7 -1q-1 0 -2 -1q-10 -3 -21 -5t-27 -1q-52 5 -98 24q-32 11 -65 18.5t-70 3.5zM581 -39q4 -10 6 -21q1 -3 1 -6q2 -1 3 -1q4 -2 8 -5t4 -7q0 -3 -2 -5.5t-5 -4.5l-3.5 -3.5t-1.5 -3.5q-2 -8 2 -13.5t10 -10.5t10.5 -11.5 t5.5 -15.5q2 1 5 2q6 2 13 3.5t15 -0.5q12 8 15 25q-4 4 -11 8q-15 8 -25.5 19.5t-0.5 28.5q-2 4 -5 6q-2 3 -3.5 5.5t-0.5 6.5q2 5 10.5 8.5t17.5 5.5t12 2l-8 6q-15 12 -27 25q-1 -1 -3 -1h-5h-4q-12 -25 -33 -42zM622 701q1 9 6.5 11.5t14.5 2.5q1 0 3 1q31 2 73 -2 q37 -3 73 -2h24h22q4 0 9 1q8 1 15 0.5t8 -6.5q0 -4 -4 -6t-10 -1.5t-12 0.5q-4 1 -7 1q-30 1 -59 1q-31 -1 -62 0q-12 1 -23 2q-27 3 -49 1q-4 -1 -8 -3q-3 -2 -6.5 -3t-7.5 2zM630 1579q2 12 6.5 22t10.5 17q4 5 13 11.5t17 7.5q34 3 51 -19q7 -10 10 -22q-4 1 -5.5 4 t-3.5 6q-1 3 -3 6q-7 10 -21 17.5t-30 2.5q-6 -2 -12.5 -6.5t-11.5 -10.5q-19 -21 -17 -65q1 -18 7.5 -34.5t16.5 -23.5q19 -11 41.5 -6t31.5 22q1 2 1 5q0 2 0.5 3.5t2.5 3.5q3 -3 2 -7.5t-3 -7.5q-2 -4 -5 -8t-6 -7q-14 -9 -36 -9t-35 9q-13 10 -18.5 36t-3.5 53zM643 8 q8 -13 23.5 -22.5t32.5 -16.5q0 -1 1 -1q29 -3 60 2q27 3 52 2q6 -1 13 -3q9 -3 17 -2t19 6q8 4 15 6q4 1 6.5 3.5l5.5 5.5q2 3 4 4l4 4q3 2 5 4t1 3q-12 1 -27 1q-19 -1 -39 0.5t-34 7.5q-16 -5 -37.5 -5.5t-35.5 7.5q-6 -4 -15 -3.5t-15 4.5q-3 -7 -11.5 -9t-17.5 0t-14 7 q-1 -1 -3 -2q-4 -2 -10 -3zM649 1577q1 11 6 21t10 17q5 6 14 12t17 7q34 3 51 -19q7 -9 10 -22q-4 2 -6 4.5t-3 6.5q-1 3 -3 5q-7 10 -21 17.5t-30 2.5q-7 -2 -13.5 -6.5t-10.5 -9.5q-20 -22 -17 -66q1 -18 7 -34.5t17 -23.5q19 -11 41 -6t31 22q1 3 2 5q0 2 0.5 4t2.5 3 q3 -3 2 -7.5t-3 -7.5q-2 -4 -5 -8t-6 -6q-14 -10 -36 -9.5t-35 8.5q-13 11 -18.5 37t-3.5 53zM664 851q-1 10 5.5 11.5t16 -1.5t18.5 -6q5 -2 8 -4q12 -4 23 -8q30 -11 60 -18q8 -2 16 -2q16 1 29 -7q-2 -6 -7.5 -6.5t-10.5 0.5h-3q-43 4 -78 20q-11 4 -23 8q-27 10 -54 13z M672 1014q-2 19 2 33t10 26t9.5 24.5t1.5 29.5q9 6 13 -0.5t7 -18.5q1 -5 2 -9q0 -1 1 -2q5 -17 9.5 -41t-1.5 -43q-6 -13 -17.5 -18t-22.5 -1t-14 20zM677 762q4 9 15.5 10.5t22.5 0.5h1q15 -2 30 -7l20 -6h9q4 0 8 -1t7 -5q-2 -6 -7.5 -6.5t-10.5 0.5h-3q-12 2 -24 6 q-21 8 -50 6q-3 0 -6 -1q-4 -2 -7 -1.5t-5 4.5zM720 534q7 5 12.5 -0.5t8 -16t3.5 -19.5q0 -1 1 -2l2 -2q2 -1 3 -2.5t0 -5.5q-4 -3 -9 -2t-8 3q-1 29 -13 47zM755 1578q2 26 1 50v0.5v0.5h0.5t0.5 1h2q2 -24 -1 -52q-4 -36 3 -65q4 -15 15.5 -25.5t30.5 -5.5q7 1 13.5 5.5 t10.5 9.5q5 9 6.5 22.5t1.5 27.5q0 8 1 14q1 26 1 54v3v7t3 5q2 -36 -1 -74q-1 -7 -1 -16q0 -14 -2 -27.5t-8 -21.5q-8 -10 -24.5 -13.5t-29.5 2.5q-8 4 -13.5 13t-7.5 19q-7 30 -2 66zM761 506q-2 8 2 17.5t11 11.5q2 0 2.5 -0.5l1.5 -1.5q0 -1 0.5 -1.5t1.5 -0.5 q-1 -6 -4 -11q-3 -4 -4 -8t2 -10q-11 -4 -13 4zM774 1575q2 26 1 50v0.5v0.5v0v1h2q3 -24 0 -52q-4 -35 3 -65q4 -15 15 -25.5t30 -5.5q7 2 14 6t10 9q5 9 6.5 22.5t2.5 28.5q0 7 1 14q1 25 1 53v4q-1 3 -0.5 6t3.5 5q2 -36 -2 -73v-17q-1 -14 -2.5 -27.5t-7.5 -21.5 q-8 -10 -25 -13.5t-30 2.5q-7 5 -12.5 13.5t-8.5 18.5q-6 30 -1 66zM783.5 287q-1.5 11 2.5 23q2 1 3 1q0 1 1.5 1.5t3.5 0.5q3 -4 3 -8.5t-1 -9.5q-1 -8 0 -16q1 -7 4 -14q7 -12 7 -28q0 -5 -1.5 -11.5t-5 -11t-11.5 -3.5q-1 4 0 7l2 6q3 4 4 9q1 17 -6 33q-4 10 -5.5 21z M809 480q1 4 6.5 10t13 10.5t12.5 1.5q0 -7 -3 -10t-7 -5q-4 -1 -6.5 -3t-3.5 -6q0 -3 2.5 -7t5.5 -8q5 -5 8 -11q3 -7 5 -15t2 -13q1 0 1 -1v-9t-1.5 -9.5t-7.5 -5.5q-4 3 -4 6t1 5q1 3 1 6q-2 17 -10 35q-3 5 -7 9q-3 5 -5.5 9.5t-2.5 10.5zM850 542q2 10 16 16q15 5 29 8 q15 3 33 10l20 8q21 10 45 17.5t54 7.5q9 0 21.5 -1t18.5 -3t13 -8q5 -4 9 -6l6 -4q5 -2 9.5 -5t6.5 -6q4 -12 1.5 -22t-5.5 -14q-3 -5 -9 -8.5t-13 -4.5q-13 0 -25 4q-8 3 -16 4q-10 0 -19 -4q-11 -4 -23 -4q10 -5 22 -9q17 -6 31 -15q-7 -18 -23.5 -31.5t-34.5 -21.5 q-14 -6 -34 -8t-37 3q-9 3 -18 7q-5 2 -11 4q-8 3 -15 7q-12 6 -28 10q-2 18 10.5 28t28.5 16q3 2 6 3q-13 1 -26 -2.5t-22 -9.5q-10 5 -16.5 14.5t-4.5 19.5zM860 1626q3 3 8.5 3.5t12.5 -0.5q9 -1 17 1q3 1 4 3q2 1 3 2q3 -1 5 -3q1 -1 4 -2q8 -2 18 -1q11 1 19 -1 q-4 -3 -9 -3t-11 1q-11 1 -18 -1q-5 -3 -6 -11t0 -18t2 -18q0 -5 1 -8q1 -33 -1 -65q-1 -13 -1 -24q-3 2 -3 5.5v6.5v5q0 12 1 24q1 21 0 42q0 5 -1 12q-2 17 -2 32v2q1 5 0.5 9t-2.5 6q-4 2 -9 2t-12 -1q-6 -1 -11.5 -1.5t-8.5 1.5zM869 816q-1 7 7 9.5t19.5 2t20.5 -3 t10 -5.5q0 -6 -6.5 -6.5t-13.5 1.5q-4 1 -7 1h-15q-9 -2 -15 1zM874 -144q22 -16 45.5 -8.5t34.5 28.5q-18 10 -14 22.5t16 25.5q7 9 12.5 18t5.5 19q-5 1 -12 -1q-6 -1 -11.5 -0.5t-6.5 7.5q2 2 3 4q3 3 5.5 7t1.5 11q-8 5 -10 14q-9 2 -16 -2t-13 -10q-3 -2 -6 -5 q-14 -10 -24 -18h4q18 -1 30.5 -5t11.5 -20q-2 -10 -10 -15.5t-18 -9.5q-9 -4 -16 -9q8 -8 6.5 -18.5t-7.5 -19.5t-12 -15zM878 1624q4 2 9.5 2.5t11.5 -0.5q10 -1 17 1q3 1 5 3q1 1 3 2q3 -1 4 -2q2 -2 5 -3q7 -2 17 -1q11 2 19 -1q-3 -3 -8 -3t-11 1q-11 2 -19 -1 q-4 -2 -5 -10t-0.5 -18t1.5 -19q1 -5 1 -8q2 -33 -1 -65q0 -13 -1 -24q-2 2 -2.5 5.5t0.5 7.5v4q0 12 1 24q1 21 0 42q0 5 -1 12q-2 17 -2 32v3q1 4 0.5 8t-3.5 6t-8.5 2t-11.5 -1t-11.5 -1t-9.5 2zM881.5 440.5q-1.5 3.5 5.5 8.5h2q9 -4 18 -9q13 -8 27.5 -13.5t34.5 -4.5 q12 1 23 4q6 1 11 2q3 0 6 1q7 2 14 2.5t13 -3.5q0 -7 -4.5 -8.5t-10.5 -0.5q-4 0 -7 -1q-9 -1 -19 -3q-26 -8 -56 -3q-9 3 -19 8q-6 3 -11 6l-6 2q-7 2 -13.5 5.5t-8 7zM883 991q4 25 16 47q7 14 12 28.5t4 32.5q0 2 3 3t7 0.5t6 -1.5q0 -20 5 -44q4 -22 5 -42.5t-7 -38.5 q-6 -12 -18.5 -16t-23 3t-9.5 28zM887 483q15 -5 30 -12t31.5 -12.5t35.5 -3.5q24 3 43 15.5t30 27.5l-14 6q-14 7 -30 11q6 -20 -4.5 -34t-28.5 -15t-30.5 9t-18.5 23q-2 5 -2 12q-27 -8 -42 -27zM910 169q2 5 11 4q1 -2 3 -3q3 -5 5.5 -10t1.5 -11h-1.5t-1.5 -1h-1 q-5 2 -7.5 6t-5.5 8q-2 4 -4 7zM931 623q6 15 24 22t42 7q3 1 5 1q7 0 12.5 -0.5t8.5 -6.5q-5 -5 -12 -6t-15 0q-6 1 -12 0q-14 -1 -25 -6q-6 -3 -10 -7q-5 -4 -9 -5.5t-9 1.5zM932 219.5q-3 8.5 0 21.5q1 2 5 3q5 -2 5.5 -5.5t0.5 -7.5q-1 -4 0 -7q2 -8 8 -17q4 -5 6 -11 q6 -11 11 -23q7 -16 16 -33l2 -4q4 -6 6 -12.5t-3 -12.5q-4 0 -6 3t-3 6q0 2 -1 3q-15 34 -34 71q-2 5 -5 9q-5 8 -8 16.5zM954 392q3 4 6.5 3.5t7.5 -2.5q4 -3 9 -4q13 0 26 7q8 3 15 4.5t12 -2.5q-4 -7 -17 -12.5t-25 -7.5q-12 -1 -21.5 2t-12.5 12zM961 504q4 -2 11.5 -3 t12.5 1q3 5 -0.5 8.5t-9 4t-10.5 -2t-4 -8.5zM963 1626q4 3 9.5 3.5t11.5 -0.5q10 -1 17 1q3 1 5 3q1 1 3 2q3 -1 4 -3q2 -1 5 -2q7 -2 17 -1q11 1 19 -1q-3 -3 -8.5 -3t-11.5 1q-10 1 -18 -1q-4 -3 -5 -11t-0.5 -18t1.5 -18q1 -5 1 -8q2 -33 -1 -65q0 -13 -1 -24 q-2 2 -2.5 5.5t0.5 6.5v5q0 12 1 24q1 21 0 42q-1 5 -1 12q-2 17 -2 32v2q1 5 0.5 9t-3.5 6t-8.5 2t-11.5 -1t-11.5 -1.5t-9.5 1.5zM982 1624q4 2 9.5 2.5t11.5 -0.5q10 -1 17 1q3 1 4 3l4 2l4 -2q2 -2 4 -3q8 -2 18 -1q11 2 19 -1q-3 -3 -8.5 -3t-11.5 1q-11 2 -18 -1 q-5 -2 -6 -10t0 -18t2 -19q1 -5 1 -8q2 -33 -1 -64q-1 -14 -1 -25q-2 2 -2.5 5.5t0.5 7.5v4v24q2 21 1 42q-1 5 -1 12q-2 17 -2 32v3q0 4 -0.5 8t-2.5 6q-3 2 -8.5 2t-11.5 -1t-11.5 -1t-9.5 2zM983 845q-2 18 2.5 31t10.5 25q5 8 9 17q3 9 4 20q0 12 4 24q13 4 16.5 -6.5 t3.5 -25.5q1 -10 2 -19l4 -16q4 -10 4 -16q2 -21 -6 -36.5t-19 -17.5q-13 -2 -20 3.5t-12 13.5q-2 1 -3 3zM985 532q2 1 5 0h5t2 2q-2 -1 -5 0h-4t-3 -2zM1027.5 372q-0.5 1 0.5 3q6 2 13 4q14 4 24 14q2 2 4 5q1 3 2 5t4 3h2h1q1 -1 1.5 -1h1.5q0 -2 1 -3q-11 -35 -53 -35 q0 2 -1 3q0 1 -0.5 2zM1045 1160q2 10 9.5 9.5t15.5 -7.5t13 -15.5t2 -13.5q-6 1 -10 5t-7 8q-5 7 -12 11q-2 1 -5 1h-3.5t-2.5 2zM1059 445q4 7 11.5 12t15.5 2q0 -6 -5 -11t-11.5 -6.5t-10.5 3.5zM1070 1542q1 3 1 5q1 3 2 5q1 17 -1 34q-4 22 1 43q16 1 34 0.5t33 -0.5 q-3 -3 -6 -3.5t-6 0.5h-3h-11h-5q-2 1 -5 1q-6 1 -14 1t-13 -3q-4 -4 -4 -13.5t2 -18.5v-8q1 -3 0 -10v-18t3 -12q4 -4 12.5 -4t17.5 1q8 1 15 1.5t12 -1.5q-2 -2 -5.5 -2.5t-6.5 -0.5h-3h-13q-14 -1 -27 -1q-3 -3 -4 -8t-1 -12v-4v-5q0 -6 0.5 -11.5t1.5 -8.5 q4 -4 11.5 -4.5t14.5 -0.5h3h9q14 1 23 -2q-1 -2 -3.5 -2t-4.5 1h-4h-14q-21 -1 -39 1q-2 12 -1 25q1 10 1 19q-1 4 -2 7q-1 4 -1 9zM1077 764q4 13 14 29q15 22 20 49q1 5 1 16.5t-0.5 22.5t-1.5 17q1 2 3 3t5 0.5t4 -1.5q5 -31 0.5 -55.5t-14.5 -45.5q-4 -7 -8 -15 q-9 -14 -12 -26q0 -13 5 -26q1 -3 1 -6q1 -2 2 -5q3 -5 3.5 -11t-5.5 -10q-4 1 -5.5 5t-2.5 9q-1 4 -1 6q-2 5 -3 9q-7 16 -5 35zM1084.5 1001q0.5 4 9.5 2l2 -4q2 -6 4 -13.5t0.5 -13t-9.5 -5.5q-1 2 -4 3q3 4 2.5 9.5t-2.5 10.5q-3 7 -2.5 11zM1089 1539q0 3 1 6q1 2 1 5 q1 16 -1 33q-3 23 1 43q17 1 35 1t32 -1q-2 -2 -5 -2.5t-6 -0.5h-3h-11q-3 1 -5 1h-5q-7 1 -14.5 1t-12.5 -3q-4 -3 -4 -13t1 -19q1 -4 1 -7v-11q-1 -8 -0.5 -17t3.5 -13q4 -4 12 -4t18 1q8 1 15 1.5t11 -1.5q-2 -2 -5 -2.5t-7 -0.5h-2h-14q-13 0 -26 -1q-4 -2 -4.5 -7.5 t-0.5 -11.5v-5v-5v-11.5t2 -8.5q3 -4 10.5 -4.5t14.5 -0.5h4h9q13 1 23 -1q-1 -3 -3.5 -3t-4.5 1h-4h-15q-20 -1 -38 1q-2 12 -1 25q1 10 0 19q0 4 -1 7q-1 5 -1 9zM1137 1016q-1 7 2.5 8.5t7.5 -0.5t3 -8l-0.5 -0.5l-0.5 -0.5v-1q-4 -2 -7 -1t-5 3zM1138 1075q-1 7 3.5 8.5 t8.5 -1.5t4 -9q-1 0 -1 -0.5v-0.5v-1q-5 -2 -9 -0.5t-6 4.5zM1152 1043.5q1 3.5 4.5 5t7.5 -1.5q0 -7 -3 -10h-6q-4 3 -3 6.5zM1154 759q-2 8 0 10.5t5 1.5t5 -3.5t0.5 -5.5t-8.5 -4q0 1 -0.5 1h-0.5h-1zM1154 825.5q0 4.5 3.5 7t8.5 -1.5q2 -12 -7 -12q-5 2 -5 6.5z M1156 717q3 5 8.5 6t8.5 -5q0 -14 -15 -12q-5 6 -2 11zM1158 1502v2v6q0 13 1 26q3 47 -1 91h2q28 4 50 -2q9 -3 16 -10.5t9 -16.5q2 -14 -1 -28.5t-10 -22.5q-2 -2 -5 -4q-3 -1 -5 -2.5t-3 -4.5q-1 -5 2 -11t7 -10q3 -4 5 -7q9 -15 11 -29q-3 1 -4.5 3.5t-2.5 6.5l-2 4 q-4 8 -9 15l-8 14l-2 4q-1 4 -2.5 6.5t-3.5 3.5q-3 1 -6.5 1h-7.5q-3 -1 -5 -1h-2q-4 0 -8 -0.5t-7 -1.5q-4 -3 -4.5 -12t0.5 -19q1 -13 0 -22q-3 4 -3.5 10t-0.5 11zM1163 1594q1 -6 1 -13q1 -7 0 -14q-1 -14 2 -26q26 -4 44 2q12 7 18.5 24.5t1.5 31.5q-14 30 -59 26 q-3 0 -4 -1l-2 -2q-1 0 -2 -1q-1 -13 0 -27zM1176.5 1488q-0.5 6 0.5 11v2v6v26q3 47 0 92h1q29 4 51 -3q8 -3 15.5 -10.5t9.5 -15.5q2 -15 -1.5 -29.5t-10.5 -22.5q-2 -2 -5 -3q-2 -2 -4.5 -3.5t-2.5 -4.5q-1 -5 2 -10.5t7 -10.5q3 -4 5 -7q9 -15 11 -29q-3 1 -5 4t-3 6 q0 2 -1 4q-4 8 -9 16q-4 6 -8 13q-1 2 -2 5t-2.5 6t-4.5 3q-2 1 -6 1h-8q-2 0 -4 -1h-2h-8.5t-6.5 -2q-4 -3 -4.5 -12t0.5 -19q1 -13 -1 -22q-3 4 -3.5 10zM1178 1036.5q1 3.5 4.5 4.5t6.5 -1q3 -6 -0.5 -9.5t-9.5 -0.5q-2 3 -1 6.5zM1179 775q-1 5 1.5 7.5t6 3t6 -2 t1.5 -8.5l-3 -3l-2 -2q-9 0 -10 5zM1181 869q2 5 7 7q1 0 2 -0.5t2 -1.5q0 -1 0.5 -1.5t1.5 -0.5q1 -12 -11 -12q-4 4 -2 9zM1181 911q-1 5 2 8t8 3t8 -3q1 -5 -2.5 -7.5t-8 -3t-7.5 2.5zM1182 1591q1 -6 1 -12v-15q-2 -14 1 -26q27 -4 45 3q12 6 18 23.5t2 31.5 q-15 30 -60 26q-2 0 -3 -0.5l-3 -1.5q0 -1 -1 -2q-2 -13 0 -27zM1184 678q0 4 3 7q6 1 8.5 -2t1.5 -7t-4 -5q-4 -1 -6.5 1t-2.5 6zM1187 1001q-1 6 2.5 8t7 0t2.5 -8q-1 -2 -3.5 -2.5t-5 0t-3.5 2.5zM1188 734q1 3 4 4t7 0.5t6 -4.5q-1 -5 -5.5 -6.5t-8.5 0t-3 6.5z M1192 837q1 4 5 4.5t7 -2.5t2 -8q-4 -4 -9 -2t-5 8zM1196.5 942.5q0.5 4.5 4.5 7.5t9 0q1 -6 -1.5 -11.5t-9.5 -4.5q-3 4 -2.5 8.5zM1199 981q-1 6 2 8t8 0q1 -3 0.5 -5.5t-2.5 -4.5q-3 -1 -5 0t-3 2zM1202.5 690q0.5 3 3.5 5q5 2 7 -1t1 -7t-5 -4t-5.5 2t-1 5z M1203.5 781.5q1.5 3.5 4.5 4.5t6 -1t2 -9q-3 -3 -10 -2q-4 4 -2.5 7.5zM1209 853q-2 5 1.5 7.5t7.5 1.5t5 -5q1 -3 -2 -5t-6.5 -2t-5.5 3zM1212 887q-1 5 2 7t7 1.5t6 -4.5q0 -4 -2.5 -5.5t-6.5 -1.5t-6 3zM1222 433q7 -12 4 -29l6 -6q22 -17 34 -45q2 15 6 30q5 19 8 40 q2 13 2 27q0 27 7 50q5 16 14 31q14 21 17 43q-1 -2 -4 -2.5t-6 0t-3 3.5q0 2 1 4q1 5 1 8.5t-3 7.5q-9 -1 -16 -2q-19 -2 -32 -10q-4 -4 -7 -9q-2 -4 -5 -7.5t-8 -3.5q-1 1 -3 2q-1 0 -1.5 0.5t-0.5 1.5q2 7 7.5 15.5t15.5 14.5q11 5 26.5 9t25.5 3q5 -2 8 -6t4 -9 q2 -7 6 -12q4 21 -3.5 39t-21.5 27q-22 -1 -35.5 -10t-23.5 -21q-4 -5 -9 -9q2 -17 -4 -32q-4 -9 -5 -18q-2 -30 0 -60q1 -35 -2 -65zM1240 421q6 4 9.5 0t4.5 -11t-2 -11q-7 0 -9 5t-2 12q-1 2 -1 5zM1244 476q-3 11 2 20.5t12 17.5q7 9 11.5 18t-0.5 19q-2 1 -3.5 0.5 t-2.5 -1.5q-2 -2 -4 -2.5t-4 1.5q-3 10 4 13t15 -0.5t10 -9.5q0 -13 -3.5 -22.5t-10.5 -19.5q-3 -5 -7 -9q-3 -5 -6 -9t-2 -8q0 -3 1 -4.5t3 -2.5t3 -3t1 -6q-7 -4 -12.5 -0.5t-6.5 8.5zM1257.5 706.5q-4.5 16.5 0 38.5t9.5 35q8 24 11 44l0.5 0.5l0.5 0.5h1v1h1h3 q2 -6 5 -13q14 -29 20 -64q2 -20 -4 -35.5t-19 -18.5q-24 -5 -28.5 11.5zM1263.5 1488.5q0.5 2.5 2.5 3.5t6 0q1 -3 0.5 -5t-2.5 -3h-5q-2 2 -1.5 4.5zM1282.5 1485.5q0.5 2.5 2.5 3.5t5 0q1 -2 0.5 -4.5t-1.5 -3.5h-5q-2 2 -1.5 4.5zM1309 1542q1 3 2 5q0 3 1 5q1 17 -1 34 q-4 22 1 43q16 1 34 0.5t33 -0.5q-2 -3 -5.5 -3.5t-6.5 0.5h-3h-11h-5q-2 1 -5 1q-6 1 -14 1t-12 -3q-5 -4 -5 -13.5t2 -18.5v-8q1 -3 0 -10v-18t3 -12q4 -4 12.5 -4t17.5 1q8 1 15 1.5t12 -1.5q-2 -2 -5.5 -2.5t-6.5 -0.5h-3h-13q-14 -1 -27 -1q-3 -3 -4 -8t-1 -12v-4v-5 q0 -6 0.5 -11.5t2.5 -8.5q3 -4 10.5 -4.5t14.5 -0.5h3h9q14 1 23 -2q-1 -2 -3.5 -2t-4.5 1h-4h-14q-21 -1 -39 1q-2 12 -1 25q1 10 1 19q-1 4 -1 7q-1 4 -2 9zM1328 1539q0 3 1 6q1 2 1 5q1 16 -1 33q-3 23 1 43q17 1 35 1t32 -1q-2 -2 -5 -2.5t-6 -0.5h-3h-11q-3 1 -5 1h-5 q-7 1 -14.5 1t-12.5 -3q-4 -3 -4 -13t1 -19q1 -4 1 -7v-11v-17t3 -13q4 -4 12 -4t18 1q8 1 15 1.5t11 -1.5q-2 -2 -5 -2.5t-7 -0.5h-2h-14q-13 0 -26 -1q-4 -2 -4.5 -7.5t-0.5 -11.5v-5v-5v-11.5t2 -8.5q3 -4 10.5 -4.5t14.5 -0.5h4h9q13 1 23 -1q-1 -3 -3.5 -3t-4.5 1h-4 h-15q-20 -1 -38 1q-2 12 -1 25q1 10 0 19q0 4 -1 7q-1 5 -1 9zM1389 1499q3 0 5 -1.5t3 -3.5q2 -1 3 -2q7 -5 18 -9t25 0q8 3 14.5 11.5t6.5 19.5q1 6 0 13t-4 12q-4 8 -13 11.5t-21 5.5q-10 2 -19.5 5t-14.5 10q-10 19 -1 39t28 24q15 2 27.5 -4t15.5 -20q-7 4 -10 9 q-4 5 -9 8q-25 9 -41.5 -8.5t-6.5 -41.5q5 -8 15 -12.5t21 -6.5q2 -1 4 -1q9 -1 17 -4t12 -10q2 -4 3 -9.5t1 -10.5q4 -49 -47 -45q-10 1 -19.5 6.5t-12.5 14.5zM1408 1496q2 0 4 -1.5t4 -2.5q1 -2 3 -3q7 -5 18 -9t24 0q9 3 15 11.5t7 19.5q0 6 -0.5 13t-3.5 12 q-4 8 -13.5 11.5t-20.5 5.5t-20 5t-14 10q-10 19 -1 39t27 24q16 2 28.5 -4t15.5 -20q-7 5 -11 9q-3 5 -9 8q-24 9 -41 -8.5t-6 -41.5q5 -8 14.5 -12.5t21.5 -6.5q2 -1 4 -1q9 -1 16.5 -3.5t11.5 -9.5q2 -4 3 -10t2 -11q3 -48 -48 -45q-10 1 -19.5 7t-11.5 14z" />
<glyph unicode="&#x25fc;" horiz-adv-x="1445" d="M0 0v1445h1445v-1445h-1445z" />
</font>
</defs>
</svg>
